<mxfile host="app.diagrams.net" modified="2023-06-28T08:14:03.850Z" agent="Mozilla/5.0 (X11; Linux x86_64; rv:109.0) Gecko/20100101 Firefox/114.0" etag="HQ21Hn2J1k35icCxbfQC" version="21.5.0" type="device">
  <diagram name="Page-1" id="PBT6TwOp-xN9eMRWopN-">
    <mxGraphModel dx="1587" dy="849" grid="1" gridSize="10" guides="1" tooltips="1" connect="1" arrows="1" fold="1" page="1" pageScale="1" pageWidth="850" pageHeight="1100" math="0" shadow="0">
      <root>
        <mxCell id="0" />
        <mxCell id="1" parent="0" />
        <mxCell id="DMj2-y2GFaX9TFa4xjfr-1" value="" style="shape=image;verticalLabelPosition=bottom;labelBackgroundColor=default;verticalAlign=top;aspect=fixed;imageAspect=0;image=data:image/png,iVBORw0KGgoAAAANSUhEUgAAB3AAAAOlCAIAAAATouGeAAAACXBIWXMAAA7EAAAOxAGVKw4bAAAgAElEQVR4Xuzde2DO5f/H8de92WYbcz7kFCJZUk7xLYeyg1MmZzmfTx3klCgdCMkhfgrlkAohU8hptilUcuygkIjG5Mxmdr7v3x/33IePjall97bn44++1/V+v++Vuur7ud+u6/qYQkND/fz8ChYs6OPj4+vrmz9//vz583t6erq7u1v/qLzNbDZHR0cXLFjQZDIZcwAAAMg5LBZLampqTExM6dKlreOUlJSUlJTk5OSkpKTExMTExMSQ4dPNqSn5/tol6dixY8YfgUzg+RkAACB3yOj5OZ+xEM6io6PLly9vjAIAACDHOn78eOnSpY1RZBGenwEAAHIZw/MzDeXbKFiwoKSoqCg/Pz9jLtdJTk4OCwsLDg728PAw5oAbWCfIDNYJMoN1gtvK2kVisViuXLlSsWLFAgUKGHPIOnnq+TnPytp/N5ErsUhwWywS3BorxBVk9PxMQ/k2rCf1/Pz88sIDcXJyso+Pj5+fH/+u4hZYJ8gM1gkyg3WC28raRWKxWMxms2484OE/kqeen/OsrP13E7kSiwS3xSLBrbFCXEFGz89ujhMAAAAAAAAAADJCQxkAAAAAAAAAkCk0lAEAAAAAAAAAmUJDGQAAAAAAAACQKTSUAQAAAAAAAACZQkMZAAAAAAAAAJApNJQBAAAAAAAAAJlCQxkAAAAAAAAAkCk0lAEAAAAAAAAAmUJDGQAAAAAAAACQKTSUAQAAAAAAAACZQkMZAAAAAAAAAJApNJQBAAAAAAAAAJlCQxkAAAAAAAAAkCk0lAEAAAAAAAAAmUJDGQAAAAAAAACQKTSUAQAAAAAAAACZQkMZAAAAAAAAAJApNJQBAAAAAAAAAJlCQxkAAAAAAAAAkCk0lAEAAAAAAAAAmUJDGQAAAAAAAACQKa7VUP7+++8HDBjg7+/v5+fn5eVVtmzZkJCQTz/91Gw2G0sz4dq1azNmzGjSpEmpUqU8PT1LlSrVpEmTGTNmxMXFGUsBAAAAAAAAALfjKg3lxMTEXr16PfbYYwsXLjx06FBsbGxSUlJ0dPT69et79uxZr1696Oho42du6fvvv7///vtHjRq1ffv2c+fOJScnnzt3bvv27aNGjbr//vt37dpl/AAAAACQ07AhAwAAAHdZPmMgm/To0ePzzz83Rm/Yv39/48aNDxw4ULBgQWMuPQcPHgwODr527ZoxIUmKjo4OCgr6/vvva9SoYcwBAAAAOUFiYuLAgQM/+eQTx2B0dLR1T8asWbPWr19fpkwZx+ytff/99+3btz9z5owtcu7cOeuejJkzZ4aGhjZo0MChHAAAAHmUS+xQjoiIcOwmBwQEfP311wcPHvzggw/8/PyswWPHjr388su2mlvr27evrZtcpEiRZcuWHTp0aOnSpYULF7YGr1271q9fP/sHAAAAgBylR48ehm6yI+uGjNjYWGMiA9YNGY7dZEfWDRkHDx40JgAAAJD3uERDefXq1baxr6/vmjVrmjRp8uCDDw4cOHDs2LG21EcffXT58mXbNCPbt2/fs2ePbTpjxoyuXbs+8MAD3bp1e+edd2zx3bt379ixwzYFAAAAcgo2ZAAAACC7uERD+cSJE7bxvffea3sIlvTwww/bxvHx8Zs2bbJNM+L4bG0ymdq3b2+bduzY0WQy2aa3uGQDAAAAcFlsyAAAAEB2cYmGcv78+W3j06dPJyUl2abHjx+3jSU5PulmxLGmfPnyju3pwoULly1b1jbNzE8DAAAAXA0bMgAAAJBdXOKlfPXr1//yyy+t46tXrw4cOHDChAnFixf/7rvvJk2a5Fh56tQpx2m6/vzzT9u4ZMmSDpm0iO2HOFY6SkxMTExMtI5jYmIkJScnJycnOxXlRtZfY174leLfYJ0gM1gnyAzWCW4raxeJxWLJqh+V7W7ekOHp6Wmd3rwho2vXro6Rm912Q4bt+ZkNGQAAAHCJhnL//v2nTZt26dIl6/Tjjz/++OOPnUvSXL161Ri6iWONt7e3Q0aSfHx8bOMrV644ZOymTJny5ptvOkbCwsIcP5i7bd261RgCbsI6QWawTpAZrBPcVlYtEovFEhcXZ4zmTK62IQMAAAB5h0s0lIsXL7527dqQkJB0r3hzc3Mzm83WseNejMywWCy3jdxs7NixI0aMsI5jYmLKly8fHBzsuFMjt0pOTt66dWtQUJCHh4cxB9zAOkFmsE6QGawT3FbWLhKLxZLRfoIcx9U2ZOTZE355VtaeHkCuxCLBbbFIcGusEFeQ0Qk/l2goS2rYsOHBgwenTp26Zs0a6w4INze32rVrDxs2bPbs2Xv37rWWFStWzOlj6SlUqNC5c+es4/j4eOekU8T20moDLy8vLy8vx4iHh0eWfI3JEfLULxb/GOsEmcE6QWawTnBbWbVILBZLlvwcV+BqGzLy+Am/PCurTg8gF2OR4LZYJLg1Vkj2yuiEn6s0lCWVKVNm9uzZs2fPjomJiY2NLVKkiI+PT0JCwsCBA201NWvWdPhE+ipVqmRrKNsGNmfPnrWNK1Wq5JABAAAAcgyX2pCRZ0/45VlZe3oAuRKLBLfFIsGtsUJcQUYn/FyooWzj5+dne/oMDQ11fIR98sknbeOM1KtX74cffrCOT506dfXq1UKFClmnly9fPn36tGOlbQwAAADkLK6zISOPn/DLs/injNtikeC2WCS4NVZI9srohJ+bMZBNzp8/bwxJUVFRo0ePtk0bNGjwyCOPWMcnTpwwOfj6669tZR07drSNLRbL6tWrbdNVq1bZxnKuBAAAAHIoPz+/smXLWq+Y+GcbMmxj64YM25QNGQAAADBwlYbyjBkzatas+fbbb+/cufPo0aN79+6dNm1anTp1zpw5Yy1wc3N7++23nT+UvsaNGzs+6Y4ePXrZsmVHjhxZtmzZmDFjbPFHH320UaNGtikAAACQg7AhAwAAANnCha68+OWXX8aOHWuM3jBlypQmTZoYoxlYvHhxgwYNrJdGX758uXv37oaCAgUKLFq0yBAEAAAAcooZM2Zs3Lixa9euDRs2LFWq1NWrV7dt2zZt2jRbo/lON2Ts2bPHOh09enT+/Pnr1q27d+9eNmQAAADAwIUayhkpXLjwrFmzevXqZUxkrEaNGlu3bm3fvr1tg7Oje+65JzQ0tEaNGsYEAAAAkHOwIQMAAAB3n6s0lHv16uXt7f3NN9/8+eefFy9eTExMLFasmL+/f/Pmzfv161ekSBHjB27nf//73++//z5//vx169YdOnToypUrhQsXrl69ekhIyODBgwsUKGD8AAAAAAzWrlXr1nJzlUvSkElsyAAAAMB/x1UaytWrV3/99deN0YxVrFjRYrEYo84KFCgwatSoUaNGGRMAAAC4rbfe0vjx6tVLixbJ3d2YRXZjQwYAAACyhas0lAEAAOBCpk/X+PGS9PHH6tJFzZsbC5Dd2JABAACAbMEBRgAAADh77z2NHp02nj6dbjIAAAAAGxrKAAAAcLBwoZ5/Pm08caJGjnTKAgAAAMjbaCgDAADghk8/1cCBaeNXXtGrrzplAQAAAOR5NJQBAAAgSVq1Sr17y3rN7ogRmjjRWAAAAAAgz+OlfAAAAJDWrlW3bjKbJWnoUE2fLpPJWCNJun5dhw+nFaaralUVKmQMAgAAAMgdaCgDAADkeZs3q1MnpaRIUr9+mjMno27yt9+qZUvFxBjjjjw8tGyZOnY0xgEAAADkAlx5AQAAkLdFRqptWyUlSVK3bvrgA7ll+Ig4ceJtusmSkpP1yivGIAAAAIDcgR3KAAAAedjOnWrdWgkJktShg5Yskbu7sUb69VetWaO4OG3ZYkyl6+hRvfCCfHxUpIi6dNG990rStm2KjFRysrHYqmhRde2qcuWM8X/PbNaqVfrpJ1WqpJAQYxYAAADAHaGhDAAAkFft3q2WLXX9uiS1bq3ly5UvnYfDo0dVr57i441xSfnz28fWprTNnDlpgxkz9Pvv2rZN7do5Fdxs1iwdPSpfX2P8Xxo/XpMnp40z2RAHAAAAkJF0vjMAAAAg9ztwQM2aKTZWkpo10+efy8PDWCNJWr06nW6yyaRr1+Tj4xQsU0ZnzjhFJJ0/r02btGqVMX6zM2e0daueftoY/5cWL7aP16yxjwEAAICcIiVFr7yiVavSeTK38fZW586aNCndM4dZiYYyAABA3nPwoIKCdOWKJD3xhNaskZeXoWTHDo0fr9On9ccfhowktWxp7CZL6tDBvjHZUdeuxkhG2rZVlSqOgXxxcQG+vv/8kTUuTn//bQwCAAAAOcvnn+udd4zBm02dqlq11LmzMZ61/vnTOQAAAHKkI0cUGKiLFyXpsce0fv3NveHERD39tC5dMoQlqXt3Va2q4cONcUkzZqhSJR04IItFS5caszYVKqhxY/vUUOncvzZJBRznAAAAQF4TF6fp043BjLz9dpa9mMRi0bVrxqBoKAMAAOQtx48rIEBnz0pS3brauFEF7B1bs1lHjyohQXv3pt9N3rhRLVoYgzYeHvZG82OPaehQp6yVyaQ9e1SypD1Sq5ZGjrRPAQAAANj8+KMCAtJ/OE/Xjz+qYUNjMGvRUAYAAMgz/vpLTZvq9GlJevhhbdmiQoVsyXPn1LSpfv3VFjCqX1+BgcZgRjp10syZ6VyXMWiQUzdZUrdumjNHJ044BQEAAABImjbN2E3u10/PPOMUWbpUS5Y4Rf5TNJQBAADyhuhoNW2qkyclyd9fW7eqaFHH/KJFGXaTv/xSRYuqfv2M3tuXjmLF9OOP2rXL6ZRcuXKqXds+tSpVSj//rF27dP26MZWSkrJv3746derky/dvn1qLFNHVq4qJUffuxhQAAADgmiwWLV/uFDGZ9OqrqljRKVipEg1lAAAAZK1z5xQQoGPHJKlqVUVEqEQJa+bCBX32mc6d01tvOX7A7tVX1aaNMZgZvr4KCDAG01WwoIKCjEFJycmWfPn+btnSkvlG9i1YLGmvIQQAAAByhGnTjJEPPjB2kyVVrqwPPtA776S9JyULWSy6etUYpKEMAACQ2128qMBAHT4sSZUqKTJSpUtbMykpatQoLWOQL588PBQUpBEjjCkAAAAAd8EnnzhNo6IyfOHewIEaONAY/JesGzKcjzVKNJQBAAByuStX1KyZfvlFksqVU2Sk40Porl3pd5O3bFFwsDEIAAAA4K5JSTFeSZdRN/kuczMGAAAAkGvExqpFC+3bJ0mlSysy0npAzmzW5MmqXVuNGjnXS5KKF//PXwwNAAAA4Nbef99p+vPPTtNsxA5lAACAXOr6dT31lHbtkqTixRURoapVrZnVq/XKK46laTp3VsmSGjpUPj7GFAAAAIC76eBBp+mDDzpNsxENZQAAgNwoIUFt2mj7dkkqUkTh4fL3t2auXNGcOY6laV5+WVOmGIMAAAAAsoX1jdpWpUrJzWVumnCZvxAAAABklaQkdeig8HBJ8vNTWJgeftiamTZNRYtq507HakkqUUL9+hmDAAAAALKLY0M53R0h2YWGMgAAQO6SnKwuXbRhgyT5+mrTJtWta83ExOjVV2WxOFarQwetX6/Dh1WlilMcAAAAQHZJTNRff9mn991nH2c7rrwAAADIRVJT1bOnvvhCkry9tWGDHntMUlKSVqzQypVKSjJ8QO+8o0qVjEEAAAAA2Wj+fKcpDWUAAAD8B8xm9e+vFSskydNTX36pJk2sme7d9fnnjqWSVLy4xo2jmwwAAAC4HOvLUKwKF1ahQvZptqOhDAAAkCtYLHr2WS1ZIkn58ik0VMHB1szVq1q92qFSkhQcrC1bjEEAAAAAriAqyj5OTLSPXQF3KAMAAOR8FouGD087F+furhUr9NRTklasUKNGKlzYeG+ypLZtjREAAAAALsLxjXwrV9rHroAdygAAADmcxaJx4zR7tiSZTPrkE7VvL+nIET3zjKFUkjp3VkCA+vc3xgEAAAC4gitXdOmSffrAA/axK6ChDAAAkMNNnKi3304bL1qkrl3NZp08aXyPh1WLFml3LAMAAABwTWvW2Mdubrr3XvvUFdBQBgAAyMmmTtXrr6eN585Vnz5//qngYP3xh1OVlaenhg83BgEAAAC4FMetIRUqyNPTPnUF3KEMAACQY82erZdfThvPnKkhQ6z/e3M3uXJlrVqlI0cUFGRMAQAAAHApsbH2sclkH7sIdigDAADkTB98oBdfTBtPnmweNvyLUB05ovfec6qyevddhYQYgwAAAABcjdmsP/+0T996yz52ETSUAQAAcqCPP9bgwWnj117T2LEvvqA5c5xKrLy91bOnWrY0xgEAAAC4oNOnlZhonz75pH3sImgoAwAA5DQrVqhv37Tx6NF6443UVC1c6FRideCAataUG5ecAQAAADnEnj32sY+PSpe2T10EXy8AAABylC++UPfuMpsl6fnnNz85NbiZqWRJxccbC6tWpZsMAAAA5DBDh9rHlStzhzIAAAD+jY0b1bmzUlMlacCAs+Nmty5vSkkxVrVurfLlNXo03WQAAAAgh/HwsI+LFbOPXQcNZQAAgBwiPFzt2ik5WVJipx6nX5q/akk63eS6dbVunTEIAAAAwPUlJOj0afu0c2f72HXQUAYAAMgJtm9XSIj19Rw/VOz0+KrFqavS2X5sMmnECGMQAAAAQI7w55+yWOzT7t3tY9dBQxkAAMDl7dqlVq2s1yRfbNSm4Y6lqTc9xXl7a8EC1a6t6tUNGQAAAAA5w7Fj9nGJEipY0D51HcavIgAAAHAt+/ereXNduybpeLUWzU6sTJHDtWo3zJmjbt2MQQAAAAA5iGND+b777GOXQkMZAADAhf3yi4KCdPWqpAg1fepIaIK8DCX58qldO3XtaggDAAAAyGFyREM5nav3AAAA4BIOH1ZAgC5dkvStqWGI1iXI2zE/cqSuX9f161q5Ut5OGQAAAAA5T45oKLNDGQAAwCX98YeaNtX585L2utdvkbrhunwNJR070kcGAAAAcg8aygAAAPhHTp5UQIDOnJG0X7WCUjfFys+WbNlSvr7q1k3169s/AQAAACBHS03V8eP2KQ1lAAAAZM7p02raVH/9JekX1QhW2BUVsSUff1wbNthrAQAAAOQO336r5GT71GUbytyhDAAA4ErOnlVAgHVnwmFVC1T4RRW3JU0mDRtmrwUAAACQa8yaZR/7+qpUKfvUpbBDGQAAwGVcuKDAQB05IumYKgco4pzSniJ9ffX++6pbVw8+6PQJAAAAALnDhQv2cWKiTCb71KXQUAYAAHANly8rOFgHD0o6qQpNFRmtsrbk3Lnq2dNeCwAAACCXcXwj32uv2ceuhisvAAAAXEBMjJo314EDkk6rTIAi/tK9tmTHjurUyV4LAAAAIJeJj1d0tH369NP2sathhzIAAEB2i4tTq1bavVvSWZUMUMQxVbEl4+OVP7+9FgAAAEDuc/y407RyZaepS2GHMgAAQLaKj1dIiHbulHRRRQMVfkQP2JIdO9JNBgAAAHI/x/suSpeWr6996mpoKAMAAGSfxES1b6/ISElXVChIWw/qIVtyxAgtWGCvBQAAAJBbOTaU77vPPnZBXHkBAACQTZKT1bmzNm2SFKsCzbX5gGrbkqtXq317ey0AAACAXCwHNZTZoQwAAJAdUlIs3btr7VpJ1+XdSht+UANbsmpVtWhhrwUAAACQu92qobxpk7Ztcw5lJxrKAAAAd53ZrL59TatWSUqQV4jW7VBja6ZsWa1cqd275ePj9AkAAAAAuVhEhH3s1FCOjFTbtmrZUps3O0SzEw1lAACAu8tiSeo7WJ9+KilJHu20JkKBtuSHH6pTJxUubC8HAAAAkLsdParkZPvU3lD+7juFhCgxUQkJWrbMXpGtuEMZAADgLrJYzM8P8/x4gaQUuXfWyk1qac24u6tHDwUHO5UDAAAAyPWWL3eapjWU9+1TixaKi5Ok1q21eLFTUfZhhzIAAMDdYrFozBi39+dISpVbNy37Um2tmWefVWysPvpI+fjtfgAAACCP+fNPp2mJEtLBgwoOVkyMJAUFadUqeXg4FWUfGsoAAAB3Q2SkVvq/oWnTrNO+WrxKnW3Zbt3k7W2bAQAAAMhDHN/I99JL0u+/KzBQly5JUsOG+uIL5c9vr8huNJQBAAD+c9HRigia0vnwBOt0oD74RL2s49attXKl/vc/ezEAAACAPMWxoRxY5YQCAnT2rCTVq6cNG+Tra0+7AA5VAgAA/Ifi4xUXp9+HvjvJPM4aeUGzF2igdTx+vCakNZkBAAAA5EXXr+vMmbRxGZ1uMiFAp05JUs2a2rxZfn4OtS6BHcoAAAD/CbNZgwbJz0/jS8x7Yu0Ia/AlTZ2jF6zjQoXUo4e9HgAAAEAedPx42qCEzoUr0PPUcUmqVk1bt6poUYdCV8EOZQAAgP/E9u368EP10eJ5GmqNvK43pukld3f93//J21uBgSpf3vkzAAAAAPIY630XRXQpTMHVdViSKlVSRIRKlnQudBU0lAEAALLShQsKC1NMjKZP1zNavlD9rfEpenmCXpO0eLF69nT6CAAAAIA869gxFVTMJrV4RD9JUrlyiohQ2bLGOpdBQxkAACDLXL6s2rUVFSVJ7RT6iXq6ySJploaN02TJFBKijh0NHwIAAACQd/11+PpXeqq+dku6mr9UoYgIVapkLHIl3KEMAACQZb78Mq2b/JTWr1CXfEqVNE+Djz/37t9/m65e1dq18vY2fAgAAABAXpWQ0Grh0421Q9JFFf2sX7juv99Y42LYoQwAAPBvpaRo+nR9/bW2bJGkIIWtVgcPpUj6SL2f1fu7e5lKlTJ8CAAAAEDelpyc2KZTkGWrpKvyC1bYyMdqGGtcDw1lAACAf2vmTI0dmzZuoq+/1NNeSpK0tcQzoXUWrujjVreuYzkAAACAPC81VT16eIWtlxQnn5bauF91HnjAWOWCaCgDAAD8c4mJio/XsmVp0//pu6/0lI/iJZ2o0y7o+4+DPNwd6wEAAABAZrP699fKlZIS5BWidd/pcUm1ahkLXRB3KAMAAPwTZrMGDVKBAipSRD//LEl1tHeTWhRQnKRwr1Z+X30mDw/DpwAAAADkdRaLnn9eS5ZISnHzaK/QSAVI6t1bJpOh1BXRUAYAAPgnIiP14YdKSUmb1tRPYQoupBhJ0f6BNX9fXbS0p2M9AAAAAMhi0ZgxmjtXktzc3rx/+Ua1smZq5ID7kyWuvAAAALgjFy8qIkKxsZoyxR6srt+2KqioLktKbdi4zJa18slvTwMAAACA1YQJmjZNkkwmLVmyaEwHW6ZKFdvQpdFQBgAAyKwLF1Srlk6dcgpW0dEIBZTUeUlnKzcotfEr+fg4VQAAAACApOnT9cYbaeN58+La9TjT057MKQ1lrrwAAADIrNBQYze5ov6MVNN79Lckc+06pfZtUsGCThUAAAAAIGnuXI0enTaeOVODBh065JSvXNlp6rLYoQwAAHAbJ05o8mRFRWnzZqd4OUVFKKC8TknSQw+5hW1R4cJOFQAAAAAgackSPfts2vittzR8uKSBA+35smXl7W2fujIaygAAALdisahFCx0+bIyX1plv8wdUSPhTkh54QOHhKlbMWAQAAAAAK1eqX7+08dixeuUV69D2im9JJUvaxy6OKy8AAAAyZLHo55/T6SYX1/lDZQMrJByVpPvuU0RETnoABAAAAHDXrFun7t1lNkvSCy9o0iRrOC5Ov/xir2rY0D52cTSUAQAA0rdunUqX1iOPGONFdOlrj6DCp3+TpHvvVWSkypQxFgEAAABAWJg6dkzbity/v2bNkslkzSxY4FinUaOcpq6MhjIAAEA6UlM1cKDOnTPGZ0+4erhi8weTf5KksmUVGakKFYxFAAAAALB9u55+WklJktS1q+bPt3WTJe3fbxtKUtmyTlNXxh3KAAAATiwW/fCDNm/W2bPG1LB+117Y3FIn9khSqVKKiMgxb2IGAAAAcDft3q1WrRQfL0lt2+rjj+Xubkuazfr0U9tMtWs7Jl0dDWUAAAAnb76pN980BiXVrHJ9yq+ttes7SSpWTOHhqlbNWAQAAAAAP/2kZs107ZokNW+uzz5TPqc27J49jjONGeM0dXFceQEAAGBnNmvmTGOwSBFFHU34sXJb711fS1Lhwtq6VTVqGMoAAAAAQIcOKShIV65I0hNPaM0aeXkZShYudJo+8YTT1MXRUAYAAJCk3bvVu7dq11ZsrDE1uG9SuRGdTGFhklSwoLZsUa1axiIAAAAAOHZMgYE6f16SGjTQunXy9jaU/P23U0M5f36VLGmfuj6uvAAAANDFi3rySV2/bozXq6cmj6dMPN5N69dLko+PNm7Uo48a6wAAAAAgKkoBAYqOlqRatbRpkwoWNNZI1p0qNoMHO01dHw1lAACQ16WkaPPmdLrJtWpp9/ep6tVbX6yWpPz5tX69GjY01gEAAADA338rIEAnT0qSv7/CwlS4sLFGmj9fQ4Y4RXr1cpq6PhrKAAAg77p6Vd26afNmpaYaU5IGDTBr0CAtWyZJnp764gs1bWosAgAAAIALFxQUpKNHJalKFYWHq3hxY4106ZKGDXOKBAfrkUecIq6PhjIAAMi75s3Thg3GoKSpU1WvruXJ0Oe1aJEk5cunVavUvLmxDgAAAACuXFGzZjp4UJIqVFBEhO65x1gjWSz64AMlJTkFu3RxmuYINJQBAEBelJKiHTs0dqwxLmnuXA0ZbNGoUZo7V5Lc3LR8udq0MdYBAAAAwLVratlS+/dL0j33KDJSFSoYayRJr7+uiROdIs2aqXNnp0iO4GYMAAAA5AGdOqV/fUXDhurWTRo/XjNnSpLJpI8/VseOxjoAAAAAiI9XSIi+/16SihdXeLjuu89YI0kym/Xuu06RRo20ebN8fJyCOQINZQAAkOf88Ye++MIYXLBAp09rxw75/d9bmjQpLfrhh+re3akOAAAAACQlJalDB23bJkmFC2vrVvn7G2skSYcPq1UrXf7KydkAACAASURBVLvmFMyJl11Y0VAGAAB5SGqqZs9WjRrGeMGC6tJFZcpI06dr/Pi06Jw56t/fqQ4AAAAAJKWkqGtXbdwoSQUKaPPmjF6ul5SkJ5/U5s1OwQkTNGiQUyQHoaEMAADykHfe0YsvKjHRKdismTZsUIEC0nvvafTotOj06XruOac6AAAAAJBkNqtPH4WGSpK3t776SvXrG2tu2LNHf//tFKlZU+PHy93dKZiD0FAGAAB5hcWSzk0XvXtr82Y1aiQtXKjnn0+LTpyokSOd6gAAAABAksWiIUO0dKkkeXrqiy/UpImxRpJkNmvYMDVsaIzn3L3JVjSUAQBAnjBhgooU0Z49TsF8+dS7tyRp6VINHJgWfeUVvfqqrQYAAAAA0lgsGjFCH34oSe7uWrVKzZoZa27Yvl3/93/GYGSkhg41BnMWGsoAACD3+/lnvf66rl51Cvbtqx9+UJMm0uefq1cvWSySNGKEJk50qgMAAAAAq/HjNWuWJJlM+vRTtWljLLjhwAENG2YMjhunJ580BnOcfMYAAABA7nL4cDrXV/j5ad48eXpKa9eqa1eZzZI0dKimT5fJZKwGAAAAgMmTNWlS2njhQj3zjFPWwcyZ6XwHeeihXPKWFnYoAwCA3GzRIlWvrvBwp6C7u6ZNk6entHmzOnVSSook9eunOXPoJgMAAABIx6xZeuWVtPF776lvX6ess2nTjJGhQ/XTT7rnHmM8J6KhDAAAcrOpU42RkBBdvqyBA6XISLVtq6QkSerWTR98IDcejQAAAADcZMECDR+eNp46Vc8+65R1cPKkunfX338b47165Z69K1x5AQAAcqczZzR5so4eNcaHDlXBgtLOnWrdWgkJktShg5Yskbu7sRQAAAAAli7VoEFp49de00svOWUdmM0KCjJ+B6lfX4MH69FHnYI5Gg1lAACQC1ksatFCP/3kFKxWTUOGKDhY2r1bLVvq+nVJat1ay5YpHw9FAAAAAG6yZo169057g/fIkXrjDUPexmLRb78Zu8lVqmjXLqdILsB3JwAAkAudOGHsJpcqpcOHJUkHDqhZM8XGSlKzZvr8c3l6OpUCAAAAgKSNG9Wli1JTJWnIEE2bltG9FRs3asgQ/fWXMT5ggDGSC3BRIAAAyFXCw1WliipXNsb79ZMkHTyooCBduSJJTzyhNWvk5eVUBwAAAACStm1T+/ZKTpakXr303nsZdZNTUtS3bzrd5A0bNHq0MZgLsEMZAADkHmaz+vTRqVPG+OrVatdO+v13BQbq4kVJeuwxrV8vHx9jKQAAAAB89539nSsdO2rhwoze4H3unJYu1dmzxvizz6plS2Mwd6ChDAAAconkZIWGptNN7tNH7dtLx4+radO0B726dbVxowoUMJYCAAAAwP79atFCcXGS9NRTWro0o3euHDyohg119aoxXrmyRowwBnON9P9eAAAA5CwWi1q31pYtxniZMho9WvrrLzVtqtOnJenhh7VliwoVMpYCAAAAwMGDCg5WTIwkBQbe+p0r8+cbu8k+Pvr5Z1WqlNGG5tyAhjIAAMgN9u83dpNNJv36q6pWVb5z0WoSoJMnJcnfX1u3qmhRp1IAAAAAkPMteQ0b6ssvlT+/sUZKSNCMGfr5Z61aZUwNGaL77jMGcxkaygAAIGdLTdX772vYMGP8+edVvbp07pwCAvTHH5JUtarCw1WihLEUAAAAAE6cUEBA2i159eppwwb5+hprJEkvvKAFC4xBSUOG6M03jcHch4YyAADI2V5/XZMmGYP9+mniROniRQUG6vBhSapYURERuuceYykAAAAAnD6tgIC0V7LUrKnNm+XnZ6y5Yc0aY0TSjz/q4YeNwVwp917mAQAA8obQUGNk2DAtXCg/8xU1a6ZffpGkcuUUGany5Y2lAAAAAHDunAIDdfy4JFWrlu4teQkJ6tVLBQrIZEq7EsNR7dqqWdMYzK3YoQwAAHKk6Gj16qXt25WU5BT38FC3blJsrFq00L59klS6tCIjVamSUx0AAAAASLp0ScHBaecaK1VSRIRKljTWSJ9+qk8+MQYlvfyy7r1XXbrIZDKmcisaygAAIEd67TWFhxuDzz6rPn1Up/p1tXhKu3ZJUvHiiohQ1arGUgAAAACIiVGLFvrpJ0kqV04RESpb1jGfkqLdu3X2rF56yTGcpmZNTZliDOZ6NJQBAEAOc/689u7VokXGeOnSmjNHpsQEtW6j7dslqUgRhYfL399YCgAAAADXr+upp7R7tySVLKnwcMO5RotFHTpo7VrHmJ23d17sJouGMgAAyFl271ZAgK5dM8bd3TV1qkzJSerQIW3rsp+fwsLyynsxAAAAANyRxES1basdOySpaFGFh6taNUPJb7+l302eMEFt2+q+++TtbUzlBa71Ur5Nmzb17t27Ro0ahQoVypcvn4+PT4UKFZo3bz579uyYmBhjdcZ69+5tup1rN38TBQAALm/27HS6yevX68IF9eyaomee0YYNkuTrq02bVLeusRQAAAAAkpPVqZPCwiTJz09btuihh2zJpCRNn64ePVSrli1mly+fBg1SjRp5tJss19mhHBMT07FjxzDrP8Ub4uPjo6KioqKitmzZMmnSpDVr1jRs2NCxAAAA5BGxsZo1S3/8oeXLjamqVdWqlUzmVPXoqTVrJCl/fn31lR57zFgKAAAAAKmp6tFD69ZJko+PNm407EQZOVLvvecYSFO1qkqU0Jgx6b60Lw9xlR3Kw4cPN3STDc6fP9+2bdsrV64YEwAAIA/o2lWvvZbOW5UDArR6tUwWs/r312efSZKnp9au1RNPGCqBXIkTfgAAAHfGbNaAAVq5UpK8vLRunR5/3FASGmoISNKgQfr9d337rUJCjKm8xiV2KCclJS1btsw2LVSo0LvvvtugQYNz58699tpr260v1ZEuXLjw1Vdfde/e3VaZGTt27ChXrpwxKvn6+hpDAADAJV2/nnaPhcGpUypbVrJYNPRZLVkiSfnyafVqBQcbKoHchxN+AAAAd8xi0Qsv6KOPJMnDQ6GhCgiwZg4dUu/e+vlnJSQ4fiCNu7vusCWZm7lEQ/nSpUuJiYm26ciRI/v06SOpevXqS5curVChgi11+vRp2ziTypUrV7FiRWMUAADkBLNmaeZMRUUZ45KaNr3RTR4+XPPnS5K7u1asUOvWxlIgN8rkCb+jR48WLlzYmAMAAMiDLBaNGaP335ckNzctX65WrWzJ557T7t22md2wYSpSRC1a6NFHjak8yyUayiVLlvTx8bl+/bp1mj9/flvKcSzp3nvvdZxmRps2bU6ePHn9+vXChQv7+/s3b9584MCBRYsWNdYBAAAXc+iQhg83BiWNHq0KFdS7t2SxaNw4zZ4tSSaTPvlE7dsbioFciRN+AAAAd2zCBE2bJkkmk5YsUYcOKSnau1cXLshiUWSksVxS1aqaNcsYhEs0lN3c3IYMGTJjxgzrdPbs2fXr169Xr9758+dHjRplKytbtmzrO99z9PPPP1sH58+f/+abb7755psZM2YsW7YsmMOwAAC4qtRU/fijpkwxxiUFB+udd25MJkzU22+njRctUteuNxJALscJPwAAgDszfbreeCNtPG+eevQwm9WihcLDHYuceHik/5UELtFQljR58uTY2NgFCxZYLJbTp083adLEUFC1atU1a9ZkybaICxcutGnTZufOnXXq1DHmAABAdrNY9PTT+uorY1xSgQIaP/7G5J139PrraeO5c9Wnz40EkPtxwg8AAOAOzJ2r0aPTxjNnatAgSbt2ZdhN3r1bbm6qWlV+fsYU5DoNZU9Pz3nz5j300EPDhw9PSUkxZDt16rRo0aICBQoY4rdQrVq1du3aNWrUqFKlSrGxsXv37p04ceKZM2es2YSEhBEjRnzzzTfOH0qTmJho2/FhfTt2cnJycnKyU1FuZP015oVfKf4N1gkyg3WCzMhonezfr6++8jAEGzY0T5tmfuABi6+vkpPl9t577mPGWFOp06aZ+/fXTT8HuUBGi+SfsVgsWfWjsh0n/AAAADJryRI9+6x1eHrwxHdODI/pkxZOV3Cw6tUzBuHIVRrKJ06caNu27Y8//mhMSJJWrVoVGRm5dOnSZs2aGXPpmTRpUtmyZR0j9erVCwkJeeihhy5fvmyNbN++PTo6ukyZMo5lVlOmTHnzzTcdI2FhYT4+Po6RXGzr1q3GEHAT1gkyg3WCzHBcJz/+WGL37tKbN1e0p29o3HjP2bN/nz0rSfdu2fLIvHnW+G/dux+tWlUbNzoWI5fJqv+YWCyWuLg4YzTHcqkTfnl2Q0aelbW/2YNciUWC22KR4NayaoWYVq1y79fPJEm6PGj0fYvHJSYZStJUrGiR9OCDltmzU//1nzaXyGhDhik0NNTPz69gwYI+Pj6+vr758+fPnz+/p6enu7u79Y/GT/wHUlNTa9as+dtvv1mnFSpUmDJlyiOPPHLx4sXZs2eHhoZa4+7u7vv27Xv44Yftn7xDI0eOnDlzpm26YcOGli1bOuTTGB6Iy5cvf+HCBb88sMc9OTl569atQUFBHh7GfWGADesEmcE6QWYY1sk335iCgtL5re7777d06WIeN87s5iZJpk8+cR8wwGSxSEodN85suwcNuVHW/sfEYrFcuXKlVKlS58+f9/X1TU1NTUlJSUlJSU5OTkpKsj4Bhgyfbk5NyffXLknHjh0z/ggXYzab586dmyUn/Hr37r1r165bnPCT1Lhx44xO+L3xxhuGDRnLly/POxsyAACAayq1e/ejU6e6paZKOvbUU1NLv7VgYfp9xXbtjvbsmdaZhI11Q0b37t0Nz8/pfG27+zZv3mzrJktaunRpo0aNrOPHHnvswQcfPHLkiKTU1NSpU6cuX77cVnmnKleu7Di9cuWK49TGy8vLy8vLMeLh4ZElX2NyhDz1i8U/xjpBZrBOkBm2dfLFF8aUpOHDNXOmSXKX3CVp5UoNHCiLRZJGj3Z/6y13k3W3AXKzrPqPicViyZKf4yJc6oTf2LFjR4wYYR1bN2QEBwfnhQ0ZeVbW/mYPciUWCW6LRYJb+/crxBQe7j59uik1VVJokb59tn0YG5f+xlkPD8uYMRVr1apoTOR51g0ZxqiLXHlx+PBhx2nt2rVtY3d394ceesjaUJZ08OBBW+ofOH78uOOUV4sAAOAKNm7USy/p11+NcXd3de7sMP/iC3XrJrNZkp5/XlOnim4y8qrU1NRWrVrd+oTfhQsXWrVqlckTfoZusi3Yp08fxxN+P/74Y7oN5Ty+ISPP4p8ybotFgttikeDW/vkK2bFD7dsrKUnSFz5dO13+0GzdoeLA+uIJb2+FhJjq1v1Hf5bcLqMNGS7RUDb8lR04cKBhw4bWcWpq6i+//GJL2a7gOHHiRKVKlWzxbdu2PfHEE9bxli1bvvnmmzFjxhQqVMhWICk6Ovqjjz6yTU0mk2PnGgAAZIv4eHXtqqtXnYKlSqlvX4WEqH79G6GNG9W5s1JTJWnAAM2eTTcZeZmrnfADAABwIbt3q1UrxcdL+rNW204HltzcTV61Sh07GmLILDdjIDvUc351Yo8ePVasWHHo0KGdO3c+88wztu3JuqkyXfHx8VOmTClXrtyAAQPWrFnz66+/7tu3b/78+fXq1bOd15PUsmXLkiVLOnwOAADcbdeu5Zs3z83QTZYUHq7Jk9WggcO8XTtZXwfRo4fmz6ebjDzutif8bFNO+AEAgLzlp5/UrJliYyVtUvMHDnyWIuMe28cfV+vWhhjugEvsUG7QoEHjxo23b99unZ44ceKZZ55xLpEkT0/PF1980RjNwLVr1xYuXLhw4UJjQpJUrFixWbNmGaMAAOAu2rfPNHBg8PXrxs0CXbuqRg2H+fbtCgmR9X25nTpp8WJZX88H5GGc8AMAAEjHoUMKCtKVK5K26Yl2WpMkp1u5vv9efn564AG+UvwrLvE3z2QyrV69+rHHHjMmHBQpUiQ0NNTf39+YuImvr6/bLReFv79/ZGRklSpVjAkAAHAXzZrldv26U1PMx0e//66lSx1Cu3bZTqupTRstXap8LvHb4UD24oQfAACA0bFjCgzU+fOSvleDEK1LkLdj/vnn1aCB/P3pJv9brvKVrESJEjt37ly/fv3q1av3798fFRUVFxfn6elZrFgxf3//Zs2a9e7dO5Mn7IKCgqKiotatW7d9+/aDBw9GRUXFxsZ6eXmVKlWqTp067dq169ChQ7r3SQMAgLvj2DF99JFWrjQ+x738sqpWdZjv36/mzXXtmiQ1b66VK8X/gwOSOOEHAABgEBWlgABFR0var1ottOmaCtqSFSqoYUO9+aa9HP+GqzSUJZlMppCQkJCQEGMiPRUrVrRYLMboDWXKlBk8ePDgwYONCQAAkN3i4vS//1n3DTjp108jRjjMf/lFQUFpb+tr2lRr1sjL6bQakJdZT/g9/fTT3333nTF3Q5EiRT755JPMn/Azm83GxA3+/v6fffYZJ/wAAICL+vtvBQTo5ElJv8o/WGFXVdiWjIpSuXL2Wvx7LtRQBgAAecG2bel0k0+dUtmyDvPDhxUYqEuXJKlhQ61bJ2+n02oAOOEHAAAgSRcvKihIR49KOqoqgQq/qOK2ZJMmdJOzHg1lAABwl6Smavx4TZlijDdu7NxNPnZMAQE6d06SHn1UGzbI19chDSANJ/wAAEBed/WqmjXTwYOSTqpCgCL+1j225PTpGjDAXousYry7EAAA4D+ybl063eQpU1LXrXOYnzyppk2td5+pVi1t3iw/P4c0AAAAAEiSrl1Ty5bat09StO4JUESUKtiSkyZp5Ei+TPwnaCgDAIC74eRJTZpkDPbufXDkSHOhQjfmp0+raVP99Zck1aihsDAVKWKvBgAAAACr+Hi1aaPvvpN0XsUDFX5M9vc9VKmiPn3stchaNJQBAMB/bvJkVaxo3TpgV6WK5Yknouzzs2cVEKDjxyWpWjWFh6u4/e4zAAAAAEiTlKQOHRQZKemyCgcr7JDSXkRcooT27NGvv+oe+9UXyGI0lAEAwH8rPl5vvWUMDhqkAwdSChdOSptfuKDAQB05IkmVKysiQqVKOZQDAAAAgCQpJUVdu2rjRkmxKtBcm39ULVty7FjVrStPT3s5shwNZQAA8B8KC9PTTys+3hgfPlxeXjcmly8rONj6Jg1VqKDISOeX9AEAAACAJMlsVp8+Cg2VdF3eT+mr3apvSw4cqCFD7LX4j+QzBgAAALLIV1+pdWtjsGpVDR+uatWUnCxJiolRq1Y6cECS7rlHERG6916nDwAAAACAJItFQ4Zo6VJJifJsqy+2q4kteeGCihWz1+K/Q0MZAAD8Vz77zBhp1Ejbt9un7gkJ7m3a6IcfJKlkSUVGqor9TRoAAAAAkMZiSRk2It+HH0pKkXsnrQpTM1syOJhu8t3DlRcAACDrrV2rWrW0fLkx3qWLwyQ+vv6kSW7ffitJRYsqPFwPPOCQBgAAAIAbxo/PN2eWJLNMPfTpOrWxZd55R6tX2wvxX2OHMgAAyGJXrqhLFyUkOAUrV9akSerc+cY8MdG9c+cSv/wiSYUKKSxMDz1krwYAAAAASVJCgs6PmFJ+3iTrtL8WrtAztuysWRo2zDbD3UBDGQAAZKXUVC1ebOwmS9q2TRUq3JgkJ6tLF7fNmyVZChQwbd6sOnUcagEAAABAko4f18e1Z795dZx1+pzmfKS+tmy1aurWzTbDXUJDGQAAZJn4eDVtql27jPEBAxy6ySkp6t5dX34pKcXTU2vX5mvQwKEWAAAAANLsHbzwzasvWsdj9Pb7es46fvlltWmjWrXk5WUvxt1BQxkAAGSZ9euN3eQiRbRzp6pXvzE3m9W3r1atkmTx8to9bly9Ro0cygEAAABAqakKD69wde6K7lsHWiMTNP4djbGOvbw0erSKFrXX426ioQwAALJGdLSesV9llub11+Xvf2NisWjwYH36qSR5eKSuWnXeYrGXAgAAAIAk6aWX3E69d+Jd9XGTRdJ0jXxdb0oqXFilS+vNN+kmZycaygAAIAskJenxx2U2OwX79dPAtP0EksWiYcO0YIEkubtr5UpLixbauNFeDQAAAACSpHMfb1mpzvmUKmmuhozWNMm0Z4/q1jVW4u5zMwYAAADu3Lff6sQJp8j772vhQnl7S5IsFo0ZozlzJMnNTUuXqm1bp2oAAAAAeZ7FokmT1L7oto9i2nsqWdIS9XpO70mmqlVVq5axHtmCHcoAAODf2rVLTZs6Rby91bq1w/yNNzRtWtp48WJ16eKQAwAAAABJ2rRJG179LkytvZUgaZU69tfCHj3d7r1XgwfL3d1Yj2xBQxkAAPwrqanq0MEY/PZblS9/YzJliiZMSBvPn69evW4kAAAAACDNuXP68rX9m9SigOIkrddT3bX0/ur5Pv7YWInsxZUXAADgX/n9d50+7RQZP97hMNqsWRo3zj4eNOhGAgAAAADSvP++mpY6OHlfcCHFSNqqwI76PNXNY/x4YyWyHQ1lAADwz/39t/z9nSJly6p//xuTefM0fHjaeOpUDRt2IwEAAAAAaVJStOjlo+EKLK6Lknao4dP6slaDS3/8kfLMM8ZiZDsaygAA4J9btMgYOXxYFSpIkhYv1tChadE33tBLL9mLAAAAAECSZLFo/tiTX14LKK2zkvaobittuC7fLl2OlCtnLIYr4A5lAADwDyUm6tVXnSIvvqgCBSRJy5fbNyq//LJee81eBAAAAAA3vDs6us2MphUUJelnPdRMWwqV83vludSKFWOMpXANNJQBAMA/1LOnMZLWXw4NVc+eslgkadgwTZ4sk8mpDgAAAAAknT8f8n+B9+m4pMOqFqStlesU3btXycnmjRuNtXARXHkBAAD+ibg4rV7tFAkLU7Fi0ldfqUsXpaZK0uDBevdduskAAAAAbvbrt5ePVgqqknxI0nFVClT4OZXq0MFYBlfDDmUAAHDHLBb16yez2R7x81OjRlJYmNq3V0qKJPXurfffp5sMAAAA4GaWmNiUwBYPJvwk6ZTKBijitMpNm6YRI4yVcDU0lAEAwB1bv14rVzpF9u1T/h++0dNPKylJkrp00cKFcuMsFAAAAICbXL9+7YmnHk74QdJZlQxQxAlVuucejRplLIQL4mseAAC4Y2vXOk2Dg1Xl3Hdq1Urx8ZLUtq0++UTu7k5FAAAAACApMfHX+9sWPLBd0kUVDVT476om2xtZ4PLYoQwAAO7M8uVavNgpMiFkr1q0UFycJLVqpRUr5OHhVAEAAAAAkpKTY1t0evB0mKSr8mumLQf1kKSjR1WlirEWrokdygAA4M6MGeM0XfDcT/XHBysmRpICA7V6tTw9nSoAAAAAQLKkpJ4O6FFw2zpJcfJpqY37VFdS//50k3MSGsoAAOAO7NqlU6fs0+r6rffyIF2+LEmNG2vtWuXPb08DAAAAgJXZfKjhgLI7VkpKkFeI1n2nxyUFBmrCBGMtXBkNZeD/2bvP6KqqrY3jz0kgxNA7AUFBpQkiSBcBSUgiofcioCDVSrsgAoIiIIIUX6RIb9J7TRNBREQU6YhIbwGE0ELqfj+ccJK9KQkSIMn5/8b9sNZc82Rcxt13ZJ6ZtdYGACTVyZOqUiV++rwO/5rZK92/FySpcmWtWSMPj/hlAAAAALAzDH3wQcntMyRFKV0TLQ2Rl6Ru3RQYKE9PazpSMhrKAAAgqZYtix8/q6ObXWtlunZOksqV0/r1ypw5fhkAAAAA7Azj3y79NGGCpBi5tNb8dfK3rzRqZEpEqkBDGQAAJMmKFfroo7hxAZ0KlpdnzClJKl1aAQHKli1BLgAAAADc9vnnOb4baR++rRlL1EySl5dWrVLt2qZEpArprAEAAIA7nD2rpk3jxvl0NkS1iuioJBUvrqAg5cyZIBcAAAAA4sSOGu3y6af2cVdNnKN2kjJl0saNcnU1ZSK1YIcyAABIhGFo9mzFxEhSLl0IkndRHZak555TcLDy5DGnAwAAAIAkXRs50aVPb/u4h76erK72cb9+dJNTMXYoAwCA+7l2Tb6+2rZNkrLr3wD5vKj9koxCz9hCQpQ/vyUfAAAAACRp1qzMfbvbhwP0+Vj1sI9371bp0vFZSHXYoQwAAO5nwYK4bnIWhW2QX1ntkmTkL2D7IUSFClmSAQAAAMAwtLPvwti3O9inw9XvC31iHzdqRDc51aOhDAAA7mnrVnXuLEkZdX2d6lTUDkk3s+S1hQSrSBFLMgAAAABIWt5h9Usj33QxYiWN0wf9NUyySapcWV99ZU1GqsOVFwAA4O5WrVKDBpL0lG6uVr1X9bOkaxlyuoUEqVgxSzIAAAAASFJgYN1ZTdMrWtJUdeyhMfZu8oYN8vW15iI1YocyAAC4uxkzJMlNEcvV6HVtkhTpkS3ztsAMr5QyJwIAAACAduxQr0pbwn0buBmRkuapdRdNNuQiKUcOVatmzUcqxQ5lAABgEh2tQYO0fr127VJ6RS5WM18FSLqqzLHLN7qVLWv9AAAAAACnFxWlQX6/LvzX/ymFS1quhm9pZqxca9ZUyZJ6911lzGj9CFIpGsoAAMBk0iQNHy5Jroqepzb1tVrSTZvH2e/WFfOpaEkGAAAA4OTCwnTunI6u3D3vX78suiZpvfxaakG00ufKpZAQ2WzWjyBV48oLAAAQxzB07JgmTJAkF8XM1FvNtERSuNwjFq8u1pEjagAAAABMhg5V9uxqUPxgub7eOXRZ0ibVaKKlkcogqW9fuslpEDuUAQCAJF24IB8f7dolSTbFTlaXNzVPUoTcJvsu/6hJLUs+AAAAACd38aIGD9azxj/B8sqjC5K2qXI9rQ6Xx4IFKlFCL71k/QjSABrKAABAkqZOjesmS8Z4ffCOpkmKcUl3dNiiD/r4mVIBAAAAOLdjx7RqlVavlmfMyWB5FdAZSb+r7Btaf12Z//c/tWhh/QjSDBrKAAA4u0OHtHat+ve3M06ZQwAAIABJREFUz4xR6v2eJkiKkUv41PnF325gygYAAADg3E6fVrlyunxZeXR+s7wL65ikfSrpo4Drrtlq11KfPtaPIC2hoQwAgFM7eFCvvKKbN+Omn2tgL30tKVa2nzrNqvF2s4TJAAAAALBsmS5fVg5dCpJ3Mf0l6bCe/9I76PyGXDabXHhlW1pHQxkAAKe2YEF8N/kTDR2gL+xj25QpNTq96UgDAAAA4OT27NGAATpxQrt2KYvCNsq3tPZKOq5CXgoe0trT1dX6EaRJNJQBAHBSU6dq5kxt3Ro37anRQzXQPo4c/Y1bp3ccmQAAAACcXEyM6tbViROSlFHX16lOee2UdEaeo/yCBzUp9NZb5g8g7aKhDACAM9q6VZ06xU+7a8Jo9baPz/X6Kl/P9+LXAAAAADi9gwfjusnuCl+pBq/qZ0kXlGvvmKBvPnrekoy0jUtNAABwOqGhmjQpftpRUyfodgf588/zjYrrLAMAAACApMBAlSolSekVuURNvRQi6bKydS0c8FqXkpZkpHk0lAEAcCLR0WrcWHnzau7cuEgbzZ2izvZxbL/+GjDAkQwAAAAAknr3liRXRc9Xa3+tkxTlnmnfV+tn7S771FOWXKR9XHkBAIAT2bhRy5fHT5tq8Sy1d5EhKeqDnumHDY1fAwAAAOD0jh7VihXavVs2xU5Xh6ZaKinS1d1tw5pqNSpbs+EcaCgDAOAUduzQjz9q8OD4SD2tmq/WroqVpO7d048dJZstfhkAAACAc/vnH5Utq6tXJRnfqns7zZEUZUt/bdbynDVqWLPhNGgoAwCQ9q1Zo/r1ZRjxEV9tWKxm6RUtyejQ0fbNN3STAQAAACS0cGFcN3m0enXVZEnRck2/bFHOhn7WVDgT7lAGACDtmzbN1E1+XSHL1SiDIiWpTRvblMlyoSQAAAAAEOfIEbVsqf79JekzDeqpMZJiZfvutTlq2NCSDGfDDmUAANKyoCCNGqWNG+Mjr+qn1ar3lG5JUtOmmjlTrq7xywAAAACcm2GoUSPt2SNJ/TR8oOJetbK8ztR2i1olzIRzoqEMAECadfGi/P0VGRkfqaBf16lORt2UpHr1NG+e0lEMAAAAAIi3d29cN/kDjRuu/vbgvq7fNJnYIWEanBbnWwEASJvOn9fcuaZuchnt2ijfLLomST4+WrRIbm7xywAAAACcW2ioKlbUSy9JUkdNHaeP7PEx+Ua8MO69hJlwZmxKAgAgrbFvTP71V1OwpPYFyTu7rkhSzZpavlzu7qYMAAAAAM5t4kTt2CFJrTVvijrbg4eaD+w0rS97UeBAQxkAgLTmu++s3eQX9FewvHLpkiRVrarVq+XhYcoAAAAA4MTCw7VqlQYPlqSGWj5L7V1kSFpfoucbC4bIZs6Gc6OhDABA2hEerpUr497F7FBY/4SoVj6dl6Ty5bVunTJlMmUAAAAAcG716ysoSJL8tH6hWqRTjKRFObuWXz1KNtrJMKGhDABA2tGwoQICTJGCOhEsr6d1WpLKlNHGjcqa1ZQBAAAAwLkdPhzXTa6hTcvU2E1Rkk55tWseMEEudJNhxUv5AABII44csXaTPXVmv6dXYR2TpJIlFRioHDlMGQAAAACc1Y0b6tVL1auraFFJqqxta1T3Kd2StNKtWa4V0+RC5xB3wWMBAECqd+iQWrbU88+bgrkVusnFK9PZvyXphRcUFKTcuU0ZAAAAAJzY//6nr7/Wli2SVFa/r9cbmXRD0q4C/kV+nuueiYsNcHc8GQAApG6xsapbV3//bQrm0KWd2bwLXjkoSc8+q+BgeXqaMgAAAAA4JcNQaKgMQzNnxkVKal+AfLIpTNK+/N4v/71E7m4JPgGYsEMZAIBULCpKW7dau8lZdeW3nL4Fr+yRpKefVkiIChY0ZQAAAABwSr//rkKFlC+fPD1186YkPa/DQfLOpUuSttqq3Zi7Qu7ulk8BCdFQBgAgtVq4UNmzq3p1UzCTrm2w1Sl8aack5cunkBAVLmzKAAAAAOCs+vXTqVPx00I6HiwvT52TdPHZ8p6/r634esb4ZeBuuPICAIBUKSZG77+vGzdMwad083CxuvkObZOkXLkUHKwXXjBlAAAAAHA+27bpjz9kGAoMjA966kyIahXSSUkqXTrXpo25cmSJXwbugYYyAACpz19/acYMXbhgCmbQrd+ebpjv0GZJyp5dQUEqWdKUAQAAAMD5TJyo7t2twVy6ECTv5/SPpOtPF8sUGKgcOaxJwN3QUAYAIJXZuVPVqunWLVMwvSIDszYteSpQkrJk0caNKlPGlAEAAADAKX3zjTWSTZcDVbukDkgyChfOtDlIefNak4B74A5lAABSmenTrd3kIoWib9Rv9VrYWknKmFHr16tCBVMGAAAAACcTEaEBA1Szpg4cMMUz6dp6vfGy/pSkAgVswcF6+mlTBnBf7FAGACDV+PNPDRumRYtMQRfFLMvULv2qZZLk7q41a1S1qikDAAAAgPMZOFBffWUNvlLi5rQzdcuEbZekPHkUHMxLvPGgaCgDAJA6RETIx0ehoaagTbG/vfxOmV3fS5Kbm1auVM2apgwAAAAAzicsTHPnWoP5skfsKNjIduD2a1cCA1WsmDUJSAxXXgAAkAoYhoKDrd1kybjQ7N2yu2ZKUrp0WrJEPj6WDAAAAABO5cQJlSunbNl09qwpnk5RIXla2AICJClzZm3cqJdeMmUASUNDGQCAlO7wYZUsKX9/S9hY/HTPnIsnSZKrqxYsUL16lgwAAAAAzmbECP3xhzX48f9iTr3ersShlZLk4aF163jtCv4zrrwAACCl+/xzHTxoiRmHGvcvumysJNlsmj1bTZpYMgAAAAA4D8PQpk06fFgTJ1qXPPPGfnGhs+2HBZKUIYNWrVK1atYkIMloKAMAkHLZi8I5c6zxoOqfF102Im4ydapatzYtAwAAAHAyffve5RV8krJkNraU+9A2Y7okpUunpUvl5WVNAh4EV14AAJByDRmiWrWswf8rNNJr86dxkwkT1KGDaRkAAACAk4mO1v/9nzUo6YcQ43KXfs+t/z9JcnHR/Pl3XqUHPCgaygAApFCGofHjrcFz/ce/e6Jv3OTrr9W9u2kZAAAAgDO5ckU9e6pECYWHW5eefVbVN3/uMmpk3HzGDDVrZsoA/hOuvAAAICWKiNAHH+jyZVNwSIEpeYd9GDcZNkw9epiWAQAAADiZd97R0qXWYNWqKlRIYwuOdhl8+2jjxIlq186UBPxXNJQBAEiJBgzQlCmmyOSqszpt6xo3GThQH39sWgYAAADgZGJi7tJNrlBBW7dKEyeqe++40OjR6nr7qwTw0LjyAgCAFCc2VnPnmiK9nl7Y+ZcONsOQpD59NGSIaRkAAACAk5k3T+nutlO0e3dp1qz4y/E++0w9e5oygIdDQxkAgJRl/XrlyaNz5+IjDbV85Jk2io2VpPff15dfymaLXwYAAADgZMLD7/I6lTFj9PPPestjUfyLu/v21YABpiTgod3tDxkAAOAJMQx166ZLl+Ijb2jd0nQtXKJjJKlTJ40dSzcZAAAAcFqGoS1btHSprl41xStX1kcfSatXq02CzSjDh/P1AcmOhjIAAClIYKCOH4+f1lLwMjV2iY6SpLZtNWmSXDhdBAAAADivnj01dqw1mCuXvvpKCgpS06aKjpakjh3ZjIJHhC+lAACkFDNnytc3flpNW1arnrsiJKl5c02fTjcZAAAAcGa3bunbb63B55/XuXOqpp/UoIEiIyWpdWtNnszXBzwiPFgAAKQU48fHjyvpl3Wq46FwSWrQQHPn3v2NGwAAAACcwOXL6tVLJUrEdYwT6tBBrr/vUJ06unlTkho21MyZcnW15gHJhK+mAAA8eWfO6LPP9McfcdOy+n2D/DLruiT5+WnhQqVPnyAdAAAAgHNp21Zr11qDVaqoVi319tmt2r66dk2S/Py0YAFfH/BI0VAGAODJa9xY27fHjUtpT4B8silMkmrV0rJlypAhQS4AAAAAJxIVpVu37tJNrl5dP/4oHTyo6t66fFmSatTQ0qV8fcCjxpUXAAA8YadOxXeTi+lgkLxz6ZIkVaumVav01FMJcgEAAAA4i8uX5esrd3dlyWJdktSli/TPP/Ly0oULklS5slavloeHNQ9IbjSUAQB4Yv79V97eKlgwblpER4LllVehklSxotauVcaMCdIBAAAAOJFvvlFAgGJjrfFRo/Tzz2r92kl5eenMGUl6+WWtX6/Mma2pwCPAlRcAADwx336r4OC4cSEdD1GtAjojyXj5ZduGDXffhwAAAAAg7TIM/fqrDh+WpE8/ta5Kev119eolnT+v6t46dkySSpZUQICyZbNkAo8IDWUAAJ6AyEiFhGjgwLhpfp0OUa1ndEKSXnzRFhio7NkTpAMAAABwCoMGaehQa9AhVy4NGyZduiRvb/31lyQ995yCgpQ7tzUVeGRoKAMA8AQ0aqR16+LGeXQ+WF7P6R9JEc8WzRAcrFy5EiYDAAAAcAbR0Rozxhq0mz1b1aqpUCG5Xg+Tl6/27pWkggUVHCxPT2s28ChxhzIAAI/boUPx3eScuhgk7+I6JMkoUiTDTyHKmzdhMgAAAABncOiQ/P1144Y1LilbNjVtqsKF5Xrrhvz9tXOnJOXLp5AQPfOMNRt4xNihDADA4xMdrdGj1a9f3DSrrgTIp7T2SootWMglJEQFCiTMBwAAAOAMIiJUs6bOnTMFy5SRzSZPTw0cqKeekm7dUoMG2rpVknLlUnCwnn/e9AHgsaChDADA4zNsWPyLNTLp2gb5ldMfkiJzebqFBLO5AAAAAHBO27dbu8kVKujXXxPMIyPVtGncS72zZVNAgEqWTLAMPD5ceQEAwONgGAoP16JFcVMP3Vgr/8raLkl58rhtCWFzAQAAAOCETp5UtWqqUcMa79QpwSQ6Wm3aaO1aScqUSevXq2zZBMvAY0VDGQCAR27FCnl6ysND+/ZJkrvCV6l+dW2RFJUlh4KCVLy45SMAAAAAnMHgwXGXWCQUHJygoRwbqw4dtGSJJLm7a80aVa4cnwo8dlx5AQDAoxUVpU6ddPFi3NRNEUvVxEshkmIyZ00fEqDSpRPmAwAAAHASFy5o+nRr8JNPVKvW7YlhqHt3zZkjSenTa/nyu2xmBh4vGsoAADwqhqHt27V2bXw3OZ2iFqhlHa2XZGTK5BqwQa+8kvAjAAAAAJzEoUOqUsUaLFlS7757e2IY6tVLkydLkqurFi2Sn198KvCE0FAGAOBRGTRIQ4fGT10UM0dtG2mFpGi3p9KtXctRNQAAAMBpTZ2qy5dNkS1b9OqrstluzwcN0pgxkmSzac4cNWwYnwo8OdyhDADAIxEdHVf72dkUO10dWmqhJCNDhnRrV6l69fhlAAAAAM7kxx81apQpUqyYuZs8YkT8/pTvvlOrVrcXgCeMhjIAAMlv/ny9+qpu3HAEjInq1l6zJSl9etvSpfL2dqwBAAAAcCp//XWXLwTLliXoJo8fr48/jh937Hh7AXjyuPICAIBktmqV2rRJGDDG6qMumiLJcHW1LVwof/+EywAAAACcypo1io42RbZtU8mStyfTpunDD+PGw4fr/fdvLwApAjuUAQBIToahZctMgRHq96HGS5KLi23uXDVqlHAZAAAAgFP59lv16mWKlCqlChVuT+bPV6dOceOBA9Wv3+0FIKWgoQwAQLKZM0f58mnWrPjIpxrSVyPjJtOnq2XL+DUAAAAATubUKeuGY09P/fijXF0lScuXq107GYYk9eypIUNMqUDKwJUXAAAkj6tX1aWLwsPjI/00fLBul4CTJql9+/g1AAAAAE7GMDR5smJjTcHJk5UjhyRpwwa1aKGYGEnq2lWjRiW4UxlIQWgoAwCQDG7e1FdfmbrJH2rscPWPm4wdqy5d4tcAAAAAOJ8+fTR6tCni5yc/P0nSpk1q1EhRUZLUrp0mTKCbjBSLhjIAAA/r1i1Vrqw9e+IjXTVxrHrETUaMiH+lBgAAAACndO2axo83Rby9tW6dbDZp2zbVratbtySpWTNNmyYXbqlFysXTCQDAw1q/3tRNfkszJqp73GTwYPXtG78GAAAAwPlERKhz57j9xw7t2slmk37/XW+8oRs3JMnfX3PnKh0bQJGi0VAGAOChLF2qxo3jp600f5o6xk369tWgQfFrAAAAAJzSBx9owQJTZPBgtW4t7dsnHx+FhUmSl5eWLJGbmykPSHloKAMA8N9t3KimTeOnjbV0ttq5yJCkDz/U8OFcfAYAAABg6VLT1MtLn34q138Oy9tbly5J0quvauVKubub8oAUKWU1lNevX//WW2+VKlUqa9as6dKl8/DwKFSokJ+f37hx465evWrNTsz169dHjx5do0aNvHnzurm55c2bt0aNGqNHj75hP0QAAMBDW7EifuyvNd+rVTrdfinzmDF0kwEAAAAnt3Gj8uaNaxo7tG8vHT8uLy+dOydJ5ctr7VplzGhKAlKqlHIny9WrV5s1axYQEJAwGB4efvLkyZMnT27cuPGLL75YtmxZtWrVEibcx7Zt25o0aXL27FlHJDQ0NDQ0dPPmzV9//fXSpUsrV66cIB0AgAdz8qRat9ZPP8VNvRW4VE3cFCVJb73FS5kBAAAAREWpXTuFhpqCa9bIv+wZVffSyZOSVKqUNmxQ1qymJCAFSyk7lHv06GHpJltcuHChUaNGV65csS7czd69e318fBJ2kxM6c+ZM7dq19+7da10AACDJBg2K7yZX148r1SCDIiWpZUtNncpLmQE8HpzwAwAgJQsOtnaTS5WSf8UL8vbWkSOSVLSogoKUM6cpCUjZUsTX3cjIyHnz5jmmWbNmnT59+v79+zdt2lS9enVH/OLFi2vWrHFM76NDhw7Xr1+3j7Nnzz5v3rwDBw7MnTs3W7Zs9uD169c7drz9xiQAAB7Q3r2aOTNuXEU/r5W/h8IlqVEjzZ4tV9f4VAB4NK5everr61unTp1Zs2bt27fv6tWrMTEx9hN+Gzdu/Oijj55//vmfHH/4SoJt27YVLVq0d+/emzdvDg0NjYqKsh/v6927d9GiRX/55RfrBwAAwH1Nm6Y33jBFMmTQyI8vy8dHBw5IUuHCCg5W3rymJCDFe4ArLy5dunT06NGzZ8/adyhkzJgxX758hQsXzpUrlzX1Af37778RERGOaa9evd5++21JJUqUmDt3bqFChRxLp0+fdozvZfPmzTt27HBMR48e3bp1a0nFixe/efNm586d7fFff/11y5Ytr732miMTAICkGDVKffrEjV/Rb+v1RibdkCR/fy1YoPTpE+QCcGqPrn5Wkk/4HT582LGp4j7sJ/wcezIs7Cf8tm3bVqpUKesaAAC4h2HDTNP06XXx6LVMjd7Qrl2SVKCAgoP19NOmJCA1SKShfObMmTVr1gQEBGzfvv3MmTPWZUmSp6dnpUqVfH1969atmz9/futyEuTJk8fDw+PmzZv2qXuCN1omHEt65plnEk7vavHixY6xzWZr0qSJY9qsWbMuXboYhmGfLl68mIYyAOCBGIaGD48bv6Q/A+STVVclydtbS5bIzS1BLgBn9Hjq5ztP+I0ZM6Zy5cqhoaGDBg3avHmzPW4/4ffmm286Mu/FcsLv//7v/8qVK7dz58733nvPfumc/YTf9u3bTR8DAAB3s3mzZszQP/+Ygr2738zUqp7sv0zz5FFwsAoXNmUAqcTdr7yIiYlZtGiRj49PoUKFunXrtnz58tOnTxv3cObMmRUrVnTr1q1QoUJeXl4LFiyIiYmx/sT7cnFx6datm2M6bty4zZs3h4eHnzhx4t1333XECxQoUK9ePcf0XhJuTy5YsGCWLFkc02zZshUoUMAxTZgJAECijh1Tmzb6919JKqH9gaqdQ5clGdWra8UKmf8ICsCpxMTEfP/9915eXo+nfr7rCb8SJUrUqFFj7ty5CRL/+wm/4sWLt2nTZuTIkY64/YSfYwoAAO7qzz9Vq1b8FXl2bZtHfLankX78UZKyZ1dgoIoVM2UAqYd1h3JERMT06dMnTZpkf6OdcXszr+2+r6q3pxmGsWnTpk2bNvXu3btnz57du3e37C++j2HDhl27du27774zDOP06dM1atSwJLzwwgvLli3LmDGjJX6no0ePOsZ58uRJsBIXOXXqlH2cMDOhiIgIR4Fuf5lJVFRUVFSUKSktsv8bneFfiofBc4KkSJPPSXS0Xn893bFjNknP63CQvPPogqQbL1VyW75cbm5KW//exyBNPidIXsn7kBiGkVw/KqFbt25NmDBhzJgxj7N+5oQfAAAp1ooVsvyl+Jn8UbMjWigkQJIyZ9bGjXrpJVMGkKrEN5QNw/j+++/Hjx9/8eLFJNbBDo40+wfPnDnTp0+fUaNGDRky5J133knKD3Fzc5s4cWLp0qV79OgRHR1tWW3evPm0adMyZcpkid9VWFiYY/zUU08lWJEkDw8Px9h+fO9Ow4cPHzJkSMJIQEBAwg+mbYGBgdYQcAeeEyRFGntODh/OduxYDUnP6FiwvPLrrKQrRYps/d/70WzZewhp7DnBo5BcD4lhGPa7jJOLYRjffffd4MGDz58//5jrZ/sJv9GjR9un48aNq1SpUoUKFS5cuNC7d29HWnKd8HNsyOCEHwAA9xEWpnfe0ZIlpqCLYlZmbaeVKyXJw0Pr1qlCBVMGkNrEN5SbNWv2999/2ytaSwnrqI/vw/6RhJXxuXPnunbt+u233/7xxx+m1Ls5duxYo0aNdtlvJb/DokWLQkJC5s6d6+vra127rzv/m98ZudPHH3/cs2dP+/jq1asFCxb08fFJWFinVVFRUYGBgbVr107PG6VwbzwnSIq095z89JOtT590kgroVIhqFdJJSaH5SmffGuCTM6c1G0mT9p4TJLvkfUgMw7jXfoL/pmzZsnv27HlS9TMn/PAEJe/pAaRJPCRIVJp8SEaMcFmyxDVhJEP6mD2V33lhywJJRoYMMUuXGpUqKW39qx+RNPmEpDrGPU74xTeUDx8+bLPZEpbC9jo4c+bMVatWLVOmTMmSJZ9++uncuXN7eHgYhhEeHh4aGnrq1Kn9+/f/+eef27Ztu3btmsyVsWEYu3fvdvzAe4mJifH399+/f799WqhQoeHDh7/88suXLl0aN27c0qVLJV28eNHf33/nzp1lypQxffgOWbNmDQ0NtY/Dw8PNi6bIvV54nSFDhgwZMiSMpE+fPlm+xqQKTvWPxX/Gc4KkSDPPiWHonXckKa/OBcuriI5KuvZ08dy/BdnyWjsveFBp5jnBo5NcD4lhGMnycxx27979pOpnccIPKUBynR5AGsZDgkSlmYckPDzd339nHTGimjlsbCnX4oUtSyXFurr+2rv3+YgIrVtnzsH9pJknJJUy7nHCz3qHsm7XwUWLFm3SpEmDBg3Kly/v4nL3d/clFBsbu2PHjpUrVy5duvTw4cO6Y5vGfWzYsMHRTZY0d+5cx9VsVatWffHFFw8dOiQpJibmyy+/nD9/viPzrgoXLuxoKDsGDufPn3eMC/MyTQBAEuzYoX/+US5dCJZXMf0l6WK253JtDxbdZACSnkT9LE744YlK3tMDSJN4SJCotPSQ/POPXn893dmzlt/jxsIi/SpsXyrJcHGJnTPnlaZNzQm4n7T0hKRexj1O+JkayoZhuLm5NWnSpGPHjlWqVHFzc3N1NW3Uvw8XF5dKlSpVqlRp2LBhP//88+TJkxcuXBgZGWnNu5uDBw8mnJYrV84xdnV1LV26tL2hLGnv3r2OpXupUKHC9u3b7eNTp06FhYVlzZrVPr18+XLC91xX4M4aAEBiFi1SixbKrn8D5POi9ks65fqMbV2I8ue3pgJwPvb6uVWrVp07d65SpYp1+b4epn7mhB9SAv5XRqJ4SJCotPGQzJihs2etwT3Nh5ZaNNI+ts2Yka5VK/M6kiRtPCGp171O+MVvnciQIUOXLl22b9/+zTffVKxYMUHOA6tateqsWbOOHz/eu3fvOw/N3cny3yzhnXExMTF79uxxTB0N7mPHjtkPGNpt2rTJkdOsWTPH2DCMJQnuQl+0aJFjLHMmAAB3NWKEsihsg/zKapekUyrguT+4QJVC1jwAzsfDw6Nv377Hjx+fMWPGg3aTLR60fr7zhF/r1q1Lliz52muvLVy4sFixYva4/YSfI+1eEp7b44QfAABJd+6cPv1Ud/6yHeDxdalFg+ImEyeqXTvTMpDKxe9Q3rBhQ8GCBd3d3ROsPpS8efOOHDmyT58+1oU7WHYKt23bdvjw4WXKlLl06dL48eMd25N1R+ZdVa9evUKFCo43UPfp08fd3b18+fK//fZb3759HWkVK1Z0XKwBAMCd/v1XX3+tv/64vkH+FbVD0jnl/a5F8JCiz1lTATilo0eP5s6d2xp9CEmvnznhBwDAE2cY8vbWvn3W+JeFJ/3vaK+4yejR6trVtAykfvE7lHPkyJEgnmySUmRXrly5evXqjumxY8datWpl32GxePFiR9zNze2jjz5yTO9j+vTpjvdZX758+c033yxevPibb77peN9IpkyZpk2bFv8BAADu0KiRRn8Rvkr1q2mrpIvKObByUI9Jcfv+ACAphe5/kJQfywk/AACeuH377tJNPvTJrP8d7RY3+ewz3X7HAJCWJP62kMfAZrMtWbKkatWq1oUEsmfPvnTp0pIlS1oX7qZUqVKBgYGenp7WBUmSp6dnQEBAqVKlrAsAANx24YJ+2RyxXI1q6QdJl5WtvnvglJ9L3eP6UAB4rO484bdgwYIDBw789NNPrVq1+m8n/BzTPn36zJs379ChQ/PmzeOEHwAAdzV2rEqXtgbfz7voheEd4iZ9+2rAANMykFaYXsr3BOXOnfunn35avXr1kiVLfv/995MnT964ccPNzS1nzpwlS5b09fV96623HmgPdZUqVf76669JkyatWrXqwIEDV65cyZYtW4kSJerXr9/kERfbAAAgAElEQVS1a9dMmTJZPwAAwG2TJ+u9rlFL1NxPGyVdVWZfbSz/dlmb5b3NAPCE2E/4bd682T61n/Azp0gPeMKvcuXKN27c0O0TfpYETvgBAOCwe7d69LAGF7Vd3fT7NrbYWEl6/30NHy6+PyCNSikNZUk2m61+/fr169e3LtzNs88+axiGNWqWKVOm3r179+7d27oAAMC9nTih97pGz1ObBlol6YY86mjde7Mqtm5tzQSAJ8V+wq9hw4Y///yzde227Nmzz549+4FO+DVp0uTsnW+plzw9PZcuXcoJPwAAJN26pa++sgbH1gtqtrCpoqMlqUMHjR1LNxlp2AM0lGNjY/fv33/8+PGwsLBo+/9D7q0d768EAKRChqHp38VM19vNtVhSuNzrabVn02r8WgPwHzzS+pkTfgAAPH5nz6paNf3zjylYL/tP7wc1UGSkJLVqpSlT5JIi7pgFHpEkNZRPnTr12WefLVy48Pr169a1e3jQghgAgJSgT6/YYmO6ttVcSRFya6Tlf+aoFfixNQ0A7u/x1M+c8AMA4DGbMcPaTe5eYcf/HaxjC78pSQ0aaNYs3X4jLpBWJd5QDgkJady48bVr1xItQB1s7OoHAKRCVy4bhcd+0ElTJUUpXXMt+reC3+nNcne3ZgLAfVA/AwCQ9ly5okmT9MknpmBp7R5zwNd2/Zok+fpq4UKlT2/KANKiRBrKZ8+ebdiwoX1jRRLL3KTXzQAApBwHDxi7avd515ggKUYubTRvlRrM/ZBuMoAHQ/0MAECaVLeutm41RYrp4M8Za7tdvyxJ1atr2TJlyGDKANKoRK50GT169PXr1202WxKrYQAAUqOwMK0uO6jl6dGSYmV7SzMXq/knn6hlS2smANwf9TMAAGnPyZPWbvKzOrorl3emG6GSVKmS1qyRh4cpA0i7Emkob9iwwV4KO/ZNGIkxfR4AgNTgZLcv+kQMtY+7aPJctfXz09Ch3H4G4IFRPwMAkJbcuKGOHVWokClYQKd+dK3lfvG0JL38sjZsUObMpgwgTUvkyosTJ044xoZh5M+fv3bt2vnz53dzc0uQBQBAavX339roM/rdowPs0/f0zVR1ktS2rSkNAJKI+hkAgLRk3DhNn26K5NH5XTm9cl06JkklSyogQNmymTKAtC6RhrKrq6skwzBsNlutWrXWrl1LKQwASEs21p/w7tHe9nFvfTVB70lav15+fqY0AEgi6mcAANIGw9Dhwxo2zBTMoUs7stXOdekvSXruOQUFKXduUwbgBBK58qJIkSKO8bvvvks1DABIMwxD576Y9u6B9+zTAfp8tHpLGjeObjKA/476GQCAtKFDBxUrphs34iNZFBbk6lvoyh5JKlhQwcHy9IxfBpxGIg3lxo0bO651c3FJJBkAgFRkccO5eQZ0so+/UP8vNEDSiy+qTRtTGgA8EOpnAADSgL/+0syZpoiHbux/1r9szE5JypdPISF65hlTBuA0Eqlxu3Tpkjt3bvt7RaZNm2ZdBgAgdQqfvbjJqvYuMiSNVs8BGirp99+1a5dy5rQmA0DSUT8DAJCqGYYWL1bt2qZgBt1a69qgwLGtkpQzp4KC9PzzpgzAmSTSUM6VK9f333+fLl06wzDWrFnTokWLo0ePWpMAAEhVtn+yKv1brV0VK2mCuvfWKMn2+usqW1bpEnm5AAAkgvoZAIBU7Ztv1Ly5ErxkV+kVuTFz05oxwZKUNasCA/Xii/HLgPNJ/HtzrVq1AgMDmzdvHhoaumTJkiVLlhQvXrxo0aJZsmSxv3LkTjabje0YAICU6cf+GysPb5ZO0ZKmqcP7+kay+fpqwgRrJgD8N9TPAACkXvPmmaauiv65cJvyR9dKUsaMWr9eZcuaMgDnk3hDWVJYWJibm5vNZrPfB3fgwIGDBw9ak26zv9KaghgAkBL98EPlLxtmUKSkeWrdWVMMuXh7a8MGayIAPAzqZwAAUp3vvtP48dq7Nz5iU+x0dSh/dIkkubtrzRpVqRK/DDirxBvKkyZNevfdd3W70rUPHG8aAQAgtTi7ZGu2FnWfir0laYmatNesWLlKevNNayYAPAzqZwAAUp0DB9S5syVmrC74rv/JOZKUPr2WL1fNmpYMwDklcofy3r1733//fUcFbB/Y7sv6IwAASAl+/TVrqzeeir0paZXqtdb8GKUrW1YrV6p9e2suAPxn1M8AAKQ6V65o1ChLzBifvrf/yUmS5OqqRYvk52fJAJxWIjuUv/7665iYGHuZay+FrRkAAKR4UTt22bx9PaKvSdoon+ZaFCU3FxetX6+8ea3JAPAwqJ8BAEhdVqxQ8+aKijIFh+jT96O+liSbTXPmqGFD0zLg3BJpKP/0008Jq2H7PgsAAFKRmzv2RVSpnT3miqQfVLORlkfIXdJHH9FNBpD8qJ8BAEhdBg60dpPH5hvx4bnP4ybffadWrUzLgNNLpKF86tQpx9gwjJYtW1avXj1//vweHh7p06dPkAgAQIr011+22l7ZYy5K2qqq9bQ6XB6SDh5U0aLWXAB4eNTPAACkCpcuadYsnThhegufpPc1/sNzH8dNxo9Xx46mZQCJNpRz5Mhx9uxZ+/aKHj16jLrjRhkAAFKuf/6JrlHrqbDzknaofB2tu6FMkqpWVbFi1lwASBbUzwAApHyxsXr9de3ZY413dp02PubDuMnw4Xr/fdMyAEmJvpSvXLlyjmN6Pj4+5kUAAFKwEydia3mlO3da0i6V8dXGq8oqqWZNTZtmzQWA5EL9DABAyrd79126ye9knD85tlPcZMAA9etnWgZwWyIN5bfffluS/Rq4s2fPWpcBAEiZzpyRl5fL8WOS9qlkbQVeVg5J06bphx9UvLglGwCSDfUzAAAplmFoxAiVKqWyZa1LDbV80s12sv9VuEcPffaZNQPAbYk0lBs1alSnTh37JouRI0deu3bNmgEAQEoTGhpV01t//y3psJ73VtBF5ZaUObP8/a25AJC8qJ8BAEixNm7Uxx9r3z5rfJT3hiWuLVyNGEnq0kWjR8tmsyYBuC2RhrKk77//vnr16oZhHDx48OWXX54xY0ZoaKg1CQCAFOLff1W7dvrDByQd1bO1FHJOnvaVX35R3rymXAB4FKifAQBIac6d086dGj3aGpc0rtGmXj81co2JkqS2bfXtt3STgftL5KV8RYoUkRQZGSnJMIyjR4++8847krJkyZI1a1YXl7v3o20225EjR6xRAAAetbAw+fho925JJ/V0LYWcUkH7yvDhKlnSlAsAjwL1MwAAKc2nn97zBgvfrL+8t6Gubt2SpKZNNX267vHLGoBDIg3lY8eO2S+A0+2b4OzH98LCwsLCwhJmJuT4CAAAj8+1a3rjDe3cKems8tVSyDEVtq8895zatzflAsAjQv0MAECK8u+/GjbMGpRUr54+9vuj8sd+tvAbkuTvr3nzlC6RRhkAJdpQtrMXwYZh2Gy2RItdx1utAQB4fG7eVL162rZN0gXl8lLw33rBvvLDD6pcWe7upnQAeKSonwEASAl++EGff67oaGtc0qgO+4t28tHVMEny8tKSJXJzsyYBuJskNZRtNpujJnZETBkAADxBt26pYUP9+KOkf5XdW0EHFHe9RYUKqlkzYSoAPA7UzwAAPHHLlqlJE2swQwblyKFP2/xdtLu3Ll6UpFdf1cqV7EABki5JDWVRAQMAUqzISDVtqsBASWHK4quNu1XGvlK1qiZPNuUCwGND/QwAwJM1a5Y1Uq+eVq2Sjh9XdS+dPStJ5ctr7VplzGhNBXBviTeUOYIHAEi5oqPVqpXWrpV0XRnf0PrfVMG+UqWKtm415QLA40H9DADAk7V2rYYN088/W+ONG0tnzsjLSydOSFKpUtqwQVmzWvMA3FciDeXY2FhrCACAFCImRu3aadkySeFyr6s121TVsdiyZXwiADw21M8AADxZly6pSRNFRJiCzz2nwYPVxueCanrryBFJKlpUQUHKmdOUByAJEmkoAwCQQsXGqlMnff+9pAi5NdDKH1XTsTh3rlq3dswAAAAAOIWICE2dau0mu7jol1+Uy/WyavnowAFJevZZBQcrb15THoCkoaEMAEiFDEPvvacZMyRFKV1TLQmUj2Pxs8/Upk18LgAAAABnsG2b6tTRlSvWeJcuypXhmmq/oV27JKlAAQUH6+mnrXkAkoaGMgAgtTEM9eypiRMlRcu1pRasUT3H4jPPqEOH+FwAAAAATmLIEGs3OXNmhYTolRI35V9P27dLUu7cCgpSkSKmPAAPgoYyACBVMQx98onGjpUUK1s7zV6mJvaVjBm1fr1eeUUeHqZPAAAAAEjboqO1YIE2brTGv/xS5UtHqEFj/fijJGXPrqAgFS9uzQPwIB6gobxjx47t27cfP348LCwsOjraupyAzWabNm2aNQoAwEM7//7QvBOG28fvaOr3ir8pefBgvfaaYwYATx71MwAAj0eXLpo+3Rps00ZvtYlSy5ZxnebMmbVxo156yZoH4AElqaG8atWqPn36/P3339aFuzEMg4IYAPAoXOo7Mu+EQfZxd02Yofi7Ldq3V/fujhkAPGHUzwAAPDaRkZozxxq8cUMeGWLUtr1WrJAkDw+tW6cKFax5AB5c4g3lL7/8sn///pIMw7CuAQDw2Iwfn3NkX/uwh76eqPj+8ZUryprVMQOAJ4z6GQCAx+P0afXsqRUrFBVlivv5ycM9Vp276PvvJSlDBq1cqWrVTEkA/qtEGso7d+7s37+/fdOEzWazLt8NdTMAIHmFhWmZ35S3f/nQPu2vL8aqh2PVx4duMoAUhPoZAIDHpmPHu9yb3L+/+vQ29NFHsp/+SZdOS5bI29uaB+C/SqShPH78eHs1rNtn8awZAAA8Ymuaz27/S1f7+DMNHK7+9vHbb6tIEX3wQXwmADxx1M8AADweV67cpZtcrZq+GGro44/1zTeS5OKi+fNVt641D8BDSKShvHnz5oTVMLsnAACP04ULuvrdwpYBb7vIkPSVen+qIfalFSvUoIEpGQBSAupnAAAegzFj1LOnNejqql69pKFD9eWXcaHp09WsmSkJwENLpKF87tw5x9gwjCZNmtStWzd//vxubm4JsgAASH5jxujHniuWqI2rYiV9o/f+p5GSTVKFCvLzs+YDQEpA/QwAwKN27Zr6x51ajLdokV55RUVWfK1Bce/x1rffqn17UxKA5JBIQzlbtmyhoaH27RVdu3adMGGCNQMAgEfg1i1t+XjdIjVPpxhJU9TpQ42TbBMmqEwZVaggOjMAUibqZwAAHp2oKC1ZooULdeuWKf7662rWTJo0Sb16xYVGjVK3bqYkAMkkkYZy8eLFz58/bx/Xr1/fvAgAwCNx7pzmvh08P6Kxm6IkzVbbrppkyOXpp9Wli1xdrfkAkHJQPwMA8Oh07Kg5c6zB0qU1bpw0e3Z8B3nIkPjOMoDk5mINmLVPcDTAURkDAPDoRETog7Jbum2o764ISQvVvIOmZ3B3KVlSc+bQTQaQ0lE/AwDwiNy4ofnzrcFatbR7t0ofXKy3344L/e9/GjjQlAQgWSXSUG7dunXZsmXt7xX56quvrl27Zs0AACBZ/Tn5l2nn6mTUTUkr1OBNza38arrwcO3bp5o1rckAkNJQPwMAkOxiYvT558qdWzEx1qWGDaU1a9S6tWJjJem99zRihGw2ax6A5JNIQ9nNzW3p0qUFChQwDGP//v3lypWbNWvWhQsXrHkAADy0Cxf0se/vRT/0y6zrktbLr4UWRit9kybWTABIsaifAQBIdjNnatAghYebgk2basIEvVc8SE2bKjpakjp00LhxdJOBRy2RO5QlPfvsszt37vTx8fnzzz+PHDnSoUMHSVmyZMmSJYvrPQ4e22y2I0eOWKMAANzX6Lf29A7wyaYwScGq1VjLIpVh6lR16GDNBICUjPoZAIBkdOaMJk2yBr28tHix9NNP8m2giAhJatVKU6bIJZGtkwAeXuIN5ZiYmBEjRuzdu9d+cM8wDElhYWFhYWHW1NvsmQAAJF3Y9oM91nnn0iVJW1Stvlbd0lNDhqhjR2smAKRw1M8AACSLsDD5+2vrVms8XTp99JH022+qU0c3b0pSgwaaNYs3rgCPR+J/t+nUqdPYsWNjY2PtpbAtMdbPAwCQmPmfH7le2SuvQiVtV0V/rb2pjAUKxL9XAwBSEepnAACSxezZd+kmt2+vgwdVt9Bu+fjI/q4CX18tXKj06a2pAB6NRHYor1+/fubMmY4y114Tiz0UAIDkE/X38dc+rVVAZyT9oZf9tOGasixbJi8vZcliTQaAFI76GQCAh3TjhpYt05kz6tfPuuTqqi+/VN7LB1W7ti5flqTq1bVsmTJksKYCeGQSaShPmDDBMaYIBgAku0u7T8dW9yponJC0Vy/WVuAVZS9dWo0aWTMBIFWgfgYA4GEYhvz99eOP1rik7Nn12WfKe/OovL0VGipJlSppzRp5eFhTATxKiTSUd+/eba+DDcOw2WyOHRYAADy8qFPnw8p7FYk6IumQinop+JJylSqlqVOtmQCQWlA/AwDwMA4duns3ef58tWghlzOn9FotnT4tSS+/rPXrlTmzNRXAI5bIHcoXL150jDNlyjRp0qT9+/dfuXIlMjIy9t5iYmIS/AwAAO7m4sWI6t5Fog5JOqIitRQSqrwVK2rPHlWsaM0FgNSC+hkAgP9m7VpVrKgSJaxxSRkzys9PLhfOy8tLx45JUokSCghQ9uyWTACPQSI7lD09PY8dO2bfXjF06NDOnTtbMwAAeHDG5SsXyvrkObVX0gkVrKWQMyogqXFjayYApC7UzwAA/DcXL2rHDmvQ31+5cum995Q99pJq19Zff0nSc88pKEi5c1uzATwWiexQfv311x3H9EqWLGleBADgP7l27dqrfnlO/SHpjDxrKeSEnpE0YYL69LHmAkDqQv0MAEDS7d2rTZt04oRiY61Lkjp21Jo1mjlT5V8Ik5+f9uyRpIIFFRys/Pmt2QAel0Qayt27d3dxcbFfA7dr1y7rMgAAD+rGDfn7ZzmwXVKocnsp+IielzRggLp3l0siv5cAIKWjfgYAIOmmTHF5/XU984yeekr9+pmWPDzUtaukuG8Q+u03ScqXTyEheuYZUyqAxyuRL+7lypXr16+fYRiGYXzxxRd//PGHNQMAgKQLDzcaNNCWLZIuKYe3gg6qhKS8edWhgzUXAFIj6mcAAJLun39s9kFkpHx8NGNG3H/mzdP+/SpfXrp1Sw0bautWScqZU0FBev75hD8BwOOXyB3KJ06c6Ny585EjRxYuXHjlypXKlSu3aNGibt26xYoVy5o1q8u9N5IVKlTIGgIAOLmICDVtagsOlnRFWX0UsEcvSfL11fz5ypHDmg4AqRH1MwAASXT6dKaAgPjfjD4+atMmwbKkyEg1a6agIEnKmlWBgXrxRXMGgCcgkYbys88+az+vJ8lms0VFRc2bN2/evHnmLCubzRYdHW2NAgCcWVRUZOOWbuvWSbqmTH7a8Ltesa8MHUo3GUDaQf0MAEBS/P67Pvzw9YSR555LOJOio/Xmm1qzRpIyZtT69Spb1pwB4MlIpKEsyfFSEUk2my3hFACAJImJiX2zrdu6FZJu6il/rd2uyvaVgQP1SlxjGQDSCOpnAAASNWeOS3S06eCOqaEcG6sOHbR4sSS5u2vNGlWpkmAZwJOUeEPZvsPCfg2czWZzbLi4FypmAIBJbKw6dHBZtFDSLWWor1VbVN2+0quXPvvMlAsAaQD1MwAA9xEerk8/1YQJrgmD5csrd+7bE8PQu+9qzhxJSp9ey5erZk1HJoAnLvGGsl2idTAAAHdhGOrWTbNnS4pU+iZaGixvx2KDBvGJAJDGUD8DAHBXAwdq9GhTJFs2rVx5e2IY6t1bkyZJkqurFi6Un198KoAUIEkNZTZNAAD+C8PQRx9pyhRJ0XJtoYXr5G9fadtWzZrptddM6QCQZlA/AwBwLytWWCM//KD8+W9PPv1UX38tSTabZs9Wo0bxeQBShkQaytWrV2dvBQDgvzAMl/79NX68pBi5vKm5KxRXC/btqxEjTLkAkGZQPwMAcB8DBujIEVOkenWVKXN78uWX+vzzuPGUKWrd+vYCgBQkkYbypk2brCEAAJKg2IIFrgsX2scdNH2hWjqWOnRwDAEgraF+BgDgXo4c0RdfmCLjx8d06uQa96fYb75Rv35xC+PG6Z134vMApCSm92kCAJAsXEaOLH67m9xFk2arvWMpOFhFizpmAAAAAJxCTIz1jdzZs9/q3DnW3V2SNH26PvggbmH48PgxgJSHhjIAILmNHes6YIB9+KHGTlEXx0q2bKpa1TEDAAAA4Cw6dLC/qzte165/utj7Ut9/H78fecCA+H3KAFIkGsoAgGQ1aZJ69LAP+2rEeH3oWHF313ffKW4DAgAAAACnceWK5s41Rd5+O7ZSpXOStGKF2raV/X22PXpYtzEDSHkSuUMZAIAHMGOGunWzDz/V4JHq61jJnFlhYeI9Vfh/9u48zsb6/eP4+8yMGdvY92QrlK1SRItlNoxl7FkSyk5CJEtEfFukhaRFiqhk37cZez9rJURkX0IYhmGMmXPu3x83Z865w7EMs5zX848en/u6rjM9enR3uubyue8PAAAAvM3//Z9atZLD4RasU8chybZ0qV54QXa7JHXurNGj+Z0BSP2Sdih//PHHZ8+edUklgzNnzvTvnzRNAACkZz/+qFdeMZfv643hGuKabNKEzhBAetO/f/8zZ85Yo3eH/hkAkM6cPavQUB065Bb86itFRBi5t2/3bdZMV65IUps2+vxzfmcA0oSkgfJ3331XrVq1oUOHHrL8V35HDh482KdPn+LFi3/44YfWHAAg/Zk1y/mc2qd67U29JyX1gm+9pXHjkmoBIH0YNWpU8eLFe/fuvX//fmvu9tE/AwDSpTVrdOmSW6ROHXXsKJ9NG6uMHGm7fFmSmjbVxIm6+kJlAKmd23+rly9fnjhxYuXKlRs1ajR9+vSLFy+6Zm9FXFzc9OnTw8PDS5Ys+emnn8bGxlorAADpz4IFatHCfE5ty5Ode+lj12nyCy9o+HBlzpxUDgDpxsWLF8eMGVO6dOnatWv/9NNP9M8AALg6eFANG7pFfHzUtav0++++9er5mdPkunU1dar8eCkrkGZY/3M1DMNut69YsWLFihVdunSpWbNmcHBwtWrVypUrl/EG5yjFx8dv37593bp1K1asiIqKunz5siTDfJk6ACDdW75cTZooIUHSD/7tXvz1c9dpcsaM6tEjqRYA0h+zf16+fPny5csDAgLonwEAcBo50hrZulXlfXeqepgtJkaSo2ZNnxkz5O9vrQOQilkHyjabTdfa2cuXLy9ZsmTJkiWSfHx8ihYtWrhw4Xz58mXKlMkwjLi4uFOnTh09evTQoUOOa29Wd/bBrj8HAJBurV6tiAjzrWfLcrVoEz3BcHn2JW9eY/NmW9GiSeUAkP7QPwMA8F+xsVq6VBMmuAXHjFH5THtVLUSnT0s688gj2WbO9LnBn78CSLWSBsqjR4/++OOPjx49arPZzHZWLh2t3W7fv3//gQMHnPUmS8vr/KAkwzCKFSs2evRolzwAIB1Zv1516youTtLuso3q/jnZIV/X/Acf2IsWtf7JJQCkGzNmzOjXr9+BAwfonwEAcJWYqOee0x9/uAV9fNSu5iEFB+v4cUmOihU3vP56WNasbkUA0oKkfWQhISFLly4dPHhw7ty5XTdKuDL+w1JgfsowjLx5844ePXrXrl2NGjVy/i0AAOnHli2qXVsXL0paoLrl//wpURlc89WrH2nalH12ANKzxo0b79y5c9SoUXnz5jXonwEAuGb1aus0WdLB9ccDG4Xo8GFJKlfOvnBhYpYs1iIAaYHboXwBAQFdunT5/fffP/jgg4ceeshseV0LLO2vswM2mfUlSpT49NNP9+/f37t374CAANcCAEA6sW2bwsJ0/ryk9VlDmmpGgpLeeubrq4sXE3r3/o3/CQBI9wICAl5//fX9+/d/8skn9M8AAEg6cEAhIdZg1YdPFW4for17JalUKUVGKnduaxGANMJtoGzKlClTly5d/vjjj8jIyA4dOuTPn9/sdJ3MMkswd+7c7dq1i4yM3LNnz6uvvpo5c2b3nwoASC927VJIiM6elfRbYLWQ2DnxcnvrWfPmyuC2WRkA0rnMmTP37Nlzz549K1eupH8GAHgzw1DdutZgx2bnVvrXsu3cKUnFiikqSvnzW4sApB03e7Vl9erVg4KCJG3fvn3Dhg1bt249cODAiRMnYmNjJWXOnLlAgQLFixd/7LHHnn766ccff9yy4QIAkA7t3avgYJ06JWm9qoRdWHBJSc+pPfGEwsI0aFBSOQB4lerVq1evXl30zwAAr+Rw6I8/tGuXW3BE/wuDVtfRzt8l6YEHFBWlwoXdKgCkNTcbKDuVL1++fPny1igAwNscPKigIPMMja2+FevYF8cq0JnMlk2//ipzNpKQ4AwDgDeifwYAeJu5c9Whg06fdgvmD7zUe1UDbdwgSXnzKjJSJUq4VQBIg67zygsAAK7j6FEFBenIEUnbVD7YvixGOVzzvXtfnSYDAAAA8Cp2uzp3tk6T/RV/4InGmTeukqScORUZqUcecasAkDbd0g5lAIC3O3FCwcE6cEDSLj0SquXRSjpD4+23FRqqqlWTygEAAAB4gwsXFBmprVt18qRb3E8JG4u1yLRmqSQFBmrpUlWo4FYBIM1ioAwA8OTUKQUHa88eSYcyPBScEPWvks7QKFBAgwfL1zepHAAAAIA3iI9X1ar6809r3Ef22dnaPn5wjiRlyqSFC1WpkrUIQJrFKy8AADd19qzCwrRzp6RDtqLPJ6w4rkLOZN68+vJLpskAAACAN1q+/DrT5Nw5HRdada53/kdJ8vfX3Ll6/nlrEYC0jIEyAODGzp9XrVraulVSTNYHgpKLBXIAACAASURBVIyoIyriTPbpo5Mn1aBBUjkAAAAAb/Dbb2rbVvXrW+OSMadYr8w/fCNJfn6aMUOhodYSAGkcr7wAANxAbKzCw7V5s6RzGfM/HRu1Xw+55l94gVP4AAAAAK9z4YJq1tT589Z41SrGO46Bz20aK0k+Ppo69bojZwBpHQNlAMD1xMWpQQP98oukaJ/c1S5H7lFp1/zMmapc2TUAAAAAwCusXHmdafK77+rNxJF6672r1xMnqnlztwoA6QWvvAAA/Ed8vBo10sqVkhKy5gh2LP9T5Vzz69apcWPXAAAAAID0LzFRHTooIsIaz5FDHWM/1ltvXb3+/HO1betWASAdYYcyAMBdQoKaN9fSpZLOKzA0dslWPeGar1xZVau6BgAAAAB4hYUL9c031uC4cWp+7svcg/pcvf7wQ3Xt6lYBIH1hoAwAcJGYqNatNW+epIvKHK5Fm/S0a37WLIWFyYfnWwAAAABvYhjatEk9eljjo0apW9bJ6nFtgjxsmF5/3a0CQLrDSAAAcI3drvbtNX26pCu+Getr/i96zjX/2mtq1EhZsrjGAAAAAKR/w4apShUdPeoWrFJFXXJPV/v2MgxJeuONpLdeAEi/2KEMAJAkORzq0kVTpkiKl3+EffZKBbnmK1VSv36uAQAAAABewW7X6NHW4FtvaXjlBWrUSg6HJPXooffek81mrQOQ7rBDGQAgGYZ69tSECZIS5NdcPy9VbWfy4YcVE6NNm/TAA0mfAAAAAOAN/vpLdesqNtYa71QiUk2bKjFRktq316efMk0GvAQ7lAHA6xmG+vXTuHGS7PJpranz5HZs84svKls21wAAAAAAr3DlioKCdPy4W7BmTb1Vc13h7hGKj5ekFi309dcctAJ4DwbKAOD1hgwxH2BzyNZO301Xc2cmJETPP68BA5JqAQAAAHiPzZut0+SnntKKD7YoKFyXLklSRIQmT5avr1sRgHTt9gbKK1eunDt37po1a/7555/o6GiHw7FmzZoqVaocdXkre/78+QMCAlw+BABIvRwjRvqMGGGuO+vLKWrjTI0bp27dnFcAgDtB/wwASLuWL1dYmDX4Rvh21aqlCxckKSxM06YpQwZrEYB07VYHyrt27erQocOGDRskGebZnZLNZpPk4+MTEhKyb98+MzhkyJChQ4de+xwAIPXa1fGjRycMNtc9NHaCOjpTBQqoSRPnFQDgttE/AwDSNIdDr7xiDa7/bneVN0IUHS1J1app9mzxZ6KA97mlF9wsWbKkSpUqGzZsMAzD7IbNVtipc+fOZsowjKlTp7qmAACp1Lhxj0543Vz21ahx6uHMTJqkrVuVP78zAAC4PfTPAIC0btUqHTniFvmw+4Eqg4L177+S9PTTWrBAmTO7VQDwDp4Hyjt27GjevPmFCxcMw7BdY6lp0aKFrnXJ+/bt27Vrl6UAAJB6/P231rb7Rj2uTpDf0vDR6uvMfvONXnqJaTIA3Dn6ZwBAWjd1qoKD3SI1Sx59bX6wjh2TpMcf1+LFCgx0qwDgNTwPlDt06BAbG+vaB5ubLFw98MADTzzxhPMyKirKJQkASEXWrdP/ykx5dtLVt1uM1MARuvrWC0n16qlFC+cVAOBO0D8DANK6Dz90uyyW6WSUT4jf4QOS9OijWrZMOXO6VQDwJh4GysuXL9+0aZNrK/zfbtj0zDPPmFswJG3evNmaBgCkDr8Pmj4hsa2PDEmj1WewRki2LFl04oRiYjR/Pk+tAcBdoX8GAKRphqEJE7R1a1Ikp6LXZQ617d4tSQ89pMhI5c2blAbgfTwMlOfOnWsuzD64d+/eRyxv0LmmQoUK5sIwDB7ZA4DUxjA0fryGPzWvy5pWvnJIGqduffWhZJPUtq3y51e2bNZPAQBuF/0zACBN++YbdUw6q1vZFLMxR60HzmyXpAcfVFSUChVKSgPwSn7WgLu1a9fabDZz60RoaOjo0aOtFdcUKFDAub5R0wwASCk//qg53ZbOU7MMSpT0jV5+VWMlW7VqqlRJw4db6wEAd4b+GQCQps2enbTOrItLfOqWPLdFkgoUUFSUihZNSgPwVh4GysePH3euW7du7ZKxCnR5F/v58+ddMgCAFHbpkraPWTlHDQN0RdJUteqkrwz57N+v4sWtxQCAu0H/DABIo65cUdeuWrTo6mWALs9Rw6qOXyQpd25FRqpkSZdyAN7Lw0D53LlzzvUDDzzgkrGKjo52rh0Oh0sGAJBiYmPVooXOLfxliepn0mVJM9SkrSY55BsezjQZAJIf/TMAII2aNk0TJ15dZ9CV6WoWqkhJyp5dy5apbFmXWgBezcM7lLO5vFDz33//dclYHThwwLnOkSOHSwYAkGImTdLJhZsXqU5WXZQ0T/Vb6YegUL/p0zVrlrUYAHD36J8BAGlRfLzef//q2leJU/RifS2QpCxZtHixKlZ0qQXg7TwMlPPkyeNcR0VFuWSspk6d6lzny5fPJQMASAGJiVq2TF/32LpUtbLpgqSlCmuunxNt/t9+q6ZNFRBg/QgA4O7RPwMA0pzERNWooT//lCSbHN/oleaaLkkZM2r+fFWt6l4OwNt5GChXrFjRPFHEMIypU6euX7/eWiFJ+vLLL7du3eo8fuSpp56yVgAA7q927dS71p/LFZpLZyWtVI1Gmu3IkHH4cN30CWwAwF2hfwYApDkrV2rDBnNpjFP3tposSRkyaPZs1azpWgkA8jhQrlGjhrmw2WyXL18ODQ3t0qWLa8GsWbMiIiK6detms9mcQeenAAAp4uRJbZq6J0rBeXVa0i96pr7mfzguc0yMBg+2FgMAkhH9MwAgbVm8WGFh5tIYpX5d9YUkw9dX06apdm23UgCQ5HGg3LJlS+dr4Gw226VLl77++mtJhmGYf/34448XLFhgXppy5szZrFkz5yUA4H5yOPTJJworuX+FggropKTNeipci+wZs7ZooUyZrPUAgORF/wwASEPWrlV4+NX123q7r0ZLMmw22+TJatTItRIAnDwMlAMDA/v06ePsd82H8lwLDMMwH9Mz1zabrW/fvhkzZnStAQDcN+PGaXTvI3MuBBfWMUlb9VgtLa1eP/uSJcqVy1oMAEh29M8AgDRkzpyrizf0/lANN9e2r75Sq1bOGgCw8DBQljR48ODnn3/etSd2zdpsNtdItWrV+vfv75IHANxXK6YeX6Gg4joo6U+VCdXymo1zzZun6tWtlQCAe4T+GQCQ+v37r2rX1kcfSVIPjX1fb5rxEwM+VYcOrpUAYOF5oOzj47NgwYKwsDDXntjJWWYYRmho6Lx58ywdMwDg/vj1Vz1d/N+RG4NLaq+kv/VwiCKjffJ27GitBADcU/TPAIDUb8QILV0qSe01cax6msETr/2vwP+urgHgRjwPlCUFBgYuWrRo/PjxDzzwgPmMnkXBggU///zzRYsWBQYGWj8MALgvBneL/upgaBntknRAxYK0Irh1wS1bOEgDAFIA/TMAIDXbv19jx0pSC/04QVf3I594ZVCBTwa4lgHAdflZAzfg4+PTuXPnTp06bdmyZe3atcePH4+JicmRI0eBAgWee+65SpUq3eXGiu+++659+/bW6PV8++237dq1s0b/o127dpMmTbJG3V24cCFr1qzWKACkNQ6H1syPeWdT2GPaJumICgdpxemMD44fL8YUAJBS7nX/DADAnZk48eo7LSI053u18ZEhackjvWp99Y6lEgCu61YHyiabzVapUqVKlSpZEwCAlPNquwutv6/zlH6VdFwFghV1UMXHfMA0GQBS3r3rn9mQAQC4MyNHyjAUpqXT9IKf7JKO1etUe95H4k86Adya2xsopwb58uWzhgDAi505cqnZ9/Wf0XpJp5QnWFF/q9TFi8qc2VoJAAAAwJutWaNvv9X+/aqm1XPUMEBXJM3M3KbhrPFMkwHcutQyUG7atGmNGjWsUUlSRETEtm3bzPXDDz9c+/bfBrp27drChQtbo1KWLFmsIQBIUzavvRxfu2ENrZYUrZwhitylMhERTJMBAEnYkAEAkPTHHwoKkt2up7Vhgepl0mVJUTmbFl000TfDLZ2wBQAmDwPlc+fONWnSxLh2PnXTpk27devmXiJJ48aNmzlzprn28fGZOXNm9uzZ3Us8yJo163Wfntu4caNzmiypT58+Pj63/TVXuHDhYsWKWaMAkMadOX7lVI1m4Y7lkmKUrZaWbtNj7dvr/fetlQCA++a+9c9syAAA3JY5c2S36zFtXaw6gYqVFBlQN+TEVPl7GA0BgIWHb40FCxasXLnSZrMZhuHv7z916lRrhSSpWbNmffv2vXLlimEYNptt3rx5bdq0sRbdkVGjRjnXefLkuZW3v/1XRETEoUOHLl26lCNHjjJlytSuXbtTp065cuWy1gFAGpKYeDGiVbhjgaRYZamjxVtUqX59TZxoLQQA3E/3rX9mQwYA4BbFxKhjR02frke1c7lCc+qcpCgFrek5I8Tf31oNAJ54aC5Xr14tyWxz69evX7BgQWuFJClfvnwNGzZ0bsRYsWKFe/4O7d+/f/bs2c7L7t27Z8qUySV/q7Zt2xYTE5OQkHDq1KnVq1cPGDCgdOnSy5Yts9YBQBrxx2/2BbnbFtk8U1KcMtbTgvV6xma7elgzACAFpWz/rOTbkJEjRw5/f/98+fLVqFHjvffei46OthYBANKI0aM1fboe0t5IheTVaUnrbc+c+Wbu2+9ltJYCwC3wsEN569at5vYKSSEhIda0i5o1a06bNs0sdt0TcTc++ugjh8NhrjNlytS9e3f3/J07ffp0RETEunXrnnzySWtOio+Pj4+PN9fnz5+XlJCQkJCQ4FaUHpn/jN7wT4q7wX2S8hyOf+p2qXf+B0nx8o/Q3NWqIWndusRKlYxU8m+G+wS3gvsEHiXvTWIYRnL9qJtI2f45GTdkmAtzQ8bq1atHjx49derUsLAw90IAQKrmcOiPP/TOO3pQh6MUXEjHJW3RkwlzFzWvf53HXADgVngYKB84cMC5Ll68uEvGyvWZuEOHDiUl7lR0dPS3337rvGzbtm3evHld8p6VLl26cePGzz//fPHixS9cuLBly5Z33nnn+PHjZvby5ct9+vQxt5BYvPvuu8OGDXONLFu2LLPXHHG1fPlyawj4D+6TFGMYJT/5ps6JBZIS5NdUM5YrTFKXLn+cOnVw0SJrecriPsGt4D6BR8l1kxiGcfHiRWs0uaVg/6yU25ABAEidWrTQ9OkqoONRCi6qw5K2q9zo0KVT697ei/sBwJWHgbK5P9fk53ezYtfshQsXXDJ3aPz48ZcuXTLXPj4+ffr0cc97MHLkyAceeMA1UqlSpQYNGpQvX/7s2bNmZM2aNf/880+hQoVcyyQNGDDA+bc7f/78gw8+GBYWli1bNveqdCghIWH58uWhoaEZMmSw5oBruE9SkmEcb9mvyOoFkuzyaakfF6i+pOefd4wcWSYwsIy1PuVwn+BWcJ/Ao+S9SQzDOHfunDWa3FKwf07BDRle+4Sf10repweQLnGTpAY7d2r69Ax5dCpSISW1V9Juldrz2eJJHbPZ7Ql2u7X+PuMmwc1xh6QGN3rC72Y9rqSAgADnVPfm+yYOHz7sXPvf9Tvd4+PjP/vsM+dlREREyZIlXfKeWabJzmD79u0/+ugjZ2Tr1q3/HSgHBAQEBAS4RjJkyJAsv8akCV71D4s7xn2SAgxDgwYVmTVGkkO2lzR5pppKOnJEhQv7eHwnforgPsGt4D6BR8l1kxiGkSw/5+ZSqn9Wim7I8PIn/LxWcj09gHSMmyQFXbrkN3Dgc9llLFWtstop6aCKNsyyaHi+3xcvvvosS2rATYKb4w5JWTd6ws/DQDlXrlzOrnT+/Pnt27d3zyeZP3++c50zZ06XzJ2YMmXKiRMnnJf9+vVzSd6VEiVKuF7eh10qAJAsjncfUXD8u+a6gyb8oNaSatVS4cJuZQCAlJVS/XPKbsjw2if8vFbyPj2AdImbJMWFh/uePnhxmcIq6ndJx1Soz2ORY0YVrVGjiLU0hXCT4Oa4Q1KDGz3h52GgXKRIkSNHjphHhcybN8/8F2ktkiIjI+fMmWOW2Wy2okWLWituh2EYrj3rs88+W7VqVZf8Xdm/f7/rZa5cuVwvASB1ihs+quD4Iea6m8Z9q5clFSkilyebAQCpQor0z0rpDRle/oSf1+LfMjziJkkp0dFaFxm3SA2qaoOkf5X3q+ZRs6Y9bK1LBbhJcHPcISnrRk/4eXhE2jnJtdlsDoejYcOG48aNu3LlirPgypUr48aNa9iwoTMil0/dmUWLFu3cudN52bdvX5dkkoMHD9pcrFq1yplaunTpwIEDY2JikqolSf/884/re+VsNlvFihVd8gCQKo0dm2noG+aytz4ar27metMmFSyYVAUASA1SpH9mQwYAwGnyZBXMHT9LjWtqlaRo5QxRZFC3R6x1AHCnPAyU69SpYy7MrRNxcXE9e/bMlSvXs88+Gx4e/uyzz+bKlatnz57Ox/pM4eHhrpe368MPP3SuS5Uq1aBBA5fkLYmLi3v33XcLFy7csWPHWbNm/fnnn7/++usXX3xRqVIl5wvgJIWHh+fLl8/lcwCQ6vzz9lfq2dNcD9TIT9TbXNevr/z5k8oAAKlEivTPbMgAAJiOH1fH9ok/qmUdLZF0XoG1tHTcmgrVq1srAeCOeXjlRc2aNcuWLbtz506bzSbJZrMZhnHp0qUNGzaYBYZhmHFzbbPZypYtW6NGjaQfcZt+/fVX19a2T58+Pj4ept43EhsbO2HChAkTJlgTkqTcuXN/8skn1igApCqTJxcY1sVcDtdb72qguZ40Sc2bJ1UBAFKP+98/K/k2ZIwdO7ZFixZ16tQpXbr05cuXN2/e/M4777AhAwDSkB++t090tG2s2ZIuKVNdLXywUaXnn7eWAcDd8DBQljR69GjnPgu59L6ul65Z16ft7oBrN5wvX762bdu6JG9VlixZfHx8HI4bnltapkyZH3/88eGHU+P7gwDAFPfdtIyvtPeRIWmU+g7VMDM+ZoxeesmtEgCQqtzn/pkNGQAA09tDjQeGd2mtHyTFyz9Cc7dle35Zf2sZANwlz71mWFjYgAEDnB2wyXaNa1DSwIEDQ0JCLMFbd/jw4RkzZjgvu3fvnjFjRpf8rQoNDT1y5Mj48eNbtmxZvnz5HDly+Pr6Zs6cuXjx4k2bNv3hhx+2bt1aoUIF68cAINWInTInQ/vWNodD0lj1eEMfSDZJlSurTRtrMQAgVbmf/bOSdUOGNeqiTJkyK1asYEMGAKRaF2ONPCN7ddQESQnya6oZR0qHHjump5+2VgLAXfK8Q1nSiBEjsmfPPmjQoMTExP82wZIMw/D19f3f//53l8dJFylSJCEhwRq9gWLFilnadFeFChXq0qVLly5XHxUHgLRk0aJM7Zr7yi7pa3V4TZ+a0+S9e1WihK73NQwASF3uW/+cvBsy5s2bt2bNmh07dhw5cuTChQsBAQH58+d/8sknGzdu3LRp0+ue8Q0ASA0OHjC21BrYwz5Gkl0+rTV1gep/3VdZs1orAeDu3dJAWVK/fv0aNmw4fPjwBQsWWA7ryJ49e7169d56661SpUq5xgEAdyB2blRAk8YZ7AmSJqtNF31hyEdSzZp66CFrMQAg1bo//TMbMgAAcXGaVmFk/9j3zMuXNXG6mvfqpTt6ZAUAPLvVgbKkkiVLfv/993a7fdu2bcePHz937lyOHDkKFixYoUIFX19fazUA4A6sXevXpEEGe7ykn9XsZU10yFdS06a6uxdsAgBSAP0zAOA+ONTr4/6xb5nrbho3WW1r1NDHH7sXAUDyuY2BssnX1/eJJ5544oknrAkAwF3auNEID89ovyRpjiJaa6pdfpImTeIUPgBIw+ifAQD3zt99v3zkqz7muq9GjVc3SS1butUAQPK67YEyAOCe+O23+Jq1AuJiJS1W7Rc0LVEZJOXNq3r1rLUAAAAAYP/u+4dGdzXXQ/X2aPWVNGOGmjRxKwOA5HWzo5wBAPfJjh2O0LCAuBhJUQpqrFlXFCDpo4+0ZYty5bKWAwAAAPBy8VNn2F5u5yND0vt6Y7iGSBo5kmkygHvuNnYob9q0adOmTYcOHYqJiUlMTLSmXdhstm+++cYaBQBc119/2WsG+0afkbRWzzXQvMvKJKl2bfXuba0FAKQh9M8AgHvkyBcLC3Rt6SOHpLHq8abek2wlSqh9e2slACS7Wxooz5o1680339y3b581cT2GYdAQA8Ct2rfv8nPBGc/8K2mjKtfVwkvKIilnTg0daq0FAKQV9M8AgHsoKqpAjyYZlChpotq/pk8lm82mP/9UxozWWgBIdp4HyiNHjhwyZIgkwzCsOQDA3Th0SEFBGc/8I+l3PV5bSy4om6THH9fGjfL3t5YDANIE+mcAwL1zZt4vgU0b+NvjJf2oFh31tSEfSa+/zjQZwH3iYaC8adOmIUOGmJsmbDabNX099M0AcEuOHXPUDPY5fFjSDpUN1fJzymlmunVjmgwAaRX9MwDg3kncsMW/Ubi/45KkOYp4SZMd8pXUvLkGDbIWA8A94mGgPHbsWLMb1rVn8awVAIA7cPKkgoN9DuyTtFulQhR5Rnkk+fqqf39efAYAaRj9MwDgXtm+3ahVK9BxXtJShb2gaYnKIGnHDpUta60FgHvHw0B53bp1rt0wuycAIBmcPq2QEO3eLWmfSgRpxUkVkOTrq/PnlTmztRwAkIbQPwMA7oWzG3bbaoTkiI+WtFrVGmn2FQVIKldOZcpYiwHgnvIwUD5x4oRzbRhG9erVmzVrVrhw4cyZM/v5+bHhAgBu27lzCgvTjh2SDuvBIK34Rw+YmRdeYJoMAGke/TMAIPkdOKCQ4BzxV4/yrqcFccosadgwde4s/t8C4D7zMFDOkiXLlStXzO0V4eHh8+fPt1YAAG7dhQuqXVu//y7pHxUM0orDKmpmvvlGL77oVgsASIvonwEAySvu76O2GsE5Lx6TtFWP1daSWAVK6t9fQ4ZYiwHgPvCxBtwVL17cue7SpYtLBgBwmy5eVN262rhR0r/KG6yofXrYzAQF6eWXOYgPANID+mcAQDLaterk0UdDMv5zQNIuPRKmZeZR3oUKqVMnazEA3B8eBsoNGjRwvvfNx8dDMQDghuLiFBGhtWslnVGuEEX+pUfNTGCghg51qwUApF30zwCAZBMdnbVxaEn7bkl79VCwok4pn6Qff9Tu3SpRwloOAPeHhx63U6dO2bJlM9/1tnDhQmsaAHArrlxR06aKipJ0TtnDtGy7KpiZhx/WyZOqVs2tHACQdtE/AwDu3r59+mDw+cNlaz94drukw3owWFHHVUhS8eJ64QVlzWr9CADcNx4Gyvnz5x89erRhGIZhfPnll9OmTbNWAABuLiFBLVpo0SJJF5S1jhb/piedyV69lClTUi0AIK2jfwYA3KXoaNWodLHqyLpFTmyWdFwFghVlHr7y+OOaMoVT+ACkMA+H8h0+fDg0NLRDhw4TJkyw2+2tWrWaOHFiy5YtK1SokDNnTl9fX+sHrilSpIg1BABeyG5XmzaaPVvSJWWqq4UbVNWZfP11XnwGAOkN/TMA4C4tmXN54tmGz2udpNPKHaLIvSop6cABFStmqQWAFOBhoFysWDHzeT1JNpvNMIzIyMjIyEj3KiubzZaYmGiNAoC3cTj08suaNk1Sgk9AA8e8tUp6t8Xnn6tr16RaAED6QP8MALgz8fHq21dRSxLe29s8VJG69rq8nSor6amnVLSo9SMAkCI8DJQlOQ8V0bWe2CUJALgBw1DXrpo8WdIVZWjkmBmlEGcyWzZFRCTVAgDSE/pnAMAdGDtW4z9L/EGtG2i+pFhlqaPFv6tiu3YqUkSvvsqbLgCkFp4HyuYOC/M1cM7Lm6BjBgAZhnr10ldfSUqU7wuatkh1ncnKlfX99ypUKKkcAJCe0D8DAG5LTIz27tXHox3f6JXmmi4pThnra/4GVf3yS96SByDV8TxQNnnsgwEAVxmG3nxTY8ZIcth8XjSmzFEj1/xPP6l4cdcAACAdon8GANyKmTPVsqUSEozP1b2trj7g2FizVqnmI4+oWTNrPQCkuFsaKLNpAgBuw7Bh+uADc9nemDhNLVyT3boxTQaA9I/+GQBwiwYMUEKCMUr9uuoLSYnybaGfnhhQ581aqlxZmTJZ6wEgxXkYKFerVo29FQBwG957T8OGmcvO+mKy2jozBQtqwwYVKeIMAADSIfpnAMAt2rFDP/ygv//W23q7r0ZLcsjWVpOWZm48aYACA631AJBKeBgor1q1yhoCANzIJ59owABz+Zo++UqdXZN9+zJNBoD0j/4ZAHAr9uxR5cqKi1M/fTBUw81gZ325oUTr795jmgwgVfMwUAYA3KovvlDv3uayv94bo9dckz16qHt31wAAAAAA7/Xzz4qLU3d99oH6m5G3sn36dUxH9yoASI0YKANAcvj2W3Xtai5H+A79wH61KTR9+ql69nQNAAAAAPBS27apb18tX672mviZXjWDA/S/i235nQFA2sBAGQDu2o8/6pVXzOV76v+WfahrMksWRUS4BgAAAAB4KcNQ06b6+2+9oJ8mqIMZHKFBeUcPGH51tgwAqR0DZQC4O7NmqU0bGYakT/TaAL0rJZ3F9NZbeuEFFS2aVA4AAADAa/36q/7+Ww00d4pe9JEh6WP1qrLsnZBQayUApFq3MVBetWrV0qVLf/vtt9OnT8fExDgcDmvFNTabbd++fdYoAKQ/CxeqRQvZ7ZJ+yt65d8zHrtPkqlU1/OrpGgAAb0T/DABw1bWrvvhCYVr6s5r7yS7pS3WaUfWjV2sm/RIBAKnfLQ2Ud+/e/eKLL/7222/mpWEY7nkrm42vQgBeYPlyNWmihARJU/zavRTzues0OWNGDRmSVAsA8Cr0zwAAi7/+0hdfqJpWz1ajAF2R9L1efHTl+JXP2PxuRtYnSAAAIABJREFUaTYDAKmF5y+tXbt2PfvsszExMa598E1aXo/tMgCkB6tXKyJC8fGS1hVu0fboBEM+zuRrr+ntt5UjR1I5AMB70D8DACwuX1bPnnpaGxaoXmbFSZqhJute/rZNjaRfIgAgrfA8UG7Xrt25c+dsNttNmmAA8C7r16tePcXFSdpXoVHNbZMd8nUmfXz0+utMkwHAe9E/AwAsWrTQv8u3rlSdQMVKWqjwr6r/8N07nmcyAJAKefjyWr9+/ebNm11b4RvtszAMg44ZgFf49VfVrq3YWEnbCoc/te2nRGVwzX/3nR580DUAAPAi9M8AAIszZ7Rn7s7VCs2pc5KiFLS0w4xlX/tb6wAgjfAwUJ45c6a5uO6DeM6guf/iujUAkK5s26awMJ0/L8kICQlaPzNBbo3gyZPKl881AADwLvTPAABXJ06oZaW9kQrJq9OSftEzEZo7q1kmax0ApB0eXtbjPEhEUrFixU6ePKlrGytsNpvD4Th+/Pi4ceNy5MhhGEa2bNkWLFjgcDjsdrvzUwCQfuzapZAQRUdL2l/4+Vyr55y5mNE1HxzMNBkAvB39MwDA1cAXD393NLiQjkvaoifDtWjK7KxhYdYyAEhDPAyU9+7da26dsNlsL730Ut68eS0F+fPn79q169q1awMDAy9cuBAREeHclAEA6crevQoO1qlTkk6XrPLY0YXnErK45j/4QLNnuwYAAN6I/hkA4HR+9/EBUcFFdVjSdpWrpaU1GmRv2NBaBgBpi4eBckxMjHNdrlw5l4ybMmXKvPrqq4Zh2O32Dh06HD161FoBAGnawYMKCtLx45Liy1Vs4Lc4VoGu+YoV1a+fAt1iAABvRP8MADB9OfL0kUdCSmqvpN0qFarl0crdq5e1DADSHA8D5YsXLzrXuXPnlvtBIpcvX3auq1evbmbPnz//9ddfO+MAkOYdPaqgIB05IulkvvKFdixbvyuHaz5DBg0d6hoAAHgv+mcAgKSLx849/VZYWe2UdFBFQxR5UgUOHlTNmtZKAEhzPAyUAwICnGt/f39JWbIkPeJ95MgR59rZHBuGMX/+fGccANK2EycUHKwDByTZSz3y1Nnl0crtmu/cWf/8owYNXGMAAO9F/wwAOHUg9sST4Y8bv0s6pkJBWnFUDz77rIoWtVYCQFrkYaAc6PL8dnx8vKRs2bI5I9OnT3euFy9e7Fy7NsoAkIadPq2QEO3ZIymh6EMdikUdTchvKenfX3nyWGIAAO9F/wwAXi7+XNy+MvUfOrle0r/KG6yoAypRtqzGjrVWAkAa5WcNuCtYsOCpU6fMtfn4XokSJf755x/zpJFhw4Y5HI6KFSuuXLnyq6++cj7NFxsb6/wJAJBWnT2r0FD9+ackR5GiVS6u+G1ZIdd86dLq21fFi7vGAADejv4ZALxafPz50MZVLq+SFK2coVq+W49Uq6bVq62FAJB2eRgoFy1a9I8//jDXJ06ckFSuXLl169aZkYSEhKHX3htqnmRtrvPnt+7gA4A05vx51a6trVslqVChlYOifutcxDUfHKzISNcAAAAS/TMAeLPExHPhLfNuWSLpvAJra8k2PSapYUNrIQCkaR5eeVGmTBldO0hk9+7dksLDw51Zc5+FyawxF+YBIwCQVsXGKjxcmzZJUv78G/63IqTzQ5aSFi0sAQAAJPpnAPBadrvjpbY5VsyWdEmZ6mrhZlWW9Nlneu01ay0ApGkeBspPPPGEc71582ZJtWrVKlGihK51ybZrnGWSXn31VddLAEhL4uLUoIF++UWScue+siiy3uulLSU//6wOHSwxAAAk+mcA8E6GoS5dfH78QVK8/CM0d52elzRihLp3l4+H0QsApDEevtWeffZZSeYeit9//90wjAwZMowdO9bnxl+HAwcOfOqpp6xRAEgT4uPVqJFWrpSkHDkcS5bN+KvcmTNuJR98oGbN3CIAADjRPwOA1zEM9eqlCRMkJcivqWZEKlRS/vxq08ZaCwDpwA37WlOhQoUuX74cFxcXFxd36tQpcydFnTp1fv7553z58l19Wu+aLFmyjB49+p133rH+FABIExIS1Ly5li6VpMBA+8Il4YMrtm7tVvLww3rpJbcIAACu6J8BwOsMGqQxYyTZ5dNaUxeovhnesUNF3M5hAYB0wsOhfJL8/f2tIalRo0a1atVasmTJli1bzpw5kzVr1vLlyzdo0CBXrlzWUgBIExIT1bq15s2TpMyZtWjRqrinzdmyU0CAtm9XxoxuQQAALOifAcCLjBypd981ly9r4nQ1N9e9eilPnqQqAEhPPA+UbyRz5syNGzdu3LixNQEAaY7drvbtNX26JGXMqPnzzzz63EsVrFX9+jFNBgDcOfpnAEhvPvlEgweby24aN1ltzXWlSurfP6kKANIZDwPlNWvWONdPPPFEYGCgSxIA0gWHQ126aMoUScqQQbNnGzWDgp/QP/+4VbVooX793CIAAPwX/TMAeIuvvlLv3uayr0aNVzdznSePNm1KqgKA9MfDQLlGjRrOE6jXrl37zDPPuOeT7Nixo2fPnubaZrNFRUW55wEgVTIMvfaaeYCG/Pw0fbpq196xXX/84VY1bJiGDHGLAABwXfTPAOAN4id8n6FzF/NYqqF6e7T6OlNNmjiXAJA+eRgomwzDcLbFNxITE7Nq1SqbzXYrxQCQKhiG3nhDn30mST4+mjpVERE7dqiC+8su/PzUqJFbBACAm7uVlpj+GQDSqhkzMnRq5yND0gfqN1xX954884xCQvTmm261AJD+3NJAGQDSp6FD9eGHkmSz6bvv1Ly5pJYtLUVavVrly1uDAAAAALyQsWChWrb0MRySPlP3/npfsknKm1fr1ok/HwTgDcznM5LBlStXrCEASM1GjtQ771xdf/ml2rRJSNCqVdqxw62qWzfd+GFlAADuHP0zAKQ5/3wfdaVBE1tioqRv1a6nxpjTZEmvv840GYC3SLYdyn///bc1BACp1kcfOY9j1pgx6tjx2DFVr659+9yqsmdX9+5uEQAAkgv9MwCkMb/8kvvlBgFGvKSf9EIHTTDkI+l//1NwsCpXtpYDQHplHShv2LAhICDAz8/P19fX19fXNfX7778nJia6Rkx2u33fvn0jRoxwRiwfBIDUZdw4vf761fWoUXr1VUlff22dJks6dEjZs1uDAAC4WrNmjTV0Df0zAKQb+6ZtKdwuPCDxkqQ5imij7x3ylVS4sN58k73JALyLdaDctGlTy5EghmGYf3UeQn1drmeJZGcAAyDV+uYb9ehxdT18uPr2NQzNm6dhw9yqJL34ItNkAIBnNWrUoH8GgPTtt0nbi7arFaDzkpYq7AVNS1QGSfnz66uvmCYD8DrWgbLJbIJvJWhhtsWlSpWyJgAgNZg6VR07Xl0PHGi+9WLcOHOPspuQEL33njUIAMCNXLdVvm7Qgv4ZAFK7PXse6hKaXdGSVqtaI82+ogBJ27apXDmmyQC80fUHys69Eq5NsGXnxU3UqlXLGgKAFDdjhl56SebXWu/eGjHC7P4mT7bUadUqVa9uDQIAcBP0zwCQPh08eLFqcPbLJyVtVOV6WhCnzJLKlGGaDMB7+VgDdy1fvnzdunWzRgEgZc2fr5Yt5XBIUteuGj1602ZbjRoqXlybN7sVFiqkKlXcIgAA3FP0zwCQSh07dvmZoCzRRyVt1WO1tSRWgZI6dtSiRUyTAXiv6+xQvtGjeTeKuypXrtz333+fJ08eawIAUtDSpWraVOaxSC+/rM8+sztsjRvr2DFrYePGGjVKAQHWOAAAN3GjPvlGcVf0zwCQSv37r0JCMh4/IGmXHgnTsnPKKenvv/Xww9ZaAPAq1oFy8+bNfX19fXx8bDabr6/vpEmTbDab+Wa32rVr58uXz1IvydfXN2vWrEWLFq1atWoV9vUBSG1WrVLDhrpyRZJatbo85qvd23127rzONDlLFv30kzJksMYBALiJtm3bul7SPwNAehAdnVAjNMNff0napxIhijylfJLq1WOaDAD/GSh/9NFHGTNm9Pf39/X19ff3nzRpkjM1aNCgZ555xqUWAFK9X35RvXq6fFmSmjTZ3GNSrQd9z561VpkGDGCaDAC4bd9++63rJf0zAKR558+rdu0Mu7ZJOqwHgxX1jx6QVKeOZs601gKAF7IOlP/rVp7UA4DUaPNm1amjixclqX59/fDDyOZ+150mz5unhx/Wo49a4wAA3AH6ZwBIwy5etNeu67t5s6QTyh+iyEMqZmaGDJG/v2spAHgpDwPloUOHOtdFihRxyQBA6rZ1q2rV0oULkhQWdvjDn6d96j93rrVKUq9eql/fGgQA4M7QPwNAGnb5stGwoe/6dZJOK3eIIv9WKTPTs6eeftqtFgC81m0MlAEgzfjzT4WGytyNXKPG+UmzKz+e8eRJa1XmzKpRQ4MGWeMAANwx+mcASKsSEtS8uS0yUtI5ZQ/Tsj9Vzsxs2MA0GQCSeBgoe3T06NGtW7deunTpgQceqFKliq+vr7UCAO6zPXsUEqLTpyXpmWc0f/7ihZn/O00+e1Y5cliDAADca/TPAJAa2e32Vi/6zp8vKVZZ6mjx76poZgoX1pNPutUCgJfzPFDev39/YmKiuc6ePXv+/PnNdXR0dLt27RYuXOiszJ079yeffNKqVStnBADutwMHFBysEyck6amn5ndd9F6trP/3f9aqoCCmyQCAe4X+GQDSGIdDr7ziO+NnSXHKWF/zN6iqmXnxRQ0cKD/PsxMA8CIevhRjYmJKlSrlPFfkww8/7N27tyTDMOrVq7dx40bXI0dOnz7dpk0bm83WsmVLZxAA7p8jRxQUpKNHJalChROTljaqkN1ut1a99Zb69LEGAQBIFvTPAJDGGIZ69NCkSZKuKENjzVqlmmbmtdf0ySdutQAAST7WgLu1a9c6HA7DMMzG94UXXjDjc+fO3bBhgySbO8MwevXqdenSJdcfAgD3w/HjCgrSwYOS9OijxvLI7+bl+u80+bPPNHw425MBAPcK/TMApCWGYfR7Q+PHS0qUbwv9tER1zEyWLGrf3q0WAGDyMFDetGmTJJvNJunRRx8tVKiQGZ8yZYprmavTp0/PnDnTGgWAe+rffxUcrL17Jenhhy/MiXomIu+AAdaqEiV07fd6AADuCfpnAEhLhg2zjf5QkkO2tpo0W43N8NCh2r5djz3mVgsAMHkYKP/xxx+SDMOw2WzVqlVzxlevXm12yWbW9cE9ScuWLXO9BIB7KzpaoaHatUuSihXTihU/riq4YYNbSd68WrZMf/yhPHnc4gAAJC/6ZwBIMz74QMOGmcvO+vIHtTbX+fPrrbdUvHhSIQDAlYeB8oEDB5yNb9myZc3Fvn37zpw5I8kwjFy5ckVGRs6bNy9btmySzKf2/vzzz2s/AADusZgYhYVp2zZJKlz40LcrPpz2YOfO1qr331doqLJmtcYBAEhe9M8AkDZ89pn69zeXr+mTCeporrNl07hx8vVNKgQAWHgYKB87dsy5Llq0qLn466+/zIXNZmvXrl1QUFC9evW6d+/u3Gdx5MgRcwEA99aFC6pTR7/+KkkFCpyYGvVYw+L9+lmr2rVTq1bWIAAA9wL9MwCkARMn6tVXzeVAjRyj18x1p06KjlaTJkmFAID/8rMG3MXGxjrX5h4KSXv27NG15/iefPJJM1ipUiVnpeunAOBeuXRJ9etr/XpJypNHUVHTo0rFxFirfvxRLVpYgwAA3CP0zwCQyl2Z/JPfKx3M7XUjNfBdDXSm2rRhbzIAeOZhoOzKefa02RCbHnroIXORM2dOZ9ButzvXAHBPXL6sRo20erUk5cx55NvIVweWmTvXWpUli0JDrUEAAO4P+mcASHXmzvVt96KPDEmf6LXBGmGGn3tOXbrouefcagEA1+XhlRdZsmRxrv/++29zYZ40YnI2xHFxcc6g66cAIPlduaJmzWSeX5Qtm5YubTzssf9Okzt31po1yp3bGgcA4N6hfwaA1GvpUqN5c1/DLulLdeqtjyWbpEKFtHatWl89kw8A4IGHgXKhQoV07aiQ8ePHHzt2LDIycuPGjeZJI3ny5MmVK5dZefbsWeen8ubN61wDQDJLTFSrVlqwQJKRJcvRrxZtdFTassVa9fPP+uILVaxojQMAcE/RPwNA6nR82pq4Oo1sV65I+l4vdtV4c5osqXt3t0oAwM15eOVF2bJld+7caba/u3fvLlKkiCTz8BCbzVa5cmVnpfM5PpvNVqxYMWccAJKT3a62bTVzpiRHQMbWgQt+avGstUYqW1Z161qDAADcB/TPAJAabdyY88W6GY04STPUpL2+NeQjacgQVa+umjWt5QCAm/CwQzksLMy5Nq4x+2NJderUcWa3bt1q1kgqW7asMw4AycbhUKdO+uEHSfL3/zx0zk8nalhKJC1Zok2blDmzNQ4AwH1A/wwAqc3RBVvjg2pnTIyVtFDhrfSDXX6SihbV228rKEjXvqQBALfEw0C5efPmuXPnlmRzYaayZs3a+tobhhwOx8qVK52pp556ylwAQLIxDPXooYkTJTl8/aY1m/HqglrWGql5c9WqxTQZAJBi6J8BIFXZ+uOugPqhAZfOSYpSUFPNSJC/pMBAjRnDKBkA7oSHgXJgYOD48eMtQXMbxccff5w9e3YzEhUVFRMT4yyoXr26cw0AycAw9PrrGj9eksPm09z+Y4up9S0lNpsqV9a771rCAADcV/TPAJCK7NtX9JXgvDot6Rc9E6G5l5VJ0vr1io5WgwbWcgDArfAwUJbUtGnT5cuXV6lSRdda4SeeeGLmzJkvv/yys2bFihWlS5cuVapU6dKlg4ODCxcu7EwBwN0yDA0apI8/lmTYbK/4TZ6pppaS7duVmKiNG1WihCUDAMD9Rv8MACnOMDRt1OF/ywfnjDsu6VdVDNeii8oqqUwZPf20/DwcKQUAuKFb+gYNCgoKCgqKj4+Pjo7Onj175v88TP7uu+++y7ZAAPfIiBHOjcd9Aid8d/7qw8JOpUqpTBn5eP4DMgAA7hP6ZwBIWQu+Pl7xjeB8OiRph8rW0tLzyi6pRQu98w5vugCAu3JLA2VTQEBAwYIFrVEAuKdGjdKQIeaym8aNP5+0t0tSw4Z68EH17cs0GQCQGtE/A0CKcPx7+vF+IQ9qr6Q9KhmiyDPKI2nfPp5oBIBkcBsDZQC438aO1RtvmMvPHxo9fl8312Tlypo92zUAAAAAwNt9P/Zchd5hj9l3SjqoosGKOqkCkkJDmSYDQPJgUx+A1Orrr9Wzp7kcqJHd9/VxTfr46PXXXQMAAAAAvF3MsdiSr4U/Zv9d0jEVClbUUT34/PP64QfNnWstBgDcmaQdyvPnz/f39/f39/fz8wsPD8+fP7+kyZMnJ9XejpdeeskaAoBb9/336tzZXL6jwe9qoGuyaVONGKHSpV1jAADcb66tcnh4eJ48eSzB20L/DAB3ybgUF1OjQRVjvaR/lTdYUfv1kKQpU1SkiLUYAHDHkgbKgwcPtl17L33p0qXNgXK7du2cwdtCQwzgzv38s9Gunc0wJI1S3yEa7pq02fThhypa1DUGAEAKcG2V165daw6U6Z8BIGXEx+99vEnJvSslRStnqJbv1iM+PhowgGkyACQz6zuUDcP4bwdsGIYlcnP//QkAcKvmzDFatbI5HJLGqscb+kBK+krJnl2DBzNNBgCkIvTPAJDyEhONlq1K/r1Y0nkF1taSbXqsTBlt2KDAQGstAOAuWQfK13VbDe7tds8AkGTxYjVvbrPbJX2tDq/pU9dp8nffqU0b+fDudwBAqkf/DAD3j93ueKmdz+xZki4pU10t3KzKkjp2ZJoMAPcEgxkAqUXsvKgr9RsrIUHSZLXpoi8Ml++oTJlUty7TZAAAAAAuDENdu/r8OFVSvPwjNHednpc0eLB69LDWAgCShdsO5etujrhuEACS2dq1GZo08LdflvSzmr2siQ75mpl69ZQrl7p1U548bp8AACDFXbdVvm4QAJD8DEO9eunrryUlyK+ZpkcqVFL58nrnHWstACC5JA2Uu3Tp4u/v7+fn5+fn9+CDD5rBoUOHOgsA4B5xrN+o8LoBiZckzVFEa021X/t26tRJX37pVgwAQCrh2ioXuXbkE/0zANw/gwZpzBhJdvm8qCnz1cAMd+rkVgUASF5JA+WuXbtmyZIlY8aMGTNm9Pf3N4M0xADutT3Tfs/XsnYO44Kkxar9gqYlKoOZypJFnTu7FQMAkHpct1W+bhAAkPxGjtS775rLV/TNz3rBXE+Zotatk6oAAMnulg7lA4B7ZceOAi+F/j97dx5nY/n/cfx9ZpgxjH0vREmI6svXWigzg7Hve5Yo+059RdZQ9pAQoUhiLCODGWMvRfQjopKILGMZxmDWc//+OOPMObc1DXNmzuv5h8d1fz6fex7m0d24zmeu67qzGVckbdFrTbUqTt6SPv5YOXPqlVd0a78EAAAAANwyfbqGD7cNe+rjxepkGxcooLZt7UUAgEeChjKAVGP95Wj8K37Z4i5J2qWXG2hdjHwkPf+8evY0FwMAAACAJM2bpwEDbMPBmvSJkj88TJ0qi8V+BQB4JGgoA0glf/wRVdEvx/UIST+oYl2F3FAWSUWKaPZscy0AAAAASNKSJere3TYcZRk1xRhsz2zZotdes18BAB6V+zeUjx07FhISEh4e/vvvv1+8eDEqKip79ux58uR59tln/fz8AgMDixcvbr4HAO7t5EmjZs0c189I+kkv1dHGa8om6cwZFSjAmgIAQNrG/BkAHpWgIHXsKMOQtDDvkNEXRtgz2bKpcuXkQgDAo3OvhvIvv/wyduzYVatWGYYhyfanpAsXLly4cOHo0aPr1q0bMGBAs2bNRo4cWbp0aaebAeBu/v5bfn6Wv/6SdEjPByjsinJKqlZNBQuaawEASEN++eWXUaNGMX8GgEciJERt2shqlTQvY69uFz6UkpeibNggH5/kWgDAo+NhDtzy+eefV6xYMSgoyGq1GoZhGIbFgSRb0Gq1rly5snz58osWLTJ/CQC43fnz8vfXH39I+lUl/LX5kvJI6t1bK1eaawEASEMWLlxYvnx55s8A8Ehs2aKmTRUfL+nka526x89w7CYHBqpq1eRaAMAjdeeG8tixY3v27BkbG+s4D3YscJgbWwzDiI2N7dKly4gRyZtNAOAOLl1SQICOHpV0XMX8FH5eBSRVqqSZM5Uvn7kcAIC04r333uvatSvzZwB4JL77Tg0bKjZW0p6nWz29db7h3M3o3NnxCgDwaN2hobxkyZJJkybZp8Jy2KxnYovbp8Xjxo1bvHixuQgAbK5cUa1a+vlnSX+pcE1t+VuFbJl+/ZwKAQBIWxYsWDBu3DjmzwDwSOzbp8BAXb8u6XT5hi8f/8IqT8f8jh1q0cIxAAB4tMwN5bNnzw4fPtw0FbaPHTnGbWPDMPr27Xv27FnHLwgAknTtmgIDtX+/pDMqWFNbTqqoLfPmm2rTxrEUAIC05PTp0wMGDGD+DACPxKFDqlVLUVGSYqsH+F9cnqCMjvkZM1StmmMAAPDImV/KN2PGjOjoaNvsVremuZKeeuqpSpUqFShQIGvWrFFRUWfPnv3+++9Pnz5tr7FNjqOjoydMmDBjxgznrwrAvV2/rnr19P33kq545fWLC/9DyW+3f+ON5EIAANKc8ePHM38GgEfit9/k76/LlyVde6naM/vWXLieyTFfoYLat3cMAAAeB6eGckxMzOrVq21TW/vqiSZNmrz33nsvvfSSY6XN999/P3bs2A0bNthvMQzj888/nzRpkre3t7kagHu6eVONGmnnTklRGXNVj9t8VKXsyb59ValSci0AAGnLzZs3lyxZwvwZAFLeiRPy89P585JUseKgYt9c+L/MjvkRIzRqlCwWxxgA4HFwOvJi9+7d0dHRtrFtYcWMGTOCgoLuOBuWVLly5fXr10+cONFWbHPt2rWtW7c6VAFwY3Fxat5c4eGSrFmzvxYf+rNesCf79tVHHzEFBACkYVu3bmX+DAAp7++/VbOmTp+WZC37wozADZ8uz+aYt1jUqRMfJQAgdTg1lH/66SfbwLYFr3///r1793YsuKPBgwf36tXLcU68e/duhzwAdxUfr9atFRIiyZrFt6nPhv0q75hv3NjxCgCAtMc+72X+DAApJiJC/v76809JKllyWIWwfqNzmUq++krFipliAIDHxKmhfPz4cfs4e/bsw4cPd0jey9ixY7NlS/5t4a+//uqQBOCWEhPVoYNWr5YkH5+BJdavjajimF+6VK+95hgAACDtcZz3Zs+efeTIkQ7Je2H+DAB3dvmyAgJ09KgkPf20Nm/+fGM+U8mff6plS1MMAPD4ODWUz5w5o1vLK+rWres4x723HDlyNGzY0HajYRgnTpwwVwBwK1arunTRV19JMry9I+YHf/RTdcd8u3Zq29YxAABAmnTy5Endmj83aNCA+TMA/CtRUapTRwcPSjIKFx5XM9yn+JNnzjiVvPqqihZ1igAAHjOnhvLly5dtrweRVLVqVcfUfVWrVs0+vnjxokMGgJsxDPXsqcWLJVkzZHzdJyh/O39TSbdupgAAAGnSxYsX7fNnx/nwg2D+DABOrl9X/frau1eS8uffNXLz8PlFY2KcSqZO1bp1ThEAwOOXwfHi6tWr9nHBggUdMvf3xBNP2MeRkZEOGQDuxDA0YIDmzpUkT8+3C3+19M96ppLfftOzz5piAACkSY7zXubPAPDwYmLUpIl27pSk3LmPz9vcd2QJU8mzz2rAAFMMAJAKnFYoJyQk2Mc5cuRwyNxf9uzZ7eMY0+8QAbgJw9DQofroI0mGxbKl8xdT/mxqKgkMpJsMAEg/YmNj7WPmzwDwkOLj1bKlwsIkKVu2L9pveqZRmf/7P6cSLy998IFTBACQWpwayvHx8faxfe/eA3Ksd/w6ANzImDH68EPbsE/mz/zmt3FOq1gxTZgGinFlAAAgAElEQVRgigEAkIYxfwaAfysxUe3bJ51kkSWLdf2GvovLm0o6d9alS2pqXqwCAEgdTkdeJCQk2Oe1oaGhf/75p6enp2PBPfz+++/2cWJiokPm/hYtWtS5c2dz9E4WLlzYqVMnc/QuoqOj586dGxwcfPTo0cjIyJw5c5YsWbJhw4bdu3fPkiWLuRrAv/TBBxo1yjbc2GTOx6s7OSYlXbqknDn1Dz9rAwDg0hznzxs2bDh27Jhz/l7+zfwZANIJ29u8v/5akry9z38aPGhO1StXzFX9+snX1xwEAKQWp4aynWEYH95aZphG7d69u1mzZmfPnrVHIiIiIiIiduzYMXXq1KCgoMqVKzuUA/h3pk/X0KG24eb60wNXm1+617atcuUyxQAASD8Mwxg/frw5CgC4B8NQ7962t3krY8bEFauq9q95/LhTyUsvqVcvvfiiUxAAkLqcjrxwZPxz5i/xCOTLl88cupNDhw7VqlXLsZvs6MyZMwEBAYcOHTInADycOXPsb8fYWe+DgG/6OafVt69mzzbFAABIb8yT4wdg/hIPbNGiRZYHs2jRIvPNdxcdHT1lypQaNWrkz5/fy8srf/78NWrUmDJlyvXr182lAPAvGYbefluffCJJHh5atuyngnVN3eQyZfTTT+ra1SkIAEh1d16hrH9+Bpykh54TN2/e/NVXXzVHJUmNGjU6ePCgbVy8ePE6deo45+/sjTfeiI6Oto1z5sw5a9ascuXK7du3r3fv3leuXJEUHR3dpUuXH374wek2AA9h0SL16GEbJg4f2T/kHee0vvlG9eqZYgAApEOPc/78KLDDD8BjNXq0Jk+WJIvFWLR43JFm7zU3l3TsaI4AAFzBHRrKDzEVtnnoG319fX3vdB7SDz/8YO8mSxo4cKCHx12XVNvt2LFj79699sspU6a0bdtWUsmSJW/cuPHWW2/Z4nv27Nm5c2e1atXslQD+sWXL1KWLbbiz6jsBE0fGxjnln3tO/v5OEQAA0p+HngY/9I0P7h/t8LOvyTCx7fDbvXt3mTJlzDkAeAiTJmn06KTx3Lk/PNv+vQ5OeUlBQWrSxBwEALiC+/dnU9GkSZPs4zx58jzg6/hWrFhhH1sslmbNmtkvW7Ro4Thrd6wE8I+tWqXXX5fVKiny9b7Vv5sQG+f0qXjgQH3/vby9HWMAACAFNG/e/M+7eOGFF+xlD73Db+nSpUeOHFmyZEmOHDlsQdsOv+QbAOChffyx3n47aTx9+rXWb44b55SXNGiQmjblhd4A4KKcVig/+eSTtn6rh4fHY1gucW/Hjx9fvXq1/bJXr14+Pj4O+btyXJ5cuHDhbNmy2S9z5Mjx5JNPnj592nbpWAngH7GEhKh1ayUmSrK+1a3fjemS0w+NzJk1ZoyyZHGMAQCQ3hQpUiRVps3s8AOQVi1cqN69k8bjxp1s3O/lUvr7b6eSIkWSSwAALsipobx9+/ZMmTJlypTJy8vL09PT9qdjweM0depUq9VqG/v4+PTq1cs5f1d//vmnfXz7Fr98+fLZG8qOlQAeXN4DBzzHj1d8vCR17NgxevaSL50+S/v4aNo0uskAgPTvxIkT5lCqehQ7/Lp162Y/63nFihU0lAE8vOXLk1+x9+67evfdBSPM3eRmzbRsmTJmdAoCAFzKHc5QdgWXL19euHCh/bJjx4558+Z1yN/L1atX7ePbFzVnzpzZPra9oO92sbGxsbGxtnFUVJSk+Pj4eFvvLF2zfY/u8J3i30jcurXiuHGWuDhJ1pYtz42ds6SI09KnRo2sS5cmenklNZzhnvh5ggfBc4L7StmHxDCMlPpSrokdfgBcWnCw2re3nZinfv2Mse9/vlhjx5qr+vShmwwArs5FG8qffPLJjRs3bGMPD4+BAwc65x/U7S/Ovj1yuwkTJoy2vx9AkhQaGurYiU7fwsLCzCHglpxHj1YdNSpDXJykM5UrL3mh+8T/mP+fev75vZs3nzMF4Z74eYIHwXOC+0qph8QwjOvXr5uj6Ugq7vBz2wUZbitlf9mDdMn0kFjCwjxbtLAkJEiydumSOHHiR1OtQ4aYt0R/8EFilSpWniw3wU8S3BtPiCu424IMV2wox8bGzpo1y37ZqFGjZ5991iF/H9mzZ4+IiLCNb9686Zx0itjfMWIydOhQews7KiqqcOHCtWrVclypkV7Fx8eHhYUFBARk5DfCuKP9+zN06GCJiZGUWLu28UnQiFKZY2OdDruYNSvxzTfLpcZhknAt/DzBg+A5wX2l7ENiGMbdNqilA6m7w8/NF2S4rZT6ZQ/SMdtDkvvw4cqjR9v2OJ6qUWN/3brasGH+/GpSLsfi99/fVbLkpQ0bHGNI//hJgnvjCUldd1uQ4YoN5SVLlpw7l7y8cciQIQ7J+ytWrJi9oWwf2J0/f94+LlasmEMmmbe3t7e3t2MkY8aMKfIxJk1wq28W/8DBg6pbV1FRkiJefDHnihXb12W5tRQpSZMm6tXLUzIvNIDb4ucJHgTPCe4rpR4SwzBS5Ou4ptTd4ee2CzLcVsr+sgfpkv0h8frpJ88JE5JOzGvc2OeTL5f08d62zXLxotMilGLFjAEDKvFAuRV+kuDeeEJcwd0WZLhcQ9kwjKlTp9ovX3755SpVqjjk769ChQo//PCDbXz69OmrV69mz57ddhkZGfm3w4H/FSpUsI8B3MuRI/L31+XLkqyvvLKnd++/v/Tp3t2pxNNTt14CDwAAHqtU3+Hn5gsy3Bb/lXFfGQ8fzlC/vqKjJSkw0GP58mmjvVauNJd17qxx4yyZM/M4uSN+kuDeeEJS190WZDi9SssVhISE/PLLL/bLwYMHOySTnThxwuJg27Zt9lSLFi3sY8MwVjr8Y/X111/bx3KuBHBXx47Jz08XLkhS5cqJa9dGJfr2729ehrxvn+rUMcUAAMDj8O93+NnHD7fDDwBu53vqVIa6dWVb2vbaa9YVQQeOeI0ff1uZr+bMUcGC5jgAwGW5XEN58uTJ9nGJEiUaNmzokHwg1atXd1x6PGTIkKVLl/76669Lly5955137PGKFStWq1bNfgngzk6cUM2aOntWksqVu7x0w8pN2RYuLBMT47RDbf58vfiiYwAAADwmKbLDzz627fCzX7LDD8BD+uOPl0eMsFy8KElVqxprg1t29HnpJXOVpNGj5eVlDgIAXJlrNZT37dvnuNZ44MCBHh4P8zf87LPPsmTJYhtHRka2b9++ZMmS7du3t0+OfX19FyxYkHwDgDs6fVp+fjp1SpLKlo1YEvpC9Rxt22bYvPkpx6qAALVu7RgAAACPDzv8ALicv/7KUKdOpshISSpXTiEhB4/7BgWZq2bP1t9/62GPfAcApJqHadc+Oo7Lk/Ply9exY0eH5D9QpkyZsLCwgnfZM1OwYMHQ0NAyZcqYEwAcnTsnPz8dPy5JJUsqLOzr8NwOS5SSVKmi0FDd+g0OAAB43NjhB8C1nDsnf3/LyZOSjNKljY2bFq/JXr26uSpPHnXpoieeMMcBAK7PhV7K99dffzmuhujVq1emTJkc8v9MlSpVfvvttzlz5gQHBx85cuTKlSs5cuQoVapUw4YNu3fv7uvra74BgKOLF+Xvr99+k3Qp5zMDn9x88Y38ISHmKom1yQAApKYU3OFXuXLl69ev69YOP1MBO/wAPBDb54jff5cU/cQT3hs3Tp6f5913zVUVKujDDznpAgDSKhdqKBcpUiQ+Pt4cvYuiRYsahmGOOvP19R08ePDdNv0BuKvISAUE6PBhSRd9nyoXueVU+JPmGunll1Wrlnr1MscBAMBjk7I7/Jo1a3bW9uIEZwULFgwKCmKHH4D7uHJFtWvbPkcYTz317fDhNQsU+Oorc1WfPpoxwxwEAKQhLtRQBuASoqJUp47+7/8kGQWfCIgOP6Ui5hpp6dKEtm35AQIAQGpihx8AFxIdrbp1tX+/JD3xRMLGjb9sODuquufBg05VHh5q2dIpAgBIc+gHAXBgmwXu2SPpnPLXOLvlNz1jrpHy5LkRGJjRHAUAAI8XO/wAuIqbN9WwoXbvlqS8ebV5s555Zvr0J/76y+kQntat1bOnXnnFMQYASHtoKAO4xTYL/PZbSReV21+bf9NzjvlRo+Tjo2zZEnx8tvv6+jumAAAAALip2Fg1a6atWyUpRw6FhcUUK7UlLOGvv7I5VuXIoaVL9VDHvAMAXAsNZQCSpNhYNW1qmwVGKkcthR6W0zmJpUpp5EhJio83QkLiHFMAAAAA3FRCgtq21YYNkuTrq40bz+R98ZXS+vNPc7dhzBi6yQCQTph/xANwR/HxatVKGzdKilLWOtr4k8o55rNm1ZQpjgEAAAAAbi8xUZ06adUqSfLx0fr1qlRpwVj9+ae58NQpFSpkDgIA0igayoDbS0hQu3Zau1ZSjGfmeonr96iSPTlliho3VuHCysiZyQAAAADsDEM9emjpUkny8tLatape/cgRjRhhLmzfnm4yAKQrNJQB92a16o03tGKFpMSM3vXig3epmj3p5aUOHZQnT3I5AAAAAMgwNGCAPv1UkjJk0IoVCgg4d06VkpemJKlfXxMnmoMAgDSNhjLgxqxWdeumL76QZM2QsX786i3ysydz59ayZXSTAQAAANxm+HB99JEkeXhoyRI1bCjpm2907ZpT1YYNCXXq0HYAgPSGn+yAuzIM9eun+fMlKUOGmdVWbNwaaE9aLPrjD2XPbg8AAAAAgCRp/HiNH580XrBArVotWqTJk3X4sFNVrlw3X36ZngMApEP8cAfckmHo7bc1a5Ykw8Nj2FNLJ2xt5Jhv3ZpuMgAAAIDbTJ+uYcOSxh9/rE6djh9X585OJTYTJuzMlOk1cxQAkPbRUAbc0siRmjxZkiyW2RUWTfihpWOyRQstXuwYAAAAAADp0081YEDSeOLEuK49D+3XvHlOJTYLFiTkzn3THAUApAs0lAH3M368xo61DU++O7f3uNed0/rgA2XMaIoBAAAAcG9Llqhbt6TxyJGnWg+p/pxOnHCsSPLii2rc2Ni50xwHAKQPHuYAgPRt6lT7DrWNdWcUHfemc1qDBunpp00xAAAAAO4tKEidOskwJGnwYI0cOWfOHbrJpUpp927t2aOsWc0pAEC6wQplwJ3Mnq1Bg2xD6wcTW47r45zWH3/QTQYAAADgLCREbdooMVHS9Y49Z+aaeGGwZepUc5WkUaNUubIkxcebUwCAdIOGMuA2PvtMvXrZhmv/O+b9lUOuXXPKv/QS3WQAAAAAzrZsUdOmtg5xYodOZbbOPLHYYq6RChRQmzZq2tQcBwCkPzSUAfewdKm6drUNJ2ccOuTH4c5pNW6sSZNMMQAAAADu7bvv1LChYmMlqVWr7e3nn/j8Didn7tqll182BwEA6dUd/iUAkN6sXKmOHW3nnf1Wb8CQ+HGS05qC//xHq1ereHHHGAAAAAD3tm+fAgN1/bqkiMoNXz7+hV8tT3ONVKSIKlY0BwEA6RgrlIH0bt06o00bS2KipNnq0Wv9FFM3WbKvXQYAAAAASdKhQ6pVS1FRkhJqBpT+Yfml6xlNJZ07K39+de+ujOYMACA9o6EMpGubNql5c0tCgqQFeqO3Zpm6yWPGqGJF1a7tGAMAAADg3n77Tf7+unxZklGt2pct1lzakslUMmqURo40xQAAboGGMpB+bdtmNG5siYuTtFRt39I8w/mUm48/Vs+ejgEAAAAAbu/ECfn56fx5SdYKFZt4fhPcI7OppFAhvfGGKQYAcBecoQykU99+a9Svb4mJkbRSzTpqsVVO551VqqR27RwDAAAAANze33/Lz0+nT0vSCy9sHrgheFs2x7ynp7Zs0ZEjKlzYMQwAcCOsUAbSo717Vbeu5fp1SetUv62+TLz1P/vq1Xr2WWXOrKJFZTGfpQwAAADAjUVEyN9fx49LUsmSP00Ma9gol6nk/ff12mumGADAvdBQBtKdAwdUu7bt7RmhCmihFfHysmWKFFGDBvK8w5uZAQAAALi3y5dVq5aOHpWkp5/eP3Fzpfr5EhKcSlq3Vu/eThEAgBviyAsgffnlF/n7KzJS0jbVaKw1sUp6e0bt2lqzhm4yAAAAgNtERalOHR04IEmFCik8fPHmJ03d5PHjtWyZfH2dggAAN0RDGUhHfv9dfn66eFHSt6paX9/cVNLbM4YN08aN+s9/nMoBAAAAQNevq3597d0rSfnzKzx8XmjRGTOcSjJkUMOGThEAgNuioQykF3/+qZo1de6cpL36b12FXFfS4oFMmdS6tVMtAAAAAEhSTIyaNNHOnZKUO7c2b94fXaJbN6eSrFm1ZYuef94pCABwW5yhDKQLp06pZk3bu5h/zfRC7ZhNUcpuT+7dqzJlkmsBAAAAQJLi49WypcLCJClbNm3aFF20zEe9zFXbtqlcOXMQAOC2aCgDad/Zs6pZUydOSEooUeqV3zZHKvldzN260U0GAAAAcJvERL3+utatk6QsWbRhw4rj5dtXVVycU1XduhydBwBwQkMZSOMiIuTnp2PHJCU+Xbzwb+EXldeezJVLAwcm1wIAAACAJFmt6tpVy5dLkre3goNVter/njF3kwMDtXatLBanIADAzXGGMpCWXb6sgAAdOSJJRYsG9dxyTgUd8+fPq0QJxwAAAAAAt2cY6tNHixZJUsaMWrXqWoWakyfr+HFTnQYMUAbWoQEAnPEvA5BmXb2q2rV18KAkFSp0fP6WVv6FHfNt2jD5AwAAAODMMPTOO5o9W5I8PLRsmRFYt16NpNfy2fn4qFcv+fk5BQEAEA1lIK2KjlbduvrxR0kqUODGuvCK/sVMJdOnmwIAAAAA3N6YMZo0SZIsFi1erGbN/jhm7iYXKqRTp5wiAADYceQFkAbduKEGDfTdd5KUJ482b952psSlS04lCxcqXz6nCAAAAAB3N3myRo2yDW9Mm9N1W/syZfTss04lkpo2NUcAALBjhTKQ1sTEqEkTbdsmSTlznl60uW2P500LCnLlUv36ThEAAAAA7m72bA0ZkjSeNm3gkbcWLHDK20ycqH79zEEAAOxYoQykKXFxatlSoaGSlC2bNm3qM/9FUzdZ0t69ypPHHAQAAADgvhYuVK9etmHimPd/Dew/d65zgSSpc2cNGSIvL3McAAA7GspA2pGQoLZttW6dpESfLN8ND1kfUWHNGnPVxIl6+mlzEAAAAID7Wr5cXbvahhfeevepucNKlnQukCRlzaqePc1BAABMOPICSCMSE9Wxo4KCJMV6ZKp985vtb79srpGef16dOpmDAAAAANxXcLDat5fVKkn9+g269P7ff5tLPv5YTzyhypVVoIA5BQCACQ1lIC2wWvXWW/ryS0nWjF4N49ds16vmGmnfPr34ojw9zXEAAAAAbio0VC1aKCFBUkTjNz/LP+2LjyymkmLF1KOHLOYwAAB3RkMZcHmGod699dlnkhIsGZonrgxVbXONVKWKypUzBwEAAAC4rx071Lix4uIknfVrV2TtJwlrzG3jZ57R/Pl0kwEA/wANZcC1GYYGDdInn0hKlEdrY9lao4Fj/qmnJKlUKc2c6RgGAAAA4N727FG9erp5U5KaNn3He1GCYd7MePKkihQxxQAAuA8ayoBrGz5c06ZJssrSQZ8Hqbljsl8/TZ/uGAAAAAAA6cAB1a6t6GhJx0oEdvxr2Xc/mj/+lyunwoVNMQAA7s/8LwoAF/L++xo/3jZ8U59+qXaOSU9PtW7tGAAAAAAA6cgRBQToyhVJ50q9VvZIUIy8HPNZsuitt/T225x0AQB4GDSUAVc1ebLee8827KmPP1MXe6Z/f2XJogYNVKmSPQYAAAAA0h9/yN9fFy5ISqxYpb0lOEY+ppLDh5OOzgMA4CHQUAZc0qxZGjLENhyoKZ+opz1TrpztDAwAAAAAcHbqlPz8dOaMpHNPliu9NyTS8DWVtGxJNxkA8K94mAMAUt2nn6pPH9vwXY2bpoH2jJeXRo2yXwEAAADALefOyc9PJ09KSiz5fLmITZFGDsd8ixbatk1ffukYAwDgH2OFMuBivvhC3brZhmM1fILetWd8fXXqlHI4zQkBAAAAQLp4Uf7++v13SZG5i/cvHHb2aB7HvMWiKVN4Cx8AIAXQUAZcyddfq1MnGYakSRo8QmMck0OG0E0GAAAAcJsrV1S7tg4flnRCT1W/FH4qrKBjPmdOvfce3WQAQMqgoQy4jLVr1batrFZJM9X7bU2Ukl+63KWLBg1KrgUAAAAASYqOVt262r9f0gWvJ/ziwk+piGPez0+hofLgwEsAQAqhoQy4hg0b1KKFEhMlfaqu/fSRYzf5r79YTQAAAADgNjdvqmFD7d4t6XKGvNXjNh/XM6aS5s3pJgMAUhINZcAFbNliNG1qiY+X9IXad9ccw+GFmdWr000GAAAAcJu4ODVvrq1bJUUqx2sJYUdVyp4sWVKlS8vPz/6KFgAAUgYNZSC17dqlBg0sMTGSvlaLzlpolac9OXmyunZNrgUAAAAASUpIUNu2CgmRdE2+dbTxoF60JzNl0oED8vJKLgcAIKWw7wVITefX7UmoXVc3bkhao0bttDTR4dc8Eydq0CBlz55cDwAAAACyWtW5s4KCJN2QTz2t36NKjvl+/egmAwAeFVYoA6nmq3d+qj2xdgZdk7RBdVppeYIy2rPPPaeOHZOLAQAAAECSDEM9emjJEkmx8mqsNTtV3Z5ctEjFi6tq1eRyAABSFg1lIHVYDx4KmBSQU1ckbdFrTbUqTt621LvvqmlTlS3LmgIAAAAAzgxDAwZo3jxJCfJsqa/DVMuefPNNVqUAAB45jrwAHre4OC0d8WtURb/cxiVJu/RyA62LkY8t6+WlgQNVvjzdZAAAAAC3GT5cH30kySpLey0JViN7pmJFvfdeciEAAI8IK5SBx23U63/0+rpmDkVI+kEV6yrkhrLkzSuLRfnza+RI5c5tvgUAAAAANH68xo+3DbtowXK1to0LF9avv8onaY0KAACPFg1l4LEyTv7VfUXNJ3VG0k96qY42XlO2smV18KC5EgAAAACSTZ+uYcNsw16atUid7ZlWregmAwAeHxrKwONz6eczNyvWLGL8JemQnq+l0CvKKalNG3MlAAAAACT79FMNGGAbDtHE2eplz4wapaFD7VcAADxyNJSBxyUiIq66X6GYPyT9qhL+2nxReXv2VOXKat/eXAsAAAAASZYsUbdutuEojZysIfbM7t2qXNl+BQDA40BDGXgcrBcuxb7iX/DKUUnHVcxP4edVoFw5ffyxuRIAAAAAkq1aZXTqZDEMSZM0eLRG2jNVqqhixeRCAAAeDw9zAEBKS7h45djTtXx+/1nSXypcU1v+ViFJI0aYKwEAAAAgWUiIWre2JCZK+lg939ZEyWLLTJ2q8HB58JkeAPDYsUIZeMSuXYuuFlgier+kMypYU1tOqqikgwdVtqypFAAAAACSGFu2Wps084yPl7RQnfpopr2bnCeP+vRRBj7QAwBSA7/NBB6hv45cP1m2Xo6j30uKUF4/hf+h4pKKF1eZMuZiAAAAAEjy3XdxdRp4xsVIWq6WXTXfuPX5PWdOffIJ3WQAQKqhoQw8Kjcux/z5UuOnTu6UdEm5/LX5qEpJqlBBS5fKkrS2AAAAAACc7d9vBAZ6x1+XFKwG7bXEKk9bpls3Xbyo5s2dygEAeJxoKAOPRlzctdrNasRtlnRV2Wop9Ge9IGn8eO3Zw6szAAAAAJj98Ydef12d/nvoSqValqgoSaEKaKmvE5TRXtOmDecmAwBSGZtkgBQ2f75mTYsff7x13ZgQSdHKUkcb96u8JC8vNW5srgcAAAAAw1C9erL++tsO+efQJUk79UoTrY5VJkmvvipfX7Vtqxo1zDcCAPCY0VAGUtLRo+r2ZuISdair1ZJuyKee1n+vKpIGDFCrVipVynwLAAAAADeXmKj9+xXz64md8iug85L2qEI9rb+hLJLKltXWreZbAABILTSUgZQREaHjxzV/nnWBurTRV5Ji5N1QwTtUQ9LEiRoyxHwLAAAAAKxdq86d5RP59w75FdZpSQf0Qh1tvKZstoK+fZ3qAQBIXTSUgRQwZ4569pRhGJ+oZyctlhSnjM0UFC5/SU8/rQ4dzLcAAAAAgGGoVy9liIzYLP9ndFzSEZUMUNi42bkkWSwqX14VKpjvAgAgFdFQBv4tq1XDhskwjGka0F1zJSXIs7W++vvFepsmKnNmlS8vHx/zXQAAAADc3M2bWrhQN/6+vEW1SumopD/0tL82N+ySr0cPczEAAC6ChjLwr3z3nebM0eXLxgQN7a+PJFlleV1frFbTNaNVq5a5HgAAAAAkGYYCA7V/e1SYAl/SAUmnVMhP4bnKPDlsmLkYAADXQUMZeHg7d+rVV2W1aoTG/E8f2oI9vT/blrPNkNdVv75zNQAAAADc8vPP2rP9xkbVr6Q9ks4pf7Ps4fuPF82Vy1wJAIBLoaEMPLxly2S16m19OFqjbJH3n/xkzulOc5yqAAAAAMBJSIia1IsNVpPq2inpknL5a3NA5xJ0kwEArs/DHADwAC5fVrt2+uQT9dVHH+p/tmB/TVP37s6FAAAAAODk6FE1rhf/tVrWVqikq8pWS6H13ykzfry5EgAAF8QKZeBhvPuuvvxSb2nuR+pvi4z0mvD8rP5dujjXAQAAAICzNUGJn+v1RgqWdF2Z6yqkQrfyH3xgLgMAwDXRUAb+McPQ55+rgxbPVdJ65FEa2XL//55/3rkOAAAAABxcvapWLaytwrq21nJJMfJuqOD9mV6e9oa5EgAAl8WRF8A/1qGDGt786jMlTfo+0Ds/NxlJNxkAAADAvc2bazQI69NZiyTFKWNTrTpS0O/AAVWsaK4EAMBlsUIZ+GcOHlT0ktUr1N5TVkkfqe8L30wYUsdirgMAAACAW+LjtTnMMN55p5dmS0qURxst26C6wXNVooS5GAAAV0ZDGfgHrl/X563WL1erDEqUNKAHjKEAACAASURBVEfdZj49/fe6Fgv9ZAAAAAB317q1yqwaM1qTJFll6ajFq9SsVSvVqWOuBADAxdFQBv6BMdU3v3+0mZfiJS1Sx56avfNzuskAAAAA7uXkSRVbNXm0Rtkuu2vOUrUPClLTpk5lAACkCTSUgQd1cdWOkfsbZlKspGVq3UUL+vT1ePllcxkAAAAA2FitmjZNJ96ePVNDbJH+mvap3sqWTbVqOZcCAJBG8FI+4P5iYjS1xW7vZvUy66akVWrSQZ9b5cmCAgAAAAD3MH26fh68aKa1l+1ymN7/SP0bNdLGjfL1dS4FACCNYIUycH/Lhux7Y2VgVkVLWq+6bbQsQRlDQlSjhrkSAAAAAGxiY3Vp9vIF6mK7HK+h4zWsXTstWeJcBwBAmkJDGbiPmz8cbPRxrRy6Kmmz/JopKE7eLVooMNBcCQAAAACSLl1Sq1bKHL4uSO09ZZX0kfoO07gMGdQlqb0MAEBaxZEXwL18O/9IdGX/XMZlSTtUrZHWxipTliwaMMBcCQAAAAA2M2bIEh62Qs0zKkHSp+raX9M7dbLs26fXXjMXAwCQtrBCGbi7Y8dK9PTLqwuSdqtyPa2/oSwjR6pHD+XPb64FAAAAAEm//KKtY3ZsVCNvxUlaqrbdNSdzZsusWcqSxVwMAECawwpl4A4MQ1sWnrxS3i9v/FlJ+1QuUBuildXXV0OG0E0GAAAAcGfLlqnz83vWK/mF3h21OIOX5+TJdJMBAOkEK5SBO1g49nSNkTVz6C9JB1W2lkKvKoeXlxYuZBYIAAAA4K6+GXdgo2rbXugdosA2WvbFlxkaN5aPj7kSAIA0ioYycJtz52qO9yuq45KOqGSAwi4rd+bMio6WxWKuBQAAAACbwyuPTDsckFNXJG3Ra80U5JvLu0kTZcpkrgQAIO3iyAsg2d69av7qxd+e8i8a+5ukY3rGX5sjlF9SkyZ0kwEAAADcVdRPf+Ro4Z9PFyR9pyoNFVziBZ8NG+gmAwDSG1YoA0kSEtShQeSX5wNK6LCkkyrip/AzevKVV1S7tgYONNcDAAAAQJJTpzxr+z2pM5L2qVxdhVh9fPfvl6enuRAAgLSOhjIgSVFRCguKWnS+zn/0f5L+1hM1teUvPZUtm7ZvlwdL+QEAAADczblz1yr6Zb1wUtIhPV9bm64qR5+udJMBAOkTfTJAc+aoUM7r+d6oV0l7JJ1XPj+FH9czkv73P7rJAAAAAO7u0iWrf0DWc79L+l3FAxR2SXly5tT06eZCAADSB1Yow93FxmrEkJurrQ2raZeki8rtp/BfVXLFCpUooRdeMNcDAAAAQJKrV621anscPqRbh+adU0FJY8awMAUAkG7RUIb7On1aQUH68dvYxdFN/bRFUqRy1FLoYZUZPFjNm5vrAQAAACBZdLQRWNdj/z5JZ1SwpracUhFJVavq9dfNtQAApBs0lOGmIiNVvrwuR8SvUKtAbZQUpax1tPGgZ7na/nrnHXM9AAAAACS7eVONGll2fyfpgvL4a7Pt0Lxnn9WuXbJYzOUAAKQbNJThpr75RpciEr5Uu8ZaK+m6MtfTes8qlRK+M1cCAAAAgJO4uOg6zX13JG1zDFDYEZW2ZTp0oJsMAEjnONUJbmftWr36qjp2sH6mN1pqhaQYeTdU8C5Va9zYXAwAAAAAThISElu19d0RIumafOto4wG9ZMsMGqQhQ5xqAQBIf1ihDPdy+rSaNpVhtc5Vtw76QlKcMjbR6jwt/WZWU8+e5noAAAAASGa1qnNnzzVBkm7Ip57W71ElW2b0aI0Y4VQLAEC6REMZbiQuTvPny2o1Zqjfm5ovKUGeLfV103mBb75pLgYAAAAAu2+/VedOxqBjPbppiaRYeTXWmp2qbstmyaJWrZzqAQBIr2gow11s3arGjRUVZUzU2300S1KiPNpp6c9PN/6smbkYAAAAABy92dXocWxgN83TrYUpYaplS02apAYN9NxzTvUAAKRXNJThLoYOVVSURmvkEE2WZJWlX9aFHZa1+rSasmUzFwMAAACApIgIff+9LlxQ26PvDdB0SVZZ2mtJsBrZCsaO1eDBTrcAAJC+0VBG+hcerj179MMPGqrxIzTWFuyuOTU+6VCvnnMpAAAAANxy4IBq1NDVq/qfJkzQOFuwixYsV2vbuEwZvfVWcj0AAO6AhjLSudmz1auXJPXXtPEaZgv20YzYDm81b+5YCAAAAABOPvlEV6+qrz6aoHdtkV6atUidDx+WpEyZVKyYLBbHOwAASP9oKCOdmzdPknpo9jQNtEXesUycFtcnA88+AAAAgLtISNCMGZo7V100/yP1twXf1oez1atjR5Uu7VwNAIA78TAHgPRi2TK9+qoOHFBnfTZbvWzB9zTmeLMhdJMBAAAA3MOwYRo0SG21dJ6SjrQYrRHrS7/dsaOmTnUuBQDAzdBXQ/r0889q21aS2mrpfHW1BT8rMDSx0/DPkjarAQAAAMCdrVqlJlq1WB09ZEiarEHNfx41soy5DAAAN0RDGelNRISiozV3riQ100r7FHCW14Cep8d5eHLCGQAAAIC7unJF7dvr2WMhX6l1BiVKmq0eKypMGvQ8HyUAAJBoKCM9iYlRs2YKCUm6rK91y9TGPgW8/O4UuskAAAAA7m3aNF1fvzVEzbwUL2mhOl0ePSu0n4WX7wEAYENDGelHcHByNzlAoSvVPKMSJK3M2vm/obMqVmYCCAAAAOBeoqMVNua7UDXwUYyk5Wo58on5J9/zoJsMAIAdDWWkB2fPKjhYPXokXdbQtrVq5K04SUvVNveyTytW5v2TAAAAAO4lIkJd/rN/gwJ9dV1SsBq015LFkzzpJgMA4IiGMtK8K1dUvrzOnk26rKLvvlF924KC1R7Nvuu6eEYdT8d6AAAAALjdpimHFp6plV1RkkIV0FJfbwrPWLOmuQwAADdHQxlpXnBwcje5vH60LyhIDKzfYOWXTTLzkAMAAAC4F8PQuqm/B0z0z6NLknbqlSZanSVXpqpVzZUAAIBzAJCGGYYmT1bHjkmXL+hAqJIWFNysFuC5akWGzF6O9QAAAABwu5VTTr402K+Azkvaowr1tP6GsqxZo0yZzJUAAICGMtKwL7/UkCFJ41L6ZbP8cylS0pUXa/hsZPYHAAAA4AGcOfPKyJpFdErSAb1QRxuvKVtQkKpVMxcCAAC5YEM5ISFhyZIlLVu2LFasmK+vb5YsWYoWLfrKK68MHTp0586d5uq76NSpk+V+oqOjzbchTTEMLVqUNC6u38Pll1cXJalKlRy7vlHmzMmlAAAAAHCbiRNVtsCFI4X8C944LumongtQWKRyFSigWrXMxQAAwMa1jpfdu3dvu3btfv/9d8fgyZMnT548+e2334aFhf3444+OKbitn39W/fr66y9JKqo/t6hmQZ2TlPDSfzNs2CBfX1M9AAAAADg6eFAT3oncqoBSOiLpuIr5KfyC8jVqpJkz+UgBAMBduVBDedu2bfXq1btx44Y5Adxm5MikbnIhndqimoV1WlLC8y9kCN+k7NlNxQAAAOlYQkLCV199FRwcvHfv3gsXLhiGkTdv3kKFClWrVq1u3brVHmzTfqdOnRYvXmyOOrt27ZovPTakfXFx+vFHXbmixTOjNqrOSzog6ZQK+Sn8jJ7MmFELFypnTvNdAADAzlUayhcuXGjTpo29m+zr69u/f/9q1aoVKVIkMjLy5MmT4eHhERERzjc9kJ07dxYqVMgclbJkyWIOIY04ckSrV0tSAZ0Nl18xnZAU/2ypjFvClCuXcy0AAEB6xg4/4B+Ji1O1atqzRz66sVH1K2mPpHPK76fwEyom6d136SYDAHAfrtJQnjx58rlz52zjXLly7du3r2jRovZslSpVWrdubb/8RwoVKuT4pZDW7d6tqlUlKY8ubJZ/Cf0uKTJ38Zzbw5Uvn6kYAAAgHWOHH/BPbdqkPXvkpdjValJdOyVdUi5/bS7iV2LpBBUqpIIFzbcAAAATl2goJyYmfvrpp/bLDz74oGjRovHx8RcvXsyUKVPOf/cL4kaNGp08efLGjRs5cuQoXbp0nTp13nrrrVysY02zPvtMknLqcpgCntcvkhKLFM25awtTPwAA4FbY4Qf8I2vWaONGzZ2rDIr/Wi1rK1TSVWWrpdDDKjNpkCpUMN8CAADuyCUaygcOHIiMjLRfZs2aNTAwcOvWrbGxsZLy5s3bsGHDoUOHPvPMM8n3PLCDBw/aBhcuXNi+ffv27dunTJmydOnSWry1Nw1askTz5yubrm5SbdthZ+e9CuXftkWFC5tLAQAA0jV2+AEPbsUKtWwpSR5K/EKvN1KwpOvK/Eb+kJjc5ce3V506pjsAAMBduURD2d7ztWnbtq1hGPbLCxcuLFiwYPny5cuXL69bt65D4UO6ePFio0aNdu3aVb58eXNOkhQbG2vrZUuKioqSFB8fHx8f71SUHtm+R5f9Tnfvtrz+eoYsig5R3Qr6UdJ5jwLW0I3xhQrJVf/O6ZKLPydwETwneBA8J7ivlH1IDMNIqS+V6tjhB/wjK1ZIkkXWT/Vmay2XFCPvb94MDpr3sqkSAADcl0s0lC9duuR46dhNtouOjm7RosXBgwcfcJ3yc88917Rp02rVqhUrVuzatWs//vjj2LFjz549a8vGxMQMHDhw+/btzjclmTBhwujRox0joaGhmTNndoykY2FhYeaQC0hMtMyZ84KP8q1Tg5f1naQLyrNl6PuZrxxTyDFzNR4913xO4Gp4TvAgeE5wXyn1kBiGcf36dXM0bWKHH/CAvvpKI0fqt98kGTPU9w0tlBSnjG29gya942euBgAAD8AlGsr25cB2EyZM6Nq1a2Ji4syZM8eNG2cL3rhx48MPP5w3b55z7R2MGzfuySefdIxUqFChYcOGZcuWtc+8d+zYcebMmSeeeMKxzGbo0KEDBw60jaOiogoXLlyrVq1s2bI5V6VD8fHxYWFhAQEBGTNmNOdS1YoVlm7dPOOjY9eq0WvaJilSOUZU3jRjZFlzKR49l31O4FJ4TvAgeE5wXyn7kBiGceXKFXM0bWKHH1JXyu4eeHQuX1bHjhni4iyS8YH+11sfS0qUR1DTJcOH1SpSxPW/gzQsrTwkSEU8JLg3nhBXcLcdfi7RUDb1amvUqPG///3PNn7//fdDQkJ++ukn22VoaGhy3d2Zusn2YOfOnadOnWqP/N///d8dG8re3t7e3t6OkYwZM6bIx5g0wdW+2cRE9e+v2Oi4lbdenRGlrCMqhU7fVs6V/ppux9WeE7gmnhM8CJ4T3FdKPSSGYaTI13EF7PCDK0ip3QOPSFRUxrVri8fFlZD0nsa+o4mSrLJ8++bAzPW8T50KOXXKfAtSnIs/JHAFPCS4N56Q1HW3HX4u0VA2vUXatPDhv//9r72hbJ/RPpynn37a8TLdLFFJr37+Wbt26dgxXb6Q8JXaNtQ6SdHKEqgNk6dVcO75AwAAuBF2+CF1pezugUdh505L27aeN25YJA3UlDEaaYuvrPlxk4+7OpXi0XD9hwSpjocE98YT4grutsPPJRrK//3vfx0vExMTHS8TEhLs46xZszpk/rHjx487XvJqEVe2YYMaNFBiojyU+Lk6NleQpJvK1MRzXbkeL1eubK4HAABwH+zwgytw5f/KU6boxg1J6qHZUzTYFrw8fGrLsT0cy/CoufJDAhfBQ4J74wlJXXfb4edhDqSGQoUKOfaUd+3aZR9brdbvvvvOfvniiy/aBidOnLA42LZtm71m06ZN77777tWrV+0RmzNnzixcuNB+abFYypUr55CHa5k7V4mJssg6T2+105eSYuX1Zp4166JfmzlTFou5HgAAwH3cd4effcwOP7iVqCh9+KG6d1dIiCR11KLZ6mVL7a73fq6xAxyLAQDAw3GJFcqSBgwY0K5dO9t43759PXr06NKli9VqnTVr1q+//move/311+3ju7l58+aECRNmzpzZunXrwMDA5557LiYmZu/evWPHjnV8F3bdunXz5cvncB9S2d69mjRJERFJl9u3SzJmqk8XfSYpXhmaa2XZN2tnyuRwDwAAgFtihx9wR82by37YZkstX6AutnFo+aE1gobZywAAwL/hKg3ltm3bLl++PDg42HY5Z86cOXPmOJfo1Vdf7dChgyl4N9HR0fPnz58/f745IUnKnTv39OnTzVGknuvXFRAg52XlxmQN7qXZkhLlMaHssnJNGgxjEggAAHBrh9+PP/5ou3zAHX7FihWzx7du3frqq6/axps2bdq+ffs777yTPXt2e4HY4Ye05tKl5G5yfa1bovaeskqK7d631uxxYo8jAAApxCWOvLBZvnx5ixYtzNFbGjRosGbNGg+P+/+Fs2TJcu+y0qVLb9mypXjx4uYEUk94uKmbrLF6b5CmSrLKcuOTz0ccbD56tLy8nGoAAADc1oAByZv3bTv8fvzxxz179nTq1OnhdvgVKlTozTffXLVq1eHDh/ft2zdnzpwKFSqwww9pwsyZevZZ5cmTdOmvsJVqnlEJkjYV6eo9ezpH5gEAkIJcZYWypEyZMn399dfh4eGLFi3atWvX+fPnJRUoUKBKlSodOnSoXbu2+Ya7CAgIOHXqVHBw8I4dOw4dOnTq1Klr1655e3vnz5+/fPnyTZs2bd68+R3Pk0aqiI9Xp0768kun4DC9P1xJbyefX+nTt7onHYcCAAAAG3b4ATaHDqlv3+TLV7RzrRp5K07SkXJtX9k6h24yAAApy4UayjZ+fn5+fn7m6G2KFi1qGIY5essTTzzRvXv37t27mxNwPevXm7vJgzT5fb1nG//cfdYbM5MOPgMAAICj5cuXd+jQYcWKFeaEJKlBgwZffPHFvbfu2dh2+FmtVnPiltKlSy9btowdfnBBEREal7QQRZIqaM961cusm5LUpEmprxcrg2dyGgAApASXayjDfRiGtmxR165OwV6aNVlDki6mTCk7MOmlzAAAADBhhx/c3PLlatdO9ndSltXBjaqTTdckRVauk3PZMmXgAy8AACmPf1+RaoYM0ZQpTpGu+nSW+iRdvP++Bg50SgMAAOA27PCD2xo1Krmb/JyObpZ/LkVKSnjl1Zyhq+Tt7VgMAABSCg1lpI6EBM2e7RRpry/mWbrJ9jFn+HANG+aUBgAAAABJ0v79WrJER48mXRbT8XD55dMFSapcOUNIsHx8HMoBAEBKoqGMxy0yUqNGad063byZHGyhrxepk8W2ambwYI0Zk5wDAAAAgFuOHlXVqoqNTbospFPh8ntSZyQZ//mPZcMGZc3qWA8AAFIWDWU8bp07a+1ap0hDrf3S0s7TsEpS796aOJEXMQMAAAC4o1WrkrvJ+XUuXH7FdEKSSpe2hIYqR47kUgAA8AjQUMYjER+v69fNQUmJieZucm1tXGFpmcFIkKSuXfXRR3STAQAAANzR4sXJZ+Pl0qWw/2/vzuNsrN8/jr9nM2PMWMq+ZWgVLdZkzWSJojIiSbZvoZL6VYhSfZU2lSiqbyUl66RsyR6FSttQUhiylW1iGDNmOb8/Dufc92e2Y4yZs7yejx4e93V9PvfI41znPp9zzb2o3aX6U5IuvljLl6t8ectcAABwXtBQRuEbN07//a/tjha5uUEr5+m2Eo5TktS7t6ZMUXCwOQkAAAAApF271K/f6e3SOvqlOtTXZkmOmjWDVqxQlSrWyQAA4DyhoYxCtmuXnnjCTOaoub7+ssQtYadSJal7d33wgUJCzEkAAAAAIEmaMUPOp66U0vHF6tRIP0hSlSpBK1eqZk37XAAAcL5wNigKU1aWXnrJTOaosb77MqRT2KkUSerSRdOnK5RfbwAAAADI2ejRGjlSkiJ08nN1ba51khzly2v5ctWpY0wGAADnDy08FKbBg/XOO2Yyu2v009KgDqUykyWpY0fNnq2wMHMSAAAAAEiSkpL04ouSFKZTcxUXq5WSHGXLBi1bprp1jckAAOC8oqGMQnPsmN57z5Zp317vv2/LSAr9fXP57u1Ckv6VpBtu0KefKjzcnAQAAAAAkqRdu3T//crIUIgyPlGvzlosKT0iKmzJEl1zjTkbAACcZzSUUWieeUaZmbZM//6qVs2W0datuutGJR2WpObNNX++Spa0zwAAAACA044fV9Om+ucfBSnrffWPU7ykU6ElgxctVNOm5mwAAHD+0VBG4ViyRK++asu8/rruuMOW0Y4dio3VP/9IUpMmWrxYUVH2GQAAAADgtny58wuE4y0N6aOPJKUHlyixcJ7atjanAgCAIsFD+VA4FiywhR066KGHFBRkSf31l9q21d69knTNNVqyRKVLW4YBAAAAwO2zz9S4sW67TZJjvP5vkN6WlKGQtQ/MVocO5mwAAFBUOEMZhWDJEr31li1z7722UPv2qW1b7dolSVdeqaVLVa6cfQYAAAAAnHb4sHr00KlTkvSsnnpEr0nKUtD3Qz9uO6GrMRkAABQlGso4Vw6H2T4eNky3326JDxxQbKy2b5ekSy/V8uWqUMEyDAAAAACSdOTI6e8Nixad7iaP0LgnNdY5uvSO9zpO6OmeDQAAigMNZZyr5cu1e7ctY+svHz6sG2/U779LUkyMVqxQ5cqWYQAAAACQpA8+0MCByspyZ4Zqwjg94dwec+GkIW/0c48BAIBiwj2UcU4+/FDt29syQ4fqiivOBP/+q/bttWmTJNWooZUrVb26eyoAAAAASJIcDo0YYesmD9D/JmiYc3vHfS8O/+v+SpXcowAAoLhwhjLOyWuv2cKqVTVhwpkgOVk33aQff5SkKlW0YoVq1XLNBAAAAIDt2zVrlo4e1d9/68ABd76Xpr+j01c+buz0VKMpj7vHAABAsaKhjLycPKlx4/Tzz3I4zCFJWVn65Rdbxn3r5JQU3XyzNmyQpAoVtGKFLrnEPQ8AAABAwDt4UI0bKynJzN+qeR/qnmA5JC258v/azH3anAEAAIoPDWXkZehQ/e9/ZjI33bvrhRckSamp6tpVa9ZI0gUXaPlyy10wAAAAAECSFi7MoZvcUV/MUo9QZUrS4MEd33xZQUHmJAAAUHxoKCMvn31mZnITHa1ZsxQUJJ06pbg4LV8uSaVLa+lSXXWVORsAAABAoEpN1fDhWrr09KO7rVpr9ae6vYTSJemeezRpEt1kAAC8DQ/lQ84cDt1/vw4dMvO5ufdeBQVJ6enq2VOLFklSqVJaskQNG5pTAQAAAASwCRP0xhs5dJOf6bh+SejNJZUqSd2763//UzDfWAEA8DqcoYycff+93nrLlhkzRhERtozLFVfollukzEz16aN58ySpZEktWqRmzcypAAAAAAJVZqb++MN8srfTZ0/92HXCTco4IUk336yPP1YoX1cBAPBGfEIjZ0uX2sK6dfX007aMKStLAwdq5kxJCg/X55+rdWtzDgAAAIBAtW+f2rbV1q1mXtLNMb/eMqm9jh6VpBtv1Jw5KlHCnAQAALwDFxAhB4cO6cknbZlXXrGFJodDQ4Zo6lRJCgvT3Llq186YAgAAACCQTZmSQzf5iSe07sM/55+IDT5yWJJatNBnn+V6aSQAAPACnKGMHMyZYwuHD9dNN9kyNg6HHn5Yb78tSSEhmjlTN99szgEAAAAQqDZt0sKF+u9/zXxUlEb13hXZIVYH/pGkxo21aJFKlTLnAQAAb0JDObCsWqWpU3X8uBo00KOPKjzcnOBkLPXy6SaPHKkJEyQpKEgffaTbbzfnAAAAAAhUv/6qJk2Ummrma9XSxJH7Im9uq927Jemqq7RkiUqXNucBAAAvQ0M5gPz+u9q1U2amJH36qfbv16RJ5hxJy5YF7d/vDqtUyfNmyM8+qxdfPL39/vu6807bKAAAAIDANmNGDt3klSt1Q72Dan2jduyQpMsu07JluuACcx4AAPA+3EM5gCxceLqb7DRvnhwOd+iyYEGQNczr7skvvuh+VN/kyerb1zIGAAAAIEDt36+ePVW3rq64Qs89Z45WqqRmlyepXTtt2SJJMTFasUIVK5rzAACAV6KhHBCOHlXXrnrsMVty3z6FhuqBB2xd5l9+KT9lSog7ljp3tkYWEyZoxIjT26+9pkGDbKMAAAAAAtV992nWLG3Zot9/N4ceekhrFydH3HaTfvlFkqpX14oVqlbNnAcAALwVt7wICJMmaf58MykpK0tvvqlOndSpkyQ5HJo06VrrhJdfVpky1sQZb7+tYcNOb48b594GAAAAEMAOH9b+/VqwwMw7rV6t1o1TdNPN+vZbSapYUcuXKybGnAcAALwYZygHhLlzzYzVuHE6dUqSfv9dBw9GWoecjWbThx+6z0ceM8Z9njIAAACAAPbEEypfXvXrm3mn5s3VonGabrtNa9ZI0gUXaPlyXXaZOQ8AAHg3zlD2f199pZ9/NpNWX3+t9u31ySe6+uowa37QINWta01IkmbOVP/+p7cff1xjxthGAQAAAASkvXv1wgtmUtLMmQoJ0YUX6vrG6SG9emjpUkkqXVpffplr7xkAAHgxzlD2fxMm2MKZM5WSosGDbcmvvtLQobZMhQqaPNmWkaR589S7t7KyJGnoUL3wgoJsT/ADAAAAEGhSUvTBB4qLy+Gh382bq0cPxcXphlaZ4f/po88/l6TISC1erEaNzNkAAMAX0FD2f/Pm2cKbb1bJkrr/fltSUny8LbzjDlsoSYsXq0eP04/wu/devf463WQAAAAAt92m/v21YYOZr1dPkyZJkrKy9J//aOZMSQoP1/z5at7cNhUAAPgOGsp+7qefbOGLL6pUKUm68kpNm2YbMjz/vD1evly33670dEm65x5Nnkw3GQAAAMDu3advYmHVq5ccDm3apGuukRwODR2qDz6QpLAwxccrNtbcAQAA+A4ayn7OeLxyv37u7bvv1vDh7tDqs89UurQlXrNGXbooLU2SevbUe+8pmMoBAAAAAtqpUxoxQjVrmnlJt956Zsvh0IgRevNNSQoO1iefqHNn9zwAeYDynAAAIABJREFUAOCDaAv6OeOZeRUq2MI771R4uC0jqXp1R7t2lnjDBnXurJMnJem22zRtmkJCLMMAAAAAAtHEicEvvmgm77xTH3+s7t3PxP/9r156SZKCgjR1quLi3FMBAIBvCjUT8COHD9vC556zhZKuvlobN2rhwtPt4szMzL///u2ppy6PjAw7PePHH9Wxo44fl6ROnTRjhsLODAEAAAAIVMePh777rnl+Us+e+uQTSzx+vPsMl8mTdffdljEAAOCraCj7M+MGytddZwud6tVTvXqnt9PTsxYv3lGlyuWn402b1K6djh6VpNhYxcfncD4zAAAAgAAzcmTwq692cjhsT1UpWVIPPGCJJ0/Wo4+e3n71Vd13n2UMAAD4MPNXyvAnrvWbU5s2tjAfv/+u2FgdOSJJLVvq888VEWHOAQAAABBgEhM1fnyI0U1+9FFt3armzc/EH36oIUNOb//3v3r44TMDAADA53GGsj/75Rf3dvfuZ/MgvW3b1LatDh6UpKZNtWiRSpUy5wAAAAAIMH/9pYEDzWSpUhozRlFRZ+LZs9W//+ntESM0atSZAQAA4A9oKPut5GRbeNFFtjAvu3YpNlb790tSgwZaskTR0eYcAAAAAAHm77/VoIH5pJaKFfXqq5Zu8oIFuusuZWVJ0tChev55BdnOZQYAAL6OhrLfevZZW+h6GEbeIg4fDu3QQX/9JUn16mnpUpUta04CAAAAEHg+/dTsJvfpo6lTLR3j5csVF6eMDEkaMECvvUY3GQAA/0ND2W9t3ererlDBcspAHv7+u/mTTwbt2ydJl12m5ct14YXmHAAAAAAB5vPPNXGiVqww8926WTrGDodGjdKpU5LUq5fefvtsbroHAAB8Bg1l/+RwaMECd+hRN/nQodCOHcOc3eQ6dbRihSpVMucAAAAACDA7d+q22+RwmPmpUzO6dLF8owwK0qJF6tBBF12kDz9USIh7CAAA+BEayv5p7Vpb+MEHtjAHSUlq3z7ot98kOWrWDFqxQtWqmXMAAAAABJijR/XBBzl0k//v/zb26nW1mS1fXitXKiJCoXzTBADAb/Ex75EvvlBkpJksehUrqlEjj37T/803tvDKK22h6dgxdeyon36SdPKCC0K//DLsLB7hBwAAAMA/DR2qSZNy6CZfcomjceO/pWwNZUllypgZAADgX2goe6RnTzNTXLp21bx5+T/Z4oknbGH58rbQ5sQJde6s776T5KhYcd1TT7WqU8ecAwAAACDAbNqkiRPN5IUX6r331LJlxtq1meYYAAAIDDSUfcznn2vTJl11lZm3+ucfW/jii7bQ5uRJdemir7+WpAsvzFiy5Phff5lzAAAAgEL11VdaulRJSapd2xxy+vVX1aqlUqXM/Dm66CLdeqvCwsw8DCdOaN68nL9HTJqkrl2Vnm7mAQBA4KCh7HsaNdKdd0rSxRdr2DBFR5sTFi2yha1b20K3tDTdfrtWrpSkMmW0dKnq1RMNZQAAAJxPb72l++83k0WmRw/NnGkmYeVwqH17rVtn5sPCdMcduv12Mw8AAAINDWWPXHSRgoPNZFFKTHRvp6dr2rTT299+q4UL3UOSUlM1YIAt07SpLTwtPV09emjJEkmKitKXX6pBA840AAAAwPk2ebKZKUqzZ+vNN3XhhWYeLgkJOXSTBw7UW29xcjcAAJBoKHsoIUGlS5vJovTgg5o0yUxKWrRIJ07YLgY0Fn85n0GQkaHevfX555IUGanFi3PpOgMAAAAFERur0Jy+amRlafNmM1mUHA5Vq6anntLw4R497DqgvPeePvnk9BWMhu7d6SYDAIDTclrlwfv06qXJk5WZ03MvoqI0bZruvluSjhxRbKxt1Jm3ycpS//6aPVuSwsM1f75atjTnAAAAAOdg40Yzk4eOHd3bzivoXK67TmXL2jIFY/2xaWkaNUrlymnwYHcSK1Zo4EAzKem22xQXp/btzTwAAAhYNJR9Q7Nm+uYbLVqk1FRJevll2+iAAerYURUq6Pnnbfly5XTrrbaMHA4NGqSPPpKksDDNm2d2oAEAAIAiNGWK7rvPHVqvzKtUSevXu4fORZcuWrDAllm6lIayW3q6PvjATEq6//6cL5QEAACBjIayz2ja1H1fik2bbCdZpKdr7FjddJPGj3cnJQ0bZgvlcOihh/Tuu5IUEqLZs3XTTfYZAAAAQNGpUUPdutkyAwdq6lQdPy5JjzxiGzoXDzygL75QRoY789lnysoq5geleIlPPtF//qOUFDMfFZXzOcsAACDA0VD2SaNHa906HTvmzrzxht54wx06/ec/lsDh0PDhmjhRkoKDNX16trOXAQAAgMIxcaJKljSTLpmZ2rdPdesqNtZ8Pt7VV+u337RmjerU0XXX2YbORfv2+vVXvfCC7TzcVau4Wk/p6XrwQbOb3Lixhg5Vq1aqWdOWBwAAEA1lH9W8ufbv1zXX6M8/zSGXTZtUpYolfvrp03fKCArSBx+oRw/LGAAAAFCY+vQp+EOta9TQXXeZyXN36aUaP97WUN6wIdAbyn/8oXfe0ZEjZn7KFDVoYCYBAACcuMTLV0VG6v/+z0y6VK6syy+3xKtX69lnT29PmaI+fSxjAAAAQEAoV84Wjh5tCwPN99/r6qvNm+aFh+vRR3XttbYkAACAFQ1lH9a/vx55RBdfrBo1bP81b674eIVazz5v3VrPPCNJb7yhe++1DAAAAAABxHiK9T//2MKA8v77p5/47VKnjo4d08svKyjIlgcAALDilhc+LCxM48eb5xTkLChITz2ljh3VpIk5BAAAAASMDh30xBPu8I8/VKmSOwwQJ0/q6ac1ZYqZ79VLJUqYSQAAAANnKAcSuskAAAAIbMatgbdvt4UBYuRIvfSSmXzmGT35pJkEAADIjjOUAQAAAASQm2/WwoWntwOwoZySomnTzGRCgurXN5MAAAA54gxlAAAAAAGkTh339tix7m2/53DovvsUFaWkJFv+hhtUr54tAwAAkAcaygAAAAACyMUX28J9+2yhH/v6a73zjhwOW3LKFC1ezFP4AADAWeCWFwAAAAACSKNGtvDnn1W1qi3jB7KytGyZduywJV97zRZKqlZN995LNxkAAJwdGsoAAAAAAkjTprbQL2+j/NBDmjTJTBrKldNbb9FNBgAAZ41bXgAAAAAIIEFB6tXLHfpfQzk1VW+/bSYNDzyggwfVpYuZBwAAyBdnKAMAAAAILNbn8vlHQzktTWPHasMGZWVpyxalp5sTDHffrZAQMwkAAOAJGsoAAAAAAov/NZSffFIvv2wmnVq1soVRUbrnHjVpYksCAAB4joYyAAAAgMBibSjv2KGsLAX7+L0A58wxM04tWuirr8wkAADAufDxdRMAAAAAnCVrQzktTfv2uUOfc/iwWrfWzp1m3mnIEDMDAABwjjhDGQAAAEBgqVxZJUvq5MnT4fbtql7dNsGHvPmm1qyxZR57TNWrKyRETZuqUSPbEAAAwLmjoQwAAAAgsAQFqXZt/frr6XD7drVubZvgKw4d0pgxtkylSnrhBZ+/gwcAAPBmLDQAAAAABBw/eC7fgQO65hozOWkS3WQAAHB+cYYyAAAAgIDjBw3luXO1d68ts2qV2rSxZQAAAAodv7wGAAAAEHB8vaH83Xe6/35b5oILdN11tgwAAMD5QEMZAAAAQMDx6Ybyv/+qbVsz+eWXiogwkwAAAIWOhjIAAACAgGNtKCclKSnJHXq/5ct14oQtM2OGGjWyZQAAAM4TGsoAAAAAAs5FF9keXucrJymfOqW771b37rZkjRrq1MmWAQAAOH9oKAMAAAAIOCVKqGZNd+grDeV58/Txx2Zy40aVLm0mAQAAzpNQMwEAAAAAAaBOHe3ceXrbCxvKGRlavVp799qSjz5qCyW9/roqVjSTAAAA5w8NZQAAAACBqE4drVhxetsLG8q9e2vWLDNpaNlSffuaSQAAgPOKW14AAAAACETW5/J5W0N5z578u8ljx2rNGpUpY+YBAADOKxrKAAAAAAKR1zaU161T06Zm0hAUpDvvNJMAAABFgFteAAAAAAhE1oby3r1KTVVEhDtTXPbvV9u2SkuzJRs2tIXlyun++1W7ti0JAABQNGgoAwAAAAhE1oayw6HERF1xhTtTXJYtM7vJPXpo5kxbBgAAoBhxywsAAAAAgSg6WhUquENvuOvF9u265x5bJiRE/fvbMgAAAMWLhjIAAACAAOVtt1EeNcrMfPed2rc3kwAAAMWIhjIAAACAAOVVDeW0NM2aZctMnaoGDWwZAACAYkdDGQAAAECA8p6GclaW2rSxZcqVU/futgwAAIA3oKEMAAAAIEB5T0P5u++0YYMts2OHIiNtGQAAAG9AQxkAAABAgLI2lBMTlZnpDotSVpbuv9+WadhQZcvaMgAAAF6ChjIAAACAAGVtKJ86pb173WFReuMN/fijLTN7ti0EAADwHjSUAQAAAASoSpVUsqQ73L3bvV2IHI4c/rP67DNb+Nhjql3blgEAAPAeNJQBAAAABKigIFWo4A6PHHFvF4q0NPXtq8hIBQfb/ouMVL9+SkvTyZO66y599ZVtr7vusoUAAABeJdRMAAAAAEDAKFdOf/11ejspyTZ07mbO1IcfmklJqamaOlVt2yolRZ98YhuaMUNXX23LAAAAeBUaygAAAAACV7ly7u1Cbyi/+66ZsXr0UZ04YctERqpLF1sGAADA29BQBgAAABC4LrjAvV24t7x46SV9842ZtDpwwMyMG6fISDMJAADgVbiHMgAAAIDAZT1D+fBh9/Y5cjj0wgu2zOjR+vVXPfGELWn14YcaOtRMAgAAeBsaygAAAAACV7Vq7u3ERPf2OZo1y7yBxn33qW5dDRqk4Jy+hIWF6aabzCQAAIAX4pYXAAAAAAJXnTru7e3b3dvn4rffdOedtkx8vKpXl6QaNTRnjl57zXY2dIUKGj5cFSq4MwAAAF6LhjIAAACAwGVtKCcmKjNTISHuTMEsWGALr7xSt9/uDm+/3RYCAAD4lpyutgIAAACAwGBtKJ86pb173WHBpKZqxAhbpn9/WwgAAODTaCgDAAAACFyVKqlUKXe4Y4d7u2CmT7eFzZvr4YdtGQAAAJ/GLS8AAAAABK6gINWurU2bTofbt6tNG+u42+7d+uknZWW5M0FBuuoqxcS4M5IWLrSFo0YpKMiWAQAA8Gk0lAEAAAAEtDp13A3lgQM1YIBt1OmLL9S1q9LTzXxwsKZPV8+ep8PNm/XZZ7YJ7drZQgAAAF/HLS8AAAAABDTrbZQlpaTYQqeXX86hmywpK0vjxrnDyZPd25LmzlUo5/AAAAD/QkMZAAAAQEC7/npbuH27LZR06pRWrTKTLgkJGjVKR45ozRq99ZZtqHlzWwgAAOAHaCgDAAAACGi33WYLszeUBw40M9HRtvD553XJJWrb1pbs3VuVK9syAAAAfoCGMgAAAICAFhSkFi3cYfaG8uLFtvDkSR09qtKlbckjR5SZacs89pgtBAAA8A80lAEAAAAEOuttlHfscG9L2r9fhw+7wwYNFBGhoCDdc487mV2DBqpf30wCAAD4ARrKAAAAAAKdtaFsnKH83//aQtfNlF97TdOm2YZcatbU8uUKCjLzAAAAfsDrGsoZGRkff/zxHXfcERMTExUVVapUqVq1arVo0WLkyJFr1641Z+fp+PHj48ePb926daVKlUqUKFGpUqXWrVuPHz/+xIkT5lQAAAAAASyPhvLOnbbQdaeLkBDdfbfi4myjTu+9p3LlzCQAAIB/CDUTxer777+/6667/vzzT2ty165du3bt+uabb5YtW7Zx40brUB7Wr1/frVu3/fv3uzIHDhw4cODAmjVrXn311fj4+Ouuu84yHQAAAEDgql3bvb1zpzIyFBoqSenp+uIL99DNN7u3nUaM0MqVOnLEnenUSTfc4A4BAAD8jBc1lFevXt25c+eUlBRz4Oxt3ry5ffv2x48fNwckSfv27WvXrt369evr1atnjgEAAAA+JSMjY+bMmfPnz//+++8PHjzocDgqVKhQvXr1li1bdurUqWXLluYOuTt+/Pjbb789f/7833//PSkpqVy5cpdffnmXLl0GDRpUqlQpc7Z/sZ6hnJGhPXtUq5YkLVvmziun5+w1bKi9e7Vly+kn8pUrp9q1udkFAADwZ97SUD548OCdd97p6iZHRUUNGzasZcuWNWvWTEpK2rVr14oVKw4cOGDfKVf9+/d3dZPLlSs3adKkBg0a/PDDDw888MC///4r6fjx4wMGDPj2229tuwEAAAA+hSv8Ckv58oqOVnLy6XDr1tMN5TVr3HMkNWhgC50iInTttWYSAADAX3lLQ/mVV175+++/ndsXXHDBDz/8UMu5gpMkNWvWrGfPnq4wb2vWrPn+++9d4fjx43v16iXp8ssvT0lJuffee5357777bu3atWd1ygYAAADgPbjCrxAFBalOHf388+nwrrt06JAkvfiie07NmoqKcocAAACBySseypeZmfnuu++6whdeeKFWrVrp6en79+9PSkqyTPTInDlzXNtBQUHdunVzhd27dw+yXH5mnQkAAAD4kOxX+I0ePfrLL7/csmXLunXrZsyYMXDgwGrVqtl3ypVxhd/06dO3bNny8ccfly1b1pl0XuHn3sEf1ajh3g4OlqR9+9wZSYMG2UIAAIDA5BVnKP/yyy/WxnF0dPRNN920atWqtLQ0SRUqVOjSpcvIkSPrWG9sljvr6ck1atQo7XoMs1S2bNlq1art2bPHGVpnAgAAAD6EK/wK3XXXacGC09sHD+rQIb3wgm1CXJwtBAAACExecYZyQkKCNezVq9eSJUuc3WRJBw8efO+996655prFixdbp+UmMTHRtV2xYkXLiJmxzgQAAAB8BVf4nQ/DhtnCxx/XxIm2zCWX2EIAAIDA5BVnKB8+fNgaOhwOa+h0/Pjx7t27JyQk5Hue8tGjR13bJUuWtIxIUmRkpGvb+YC+7NLS0lzt7GPHjklKT09PT0+3TfJHzn9jIPxLcS6oE3iCOoEnqBPkq3CLxOFwFNaPKnZc4Xc+WL4oSHKfrezk8QnfAAAAfs4rGsqu7q3LuHHjBg4cmJmZOXHixOeee86ZTElJefHFF9955x373Lxk701nz2Q3bty4Z555xppZunSptRPt35YtW2amgGyoE3iCOoEnqBPkq7CKxOFwnDhxwsz6puxX+FlXuc4r/GbNmjVr1qxOnTpZJuYs3yv8XA1lv7/CLzZWK1ac3nY+lM/l8cdtIQAAQMDyioay9SQISa1btx4xYoRze+zYsYsXL/7pp5+c4dKlS93zclGmTJkDBw44t0+ePGkftGVczxgxjBw58pFHHnFuHzt2rEaNGu3btzf+J/1Senr6smXL2rVrFxYWZo4BZ1An8AR1Ak9QJ8hX4RaJw+HI7QI1n8MVfufJY48FrViRw1ekdu2y6tXL9MF/0PlSuFcPwC9RJMgXRYK8USHeILcr/HJYLRW96tWrW8OGDRtaw0aNGrkayvv377cO5SgmJsbVUHZtuPzzzz+u7ZiYGMuIW3h4eHh4uDUTFhZWKF9jfEJA/WNRYNQJPEGdwBPUCfJVWEXicDgK5ed4A67wO0/++aek1N7MSqGhuxYvtp0VDhXe1QPwYxQJ8kWRIG9USPHK7Qo/r2goN2rUyBpmZmZaw4yMDNd2dHS0ZSRnjRs3/vbbb53be/bsOXr0aJkyZZxhUlLS3r17rTNd2wAAAICv4Aq/8yQzUw884EhPdz+H0Ol//6teoYLtJJgAV7hXD8AvUSTIF0WCvFEh3iC3K/y8oqFcvXr1Ro0abdy40Rl+/fXXrqGsrKx169a5wquvvtq5sXPnTuv5xatWrWrTpo1zu3v37pMmTXJuOxyOuXPnDhgwwBnOnj3bueHUvXt3awgAAAD4BK7wO0/CwlS7trZutSUrVlTVqr73bykCPvoqoyhRJMgXRYK8USHFK7cr/ILNRDF5+OGHXds//PDD4MGDN27c+N133/Xt23erZUF39913u7Zz06pVK+upx4899tj06dO3bt06ffr04cOHu/JNmjRp2bKlKwQAAAB8RaFf4efadl7h5woD8Aq/Xr3MzF13mRkAAIBA5hVnKEvq1avXrFmz5s+f7wynTJkyZcoU+xS1adOmT58+RjJH77///nXXXee8x0dSUlLv3r2NCVFRUe+9956RBAAAAHwCV/idP08+qdq1tXGjsrIUFKSrrlLfvuYcAACAQOYtZyhLmjVrVh4r1FtuueWzzz4LDvbof7hevXrLli2rUqWKOSBJqlKlytKlS+vVq2cOAAAAAD6CK/zOk6Ag9e6t11/XG29owgQNGKCQEHMOAABAIPOWM5QlRUREzJ49e8WKFVOnTv3666+dN2urXLlys2bN+vTp06FDB3OHPDVr1uyPP/6YMmXK/Pnzt2zZ8u+//5YtW/aKK67o0qXLoEGDoqKizB0AAAAA38EVfgAAACgWXtRQdoqNjY2NjTWz2dSqVcvhcJhZu6ioqEcfffTRRx81BwAAAADfN2vWrD59+syZM8cckCTdcsstH3300Vld4detW7ccH+JXpUqV+Ph4rvADAACAvLChDAAAAMATXOEHAACAokdDGQAAAPBhXOEHAACAouTRFXAAAAAAAAAAANBQBgAAAAAAAAB4hIYyAAAAAAAAAMAjNJQBAAAAAAAAAB6hoQwAAAAAAAAA8AgNZQAAAAAAAACAR2goAwAAAAAAAAA8QkMZAAAAAAAAAOARGsoAAAAAAAAAAI/QUAYAAAAAAAAAeISGMgAAAAAAAADAIzSUAQAAAAAAAAAeCTUTsHM4HJKOHTtmDvij9PT0lJSUY8eOhYWFmWPAGdQJPEGdwBPUCfJVuEXicDicizrnAg/nSUCtnwNW4b434ZcoEuSLIkHeqBBvkNv6mYZyPpKTkyXVqFHDHAAAAIBvOn78eFRUlJlFIWH9DAAA4GeM9TMN5XxUrVp19+7d0dHRQUFB5pjfOXbsWI0aNXbv3l26dGlzDDiDOoEnqBN4gjpBvgq3SBwOR2Zm5rFjxypXrsxJyudPQK2fA1bhvjfhlygS5IsiQd6oEG+Q2/qZhnI+goODq1evbmb9WunSpXmvIl/UCTxBncAT1AnyVVhF4nA4srKySpcunZWVlZmZaQ6jkATg+jlgFdZ7E36MIkG+KBLkjQopXrmtn3koHwAAAAAAAADAIzSUAQAAAAAAAAAeCenRo0d4eHh4eHhYWFiJEiVCQ0NDQ0NDQkKCg4Odf5p7wK+FhIS0adMmNJR7oSAv1Ak8QZ3AE9QJ8lW4ReK89ZvjjKwzMs+Y8eU6hyMr+OgeSQ899JC5P4AzCve9Cb9EkSBfFAnyRoV4gxzXz0Hx8fGlS5eOjo6OjIwsVapUREREREREiRIlQkJCnH+aPwYAAADwQc4VsPNPZ/s4IyMjIyMjPT391KlTaWlpaWlpXR5+JSszI/SvDZK2b99u/ggAAAAgYOS2fuYEZAAAAAAAAACAR2goAwAAAAAAAAA8QkMZAAAAAAAAAOARGsoAAAAAAAAAAI/QUPZVSUlJ8+fPf/TRR1u1alWtWrWSJUuGhYVVqFChRYsWY8aM2bNnj7mDdOzYsQ8++OCBBx5o3rx5nTp1ypYtGxoaWrp06csvvzwuLm7q1KlpaWnmPnlavXp1UH4mTZpk7oYiVIA6ya5Pnz7Gy2rO8MzixYt79epVq1atkiVLlilTpm7dug8++ODmzZvNeShy3lAnHE+8X8HqxHwVs4mLizP38QDHE6/lDXWSx/EkODg4NDQ0LCxs8uTJ5m6A/yrAG5MvDoGmAEWS3TmuBl34lPdO3lAkHEm8XMGKxHwJszmrdaALR5LzLj4+ftmyZRs2bEhISNi+ffvevXsPHz6cnJyckpKSkZHhgLeKjo42X0uLyMjI999/39hl/fr15jy72rVrb9682dgrD6tWrTJ/RDYTJ040d0MRKkCdGGbPnm3uJpmT8nP8+PGbb77Z/CmSpJCQkKeeesrcAUXLG+qE44n3K1idmPOy6datm7lPnjieeDlvqBNPjievv/56SkpKcnJyUlLSwYMH9+3bt3Pnzq1btyYkJNSK7VOzTa/atWvXrl3b/NGAbyrAG5MvDoGmAEViOPfVoINPee/mDUXCkcTLFaxIzHnZnNU60MGRpLBlZWVlZGSkp6enpaVZ18+coeyrsrKyzJRFSkrKgAEDlixZYg7kaceOHV27ds3MzDQH4LPOsU727ds3aNAgM3uWsrKybrnlloULF5oDkqTMzMxnn332mWeeMQdQhLyhTuD9zrFOCgXHE+/nDXUCwHA+3ph8cfAz51gkhbIa5FPey3lDkcDLnWORFAqOJEUm1EzAp8TGxsbFxTVu3Dg8PPzHH398+umnExMTnUMOh2PMmDEdO3Z0TQ4JCWnSpEmHDh0aNWpUuXLlsmXLHjx4cPHixS+99FJGRoZzzvbt27/++uvWrVu79vLQQw89NGzYMDMrXXjhhWYKRe6s6sTF4XD07dv3yJEjkiIiIlJTU80Znpk8ebL1N8n333//fffdl5ycPGrUqNWrVzuTY8eOve2226666irXNBS94q0TK44n3qxgdSKpadOmM2fONLNSqVKlzFTuOJ74iuKtEyvjeOI8yUJS2bJl3ZOAwHBWb0y+OASmsyoSl8JaDfIp7xOKt0isOJJ4rYIViQppHciRpOhwywsfFRcXl5CQYCR37dplXGJw4sQJY052TzzxhHWXmTNnmjNyYX2XjhkzxhyGFziXOpkwYYJz9KKLLjI+qs2pucvKyqpdu7Zrx1atWrmGjhw5EhUV5Rrq37+/ZT8UqWKvEwfHE19QsDpx5Vu3bm3NFwDHE59Q7HXiyPN4kpXLJXvc8gL+rWBvzBzxxcFfnUuRFMpqkE9571fsReLgSOL1ClYkrvy5rwM5kpwPua2fueWFr5ozZ06V3ZyhAAAXZ0lEQVT9+vWNZM2aNVu2bGnNJCcnW8McOez3rLG+/Tw3derU6tWrlyhRokyZMldeeeWgQYN+/PFHcxKKXIHr5Lfffhs+fLik4ODgadOmlSlTxpjgoR9//HHHjh2usHv37q7tcuXK3Xjjja4wPj7eKEUUmWKvEwPHE+9U4DpxSkhIuPTSS0uWLBkZGRkTE3PHHXd8/vnneV8WZ+B44hOKvU4MxvFk8ODBP/30kzkJ8Hfn+Ma04ouDvypwkRTWapBPee9X7EVi4EjihQpcJE7nvg7kSFKUaCj7G+tbIjIysmLFipbB0/bs2eM8DWfNmjUjR458+eWXXUNNmzZt1KiRZa6ndu3atXfv3vT09GPHjv32229vv/12w4YNhw0bdlZvfhSZvOskPT29d+/ezguRHn/88VatWllHz8r3339vDa+88kprWK9ePdf20aNH//jjD8sgil+R1YmB44lvybtOXJKSkv7888/U1NSTJ0/u3Llzzpw5t956a7t27Q4dOmROzQXHE59WZHViyH48ady48SOPPMLxBJBnb0y+OAS4vIukEFeDfMr7riIrEgNHEh+Sd5G4nPs6kCNJUeIeyn7lr7/+WrlypSvs0aNHUFCQZfy0Fi1a7Nq1y8xKHTp0mDZtWo67FMyECRNKlCjx0ksvmQMoVvnWyVNPPeU8gatBgwbPPvusdehsuW6W5GR8chhhYmLiZZddZs2gGBVlnXiC44l3yrdO8rZy5couXbqsXbs2JCTEHMuG44nvKso68cTEiRPDwsLGjh1rDgCBxMM3Jl8cAlm+RVKIq0E+5X1UURaJJziSeKF8iyRvZ7UO5EhSlDhD2X+cOHGiZ8+eaWlpzrBMmTJPPvmkfUpeevToMXny5Nx+U5Sb6Ojou+++e9q0aT/++ONvv/02f/78du3aWSe8+uqrf/75pzWD4pVvnaxdu9b5AVyyZMnp06eHhYVZR8/W0aNHrWHJkiWtYWRkpDX8999/rSGKURHXiRPHE5+Tb51ICgkJ6dix48SJE9etW7d169bly5cPGTLEuhxcv379tGnTLHvkiuOJjyriOnHK93gyYcKEbdu2WTNAQPHkjZkHvjgEgnyLpHBXg3zK+6IiLhInjiS+Jd8iUaGuAzmSFCkeyucfDh48eN1117le1oiIiOXLl5uTzrjooossJeAWHh4+bdo0c3bu/v333+TkZDPrcNxxxx3WH/vcc8+ZM1BM8q2To0eP1qpVyzn65ptvuvJjxoxx7aWzeXLCfffdZ91x27Zt1tF3333XOjpjxgzrKIpL0deJg+OJD8q3Tpz27NljphyOt956y/Kqql27duaMnHA88UVFXycOj48nTz/9NA/lQ2Dy8I3pxBeHwJRvkRT6apBPeZ9T9EXi4Ejia/ItEqdCXAdyJDkfeCifP9u2bVuzZs02bNjgDKOiohYsWBAbG2uf5bZz506Hw5GcnPzHH3+8+uqrFSpUcObT0tL69eu3ZcsW+/RclSlTxvqUTJfRo0dbw59//tkaorh4Uifjx4/fuXOnpE6dOg0ZMsQ6VDDGIxdOnjyZR1i2bFlriGJRLHUijie+xpM6capWrZqZkgYPHnzBBRe4Qg9fVo4nPqdY6kQeH08SEhKsIRAgPH9jOvHFIQB5UiSFvhrkU963FEuRiCOJT/GkSJwKcR3IkaQo0VD2eevXr2/WrJnrss3KlSuvXr3a+vDK3ERFRV1yySUPP/xwfHy8K5mZmfnOO+9YZhWE8bhnriPwBh7WiesKkcWLFwdZPPPMM9ZpzuSwYcOsyRzFxMRYwwMHDljDf/75xxoak1H0iqtO8sDxxAt5WCd5s76yHr6sHE98S3HVSR6M44lxUSQQCAr8xuSLQ+DwsEgKfTXIp7wPKa4iyQNHEm/jYZHkrQDrQI4kRYmGsm/79NNP27Zt63rkZd26dTds2NCwYUP7rHxce+211vDc7ze0Y8cOa2j9tRKKRaHUScE0btzYGv7666/WcNOmTa7tMmXKXHrppZZBFLVirJM8cDzxNoVVJ9ZX1sOXleOJDynGOsmDcTwpV66cNQT8XqG8Mfni4N8KpUgKhk95X1GMRZIHjiRepbCKpADrQI4kRYmGsg97/fXXu3fvnpqa6gzbtm37zTff5HabM0kbN240U5KkBQsWWEPjPuVt2rRx/S6xb9++1qG4uDjnA1sNxmPTC3DgQCE62zopmNzqpEGDBtbfK86ZM8e1feTIkRUrVrjCbt26BZ3Nw15RuIq3TsTxxEecbZ08/vjj8+bNczgcRn7y5MlHjhxxhcbLmludcDzxFcVbJ/L4eGL0xQD/drZvTL44BKCzLZKCya1I+JT3CcVbJOJI4gvOtkgKdx3IkaQohZoJ+Ihhw4ZNmDDBFcbGxk6ePPnff/81LgSoXLlyRESEc7tx48YNGjTo2rVrkyZNatasGRwcvG/fvoULFxo3O2/Tpo01zMPy5cvj4+PbtGkTFxfXpEmTqKio7du3T5w4cenSpa45ERERPXv2tOyEInW2dfLUU0/leLXR66+/bv05iYmJkkqXLu2ekYugoKBHHnnkgQcecIZr1669//77Bw0alJyc/MQTT5w4ccKZDw0Nfeihh9y7oWgVe52I44kvONs6kfTHH3+8/PLLl112We/evVu1alWpUqW9e/d++umnU6ZMse7Sr18/a5gbjic+odjrRB4fT7p3727ZCfBnBXhj8sUh0JxtkRT6apBPee9X7EUijiRe72yLRIW9DuRIUqTi4+OXLVu2YcOGhISE7du379279/Dhw8nJySkpKRkZGbYH+8GbmC9kLlatWnVWu9StWzclJcX91zgcrVu3do3ec8891iHjfuc5eu2116y7oIiZr0curHWSo3wfxZtHnWRmZt5www2WvXMwZswY6y4oYubrkYvzWiccT7yf+XrkwlonXbt2NYezufXWW91/h8PhyLNOOJ54P/P1yMV5rRNPjievvPKK9SnV+/bt27lz59atWxMSEmrF9qnZplft2rVr165t/bGA7zLfALngi0MgM1+MXJzX1SCf8l7OfDFycV6LhCOJlzNfjFyc13UgR5JCl5WVlZGRkZ6enpaWZl0/c8sLuLVv337lypUlS5Y0B3IRHR1tpiwiIiLeeOONHH8niYASHBw8f/78zp07mwOSpJCQkCeffPLpp582BxBgOJ74pbxfVkkDBgyYMWOGmc0dxxO/VOh1kvcPjIiIeP311x988EFzAMDZ4IsDCh2f8sgXRxL/k/drqrNfB3IkKTLc8iKAfPXVV2vXrl23bl1iYuKhQ4eSkpLCwsLKlClz8cUXN23atFu3bs2aNTP3ydO2bduWLl26YsWKH374Ydu2bUlJSVlZWWXLlq1bt25sbOyAAQOqVq1q7oOAFBUVtXDhwkWLFn300Ufr168/cOBAaGho9erV27ZtO3jw4Hr16pk7IPBwPPFL06ZNGzJkyJdffrl+/fo//vjjwIEDaWlp0dHRMTExLVq06NevXwFuYsvxxP8Uep3kcTxp27Ztv379qlSpkpWVZe4GwIIvDigWfMojbxxJ/E+hrwPFkaSoBMXHx5cuXTo6OjoyMrJUqVIRERERERElSpQICQlx/mnuAQAAAPgg51V7zj8zMzMzMzMzMjKcF/GdOnUqLS0tLS2ty8OvZGVmhP61QdL27dvNHwEAAAAEjNzWz9zyAgAAAAAAAADgERrKAAAAAAAAAACP0FAGAAAAAAAAAHiEhjIAAAAAAAAAwCM0lAEAAAAAAAAAHqGhDAAAAAAAAADwCA1lAAAAAAAAAIBHaCgDAAAAAAAAADxCQxkAAAAAAAAA4BEaygBQpPr27Rtkt3r1anOS/xo6dKj1375o0SJzRkGlpaVVr17d9ZOrVKmSnJxsTgIAAICvYf1s/bezfgbgDWgoA0D+atWqZVnFFcTTTz9t/tDA8+uvv06ePNkVNmnSpHPnzpbxcxIeHj5q1ChX+Pfffz/33HOWcQAAABQd1s+FgvUzAO9EQxkAUERGjBiRkZHhCocPH24ZLAT9+/evWLGiK5wwYcLevXst4wAAAIAvYf0MwDvRUAYAFIXvv/9+4cKFrjAmJqZr166W8UIQHh4+ePBgV5iamvr8889bxgEAAACfwfoZgNeioQwARWrUqFFr7a699lpzkj8aN26cNRw4cGBISIg1UygGDhwYHOz+aHv//fcPHTpkGQcAAICPYf3sxPoZgPcINRMAgGzmzp2bmppqZqUHH3zw559/tmb69evXv39/a8apZs2azo1LLrnkkksusQ/6v507d86fP98VBgcH9+nTxzJeaKpXrx4bG7ts2TJnmJqa+vbbb1vvDQcAAIAiwPr5HLF+BuDNaCgDQP4aNWpkpiRJZcqUMTI1a9Zs0aKFkcTUqVMzMzNdYdOmTatXr24ZL0xxcXGuBbGk9957jwUxAABAEWP9fI5YPwPwZtzyAgCKVN++fY0HWK9evdo6YfXq1caEvn37SkpNTZ04cWLz5s3Lly8fHR1dv3790aNH//PPP9Z9t2zZMmTIkMsvv7xkyZIXXHDB9ddfP378+JMnT1rn5CgxMXHcuHGdOnWKiYkpU6ZMeHh41apVr7/++tGjR//666/m7LM3ffp0a5j33d/S0tI++eST3r17X3PNNRdeeGF4eHhYWFjZsmWvuOKKm266afjw4XPmzDlw4IC52xldunSxhomJievWrbNmAAAA4ENYP4v1MwAvwxnKAOADfv3117i4uN9//92V2bx58+bNm99+++358+c3a9ZM0muvvfb444+7HgOdmpq6fv369evXv/vuu0uXLnVdM2g4fPjwQw89NHPmTOsZEJL279+/f//+9evXP//88z179nzzzTfLlStnneC5LVu2bNu2zZqJjY21hlZr1qzp3bv37t27jfzRo0ePHj36+++/L1myxJlZsWJF27Zt7bMkqXLlynXr1v3tt99cmfnz519//fWWKQAAAPBzrJ9ZPwM4fzhDGQC83c6dO2+88Ubratjl0KFDHTp02LNnz7hx4x555BHXathq69att99+e45DmzZtuvbaa6dPn26shq0cDseMGTOaNGmSmJhojnnGegGdpKioqNyeo7Jly5YOHTpkXw3n6NSpU2bqjJYtW1rDpUuXWkMAAAD4N9bPOWL9DKCw0FAGAG/31Vdf/f3332b2jOTk5FtuuWX06NHmgMUPP/wwc+ZMI7l///5OnTp5uPrctm1b165dT5w4YQ54YMOGDdawXr16uT2feuzYsTk+vOVsXX311dZw06ZNnly3CAAAAP/A+vlssX4GcFZoKAOAb+jYsWN8fPy8efM6d+5sDP38889ZWVnBwcFDhw5dsmTJ1KlTL7roImOOcRc2SY888siePXusmQoVKowaNWru3LlLlix54403LrvsMuvopk2bxo4da814yHiQ9xVXXGENrVatWmUNq1atOm7cuPnz569atWrBggWTJ09+8MEHr7322uDgfD686tataw0zMjI2b95szQAAAMDvsX5m/QzgPOEeygDgA2677bZPP/3UuX3zzTfHxMQYa1lJEyZMeOCBB5zbDRs2rF+/vnX0u+++s4Zbt26dNWuWNXPJJZesWbOmcuXKzrBDhw733ntv69atv/32W9ecSZMmjRgxIvuzufO2c+dOa5jH86kPHTpkDWfMmNGqVStrxunQoUNz586tVq2aOXBG9r8iMTGxcePGRhIAAAD+ivWzFetnAIUrn19SAQC8wUsvveTaDg0Nzf6IjFq1ag0ZMsQV1qtXzzjJ4siRI8nJya7w888/dzgclnE9/fTTrtWwU3h4uGuF7XT8+PEVK1ZYM/k6evSocblcxYoVraFV2bJlreHWrVutoUv58uUHDRpkrPitKlSoYGT2799vZAAAAODHWD9bsX4GULhoKAOAt7vssssuvvhia6Zq1arWUFLHjh2NC9myzzl69Khre+3atZYRSbrrrruCsrn77ruNaWvWrDEyeTt+/LiRKVmypJFxadGihTW89957r7nmmgEDBrz44ovz5s3bsmVLHg8/sYqMjDQyBbt7HQAAAHwR62fWzwDOK255AQDezrgXm3Ja8F166aVGpkSJEkbG+qDqAp9xsG/fPjN1lowzO6xGjBixYMEC6//nL7/88ssvv7jC6OjoFi1a3HnnnT169Mj+D3TJ468AAACA32P97ApZPwM4HzhDGQC8XfZ7roWFhRmZ0qVLG5m8Wc+2OCtHjhwxU3nKvnbP44HRTZo0iY+Pz37BnUtycvIXX3zRp0+fq666avv27ebwGdn/ilKlShkZAAAA+CvWzy6snwGcDzSUAcDb5ftQZkkhISFmKk/G3dY8Zz39wRNly5YNDw+3Zg4ePGgNDV26dElMTHz//fe7detWpUoVc/iMrVu33n777VlZWeaAJOnAgQNGxri9HQAAAPwY6+fsWD8DKETc8gIAAlH2BeK0adNiYmKMZHbZT/fIW1BQUK1atayPB8n+fG1DqVKl+vXr169fP0lHjx7dtm1bYmLiTz/99NFHH+3evds1LSEh4ZtvvmnZsqV7zzOy/xWe/NMAAACA3LB+BgAXGsoAEIhatGixcOFCa+bAgQPZHyFiyMjICA096w+Oq6++2rog3rJli2UwH2XKlGnYsGHDhg3j4uL69+9vPFzlp59+ynFB/Ntvv1nDkJCQevXqWTMAAADAWWH9DAAu+V8GAgDwP126dAkKCrJmnn322W+//daasUpISHjkkUeaNGliDnigadOm1nDz5s25XWr3wgsvfPrpp2lpaeaApJzu7JaSkmJknKzPIZFUv3797LeiAwAAADzH+hkAXM76F2UAAD9wxRVXdO/effbs2a7MsWPHmjVr1qlTp86dO1evXr1UqVL//vvvrl27fvnll1WrVv3111+SLrroIveP8Fi7du2s4fHjx3/++ecGDRpYk06rV68eOXJkZGRkq1atGjZseNlll5UvXz4yMvLYsWMJCQlvvfWWMb9atWpGxmnt2rXWsEOHDtYQAAAAOFusnwHAhYYyAASoV1999Ztvvtm7d68r43A4Fi1atGjRIsusQlC/fv2YmJjExERXZuXKlTkuiJ1SUlKWLFmyZMkSc8AuNDQ0x5Xu/v37jasCu3TpYg0BAACAAmD9DABO3PICAAJUtWrVvvjiixo1apgD58Fdd91lDefPn28NC2bMmDEVK1Y0s9l+eExMzPXXX2/NAAAAAAXA+hkAnGgoA0Dgql+//i+//NK3b9+wsDBzLJvrrrvuqaeeMrOe6d+/f3Cw+xPnm2++2bdvn2X8tOrVqxt3pstRVFTUK6+8Mnr0aHNAkjR37lxrOGDAAGsIAAAAFBjrZwAQt7wAgABXrly5Dz744Lnnnps1a9bXX3+dkJBw5MiRo0ePRkRElC1btnbt2nXr1m3evHlsbGzVqlXNnT0WExPTtWvXefPmOcOsrKxp06aNGDHCPkv/+9//nn/++dWrV2/cuDEhISExMfGff/45ceJEUFBQqVKlqlatWrdu3djY2Li4uPLlyxv7Ou3evXvlypWuMCIi4r777rOMAwAAAOeE9TMABMXHx5cuXTo6OjoyMrJUqVIRERERERElSpQICQlx/mnuAQDA2fv++++tD7muXbv2n3/+aT3tolCMGTPm2WefdYVDhgx58803LeMAAprD4cjKynL+mZmZmZmZmZGRkZGRkZ6efurUqbS0tLS0tC4Pv5KVmRH61wZJ27dvN38EAABFhfUzgGKX2/q5kI9EAADkqHHjxrfccosr3LFjR6HcCc4qNTV18uTJrjA8PPyJJ56wjAMAAAA+g/UzAK9FQxkAUETGjRsXGuq+1dILL7xgGSwE77///sGDB13hsGHDqlWrZhkHAAAAfAnrZwDeiYYyAKCIXHnllYMHD3aF33777aJFiyzj5yQtLW3cuHGusFKlSqNGjbKMAwAAAD6G9TMA78Q9lAEAABAQcrsHHPdQBgAAALLLbf3MGcoAAAAAAAAAAI/QUAYAAAAAAAAAeOT/Ac6nFEGaP7P9AAAAAElFTkSuQmCC;" vertex="1" parent="1">
          <mxGeometry x="350" y="210" width="1904" height="933" as="geometry" />
        </mxCell>
        <mxCell id="DMj2-y2GFaX9TFa4xjfr-3" value="&lt;font style=&quot;font-size: 50px;&quot;&gt;&lt;b&gt;Connext DDS&lt;br&gt;&lt;/b&gt;&lt;/font&gt;" style="text;html=1;strokeColor=none;fillColor=default;align=center;verticalAlign=middle;whiteSpace=wrap;rounded=0;" vertex="1" parent="1">
          <mxGeometry x="1560" y="190" width="490" height="30" as="geometry" />
        </mxCell>
        <mxCell id="DMj2-y2GFaX9TFa4xjfr-4" value="&lt;font style=&quot;font-size: 50px;&quot;&gt;&lt;b&gt;Fast DDS&lt;br&gt;&lt;/b&gt;&lt;/font&gt;" style="text;html=1;strokeColor=none;fillColor=default;align=center;verticalAlign=middle;whiteSpace=wrap;rounded=0;" vertex="1" parent="1">
          <mxGeometry x="580" y="190" width="490" height="30" as="geometry" />
        </mxCell>
        <mxCell id="DMj2-y2GFaX9TFa4xjfr-6" value="" style="ellipse;whiteSpace=wrap;html=1;aspect=fixed;fillColor=none;strokeColor=#FF8000;strokeWidth=4;" vertex="1" parent="1">
          <mxGeometry x="1410" y="920" width="150" height="150" as="geometry" />
        </mxCell>
        <mxCell id="DMj2-y2GFaX9TFa4xjfr-7" value="" style="ellipse;whiteSpace=wrap;html=1;aspect=fixed;fillColor=none;strokeColor=#FF8000;strokeWidth=4;" vertex="1" parent="1">
          <mxGeometry x="2090" y="230" width="210" height="210" as="geometry" />
        </mxCell>
        <mxCell id="DMj2-y2GFaX9TFa4xjfr-8" value="" style="ellipse;whiteSpace=wrap;html=1;aspect=fixed;fillColor=none;strokeColor=#FF8000;strokeWidth=4;" vertex="1" parent="1">
          <mxGeometry x="450" y="870" width="180" height="180" as="geometry" />
        </mxCell>
        <mxCell id="DMj2-y2GFaX9TFa4xjfr-9" value="" style="ellipse;whiteSpace=wrap;html=1;aspect=fixed;fillColor=none;strokeColor=#FF8000;strokeWidth=4;" vertex="1" parent="1">
          <mxGeometry x="1185" y="230" width="90" height="90" as="geometry" />
        </mxCell>
      </root>
    </mxGraphModel>
  </diagram>
</mxfile>
